<!-- Generator: Adobe Illustrator 20.1.0, SVG Export Plug-In  -->
<svg version="1.1"
	 xmlns="http://www.w3.org/2000/svg" xmlns:xlink="http://www.w3.org/1999/xlink" xmlns:a="http://ns.adobe.com/AdobeSVGViewerExtensions/3.0/"
	 x="0px" y="0px" width="542.1px" height="467.8px" viewBox="0 0 542.1 467.8" enable-background="new 0 0 542.1 467.8"
	 xml:space="preserve">
<defs>
</defs>
<g>
	<line fill="none" stroke="#76A8AB" stroke-width="2" stroke-miterlimit="10" x1="0" y1="366.6" x2="542.1" y2="366.6"/>
	<line fill="none" stroke="#76A8AB" stroke-width="2" stroke-miterlimit="10" x1="0" y1="236" x2="542.1" y2="236"/>
	<line fill="none" stroke="#76A8AB" stroke-width="2" stroke-miterlimit="10" x1="0" y1="100.1" x2="542.1" y2="100.1"/>
	<g>
		<g>
			<g>
				<g>
					<path fill="#014747" d="M19.1,21.4V7.8h-5.3V4.6c0.7,0,1.5,0,2.1-0.2c0.7-0.1,1.3-0.4,1.9-0.7s1-0.8,1.4-1.3
						c0.4-0.5,0.6-1.2,0.8-2h3.4v21H19.1z"/>
					<path fill="#014747" d="M30.4,5.1c0.3-1,0.8-1.9,1.4-2.7c0.6-0.8,1.4-1.4,2.4-1.8c1-0.4,2.1-0.6,3.3-0.6c1,0,1.9,0.1,2.7,0.4
						c0.9,0.3,1.6,0.7,2.3,1.3c0.7,0.6,1.2,1.3,1.6,2.1c0.4,0.8,0.6,1.7,0.6,2.8c0,1.1-0.2,2-0.5,2.7c-0.3,0.8-0.8,1.4-1.4,2
						c-0.6,0.6-1.2,1.1-1.9,1.6c-0.7,0.5-1.4,1-2.1,1.4c-0.7,0.5-1.4,1-2.1,1.5c-0.7,0.5-1.3,1.2-1.8,1.9h9.9v3.7H29.5
						c0-1.2,0.2-2.3,0.5-3.2c0.3-0.9,0.8-1.7,1.4-2.4c0.6-0.7,1.3-1.4,2.1-2c0.8-0.6,1.7-1.2,2.6-1.8c0.5-0.3,1-0.6,1.5-1
						c0.5-0.3,1-0.7,1.4-1.1c0.4-0.4,0.8-0.9,1.1-1.4c0.3-0.5,0.4-1.1,0.4-1.7c0-1-0.3-1.8-0.9-2.4c-0.6-0.6-1.3-0.9-2.3-0.9
						c-0.6,0-1.1,0.1-1.6,0.4c-0.4,0.3-0.8,0.7-1,1.1c-0.3,0.5-0.4,1-0.6,1.6c-0.1,0.6-0.2,1.1-0.2,1.7H30C30,7.3,30.1,6.2,30.4,5.1
						z"/>
					<path fill="#014747" d="M48,10.8V6.2h4.7v4.6H48z M52.7,16.8v4.6H48v-4.6H52.7z"/>
					<path fill="#014747" d="M56.4,5.7c0.4-1.4,1-2.5,1.7-3.3s1.5-1.4,2.4-1.8c0.9-0.4,1.9-0.5,3-0.5c1.1,0,2.1,0.2,3,0.5
						c0.9,0.4,1.8,1,2.5,1.8c0.7,0.8,1.3,2,1.7,3.3c0.4,1.4,0.6,3.1,0.6,5.1c0,2.1-0.2,3.9-0.6,5.3s-1,2.5-1.7,3.4
						c-0.7,0.8-1.5,1.4-2.5,1.8c-0.9,0.4-1.9,0.5-3,0.5c-1,0-2-0.2-3-0.5c-0.9-0.4-1.7-1-2.4-1.8s-1.3-2-1.7-3.4
						c-0.4-1.4-0.6-3.2-0.6-5.3C55.7,8.8,55.9,7.1,56.4,5.7z M60.1,13c0,0.9,0.2,1.7,0.4,2.5c0.2,0.8,0.5,1.5,1,2
						c0.5,0.6,1.1,0.8,2,0.8c0.9,0,1.6-0.3,2-0.8c0.5-0.6,0.8-1.2,1-2s0.3-1.6,0.4-2.5c0-0.8,0.1-1.6,0.1-2.2c0-0.4,0-0.8,0-1.3
						c0-0.5-0.1-1-0.1-1.6c-0.1-0.5-0.2-1.1-0.3-1.6c-0.1-0.5-0.3-1-0.6-1.4c-0.3-0.4-0.6-0.8-1-1c-0.4-0.3-0.9-0.4-1.5-0.4
						S62.4,3.6,62,3.9c-0.4,0.3-0.7,0.6-1,1c-0.3,0.4-0.4,0.9-0.6,1.4c-0.1,0.5-0.2,1.1-0.3,1.6C60.1,8.5,60,9,60,9.5
						c0,0.5,0,0.9,0,1.3C60,11.4,60,12.2,60.1,13z"/>
					<path fill="#014747" d="M73.6,5.7c0.4-1.4,1-2.5,1.7-3.3s1.5-1.4,2.4-1.8c0.9-0.4,1.9-0.5,3-0.5c1.1,0,2.1,0.2,3,0.5
						c0.9,0.4,1.8,1,2.5,1.8s1.3,2,1.7,3.3c0.4,1.4,0.6,3.1,0.6,5.1c0,2.1-0.2,3.9-0.6,5.3s-1,2.5-1.7,3.4s-1.5,1.4-2.5,1.8
						c-0.9,0.4-1.9,0.5-3,0.5c-1,0-2-0.2-3-0.5c-0.9-0.4-1.7-1-2.4-1.8s-1.3-2-1.7-3.4S73,12.9,73,10.8C73,8.8,73.2,7.1,73.6,5.7z
						 M77.3,13c0,0.9,0.2,1.7,0.4,2.5s0.5,1.5,1,2c0.5,0.6,1.1,0.8,2,0.8c0.9,0,1.6-0.3,2-0.8c0.5-0.6,0.8-1.2,1-2
						c0.2-0.8,0.3-1.6,0.4-2.5c0-0.8,0.1-1.6,0.1-2.2c0-0.4,0-0.8,0-1.3c0-0.5,0-1-0.1-1.6c-0.1-0.5-0.2-1.1-0.3-1.6
						c-0.1-0.5-0.3-1-0.6-1.4c-0.3-0.4-0.6-0.8-1-1c-0.4-0.3-0.9-0.4-1.5-0.4s-1.1,0.1-1.5,0.4c-0.4,0.3-0.7,0.6-1,1
						c-0.3,0.4-0.4,0.9-0.6,1.4c-0.1,0.5-0.2,1.1-0.3,1.6c-0.1,0.5-0.1,1.1-0.1,1.6c0,0.5,0,0.9,0,1.3C77.3,11.4,77.3,12.2,77.3,13z
						"/>
					<path fill="#014747" d="M110.3,0c1.3,0,2.5,0.2,3.4,0.6c0.9,0.4,1.7,0.9,2.3,1.5s1,1.4,1.3,2.2c0.3,0.8,0.4,1.7,0.4,2.6
						c0,0.9-0.1,1.7-0.4,2.5c-0.3,0.8-0.7,1.6-1.3,2.2c-0.6,0.6-1.4,1.2-2.3,1.5c-0.9,0.4-2.1,0.6-3.4,0.6h-5v7.7h-4.7V0H110.3z
						 M109,10.1c0.5,0,1.1,0,1.6-0.1s0.9-0.2,1.3-0.5c0.4-0.2,0.7-0.6,0.9-1s0.3-1,0.3-1.6s-0.1-1.2-0.3-1.7s-0.5-0.7-0.9-1
						c-0.4-0.2-0.8-0.4-1.3-0.5c-0.5-0.1-1-0.1-1.6-0.1h-3.7v6.4H109z"/>
					<path fill="#014747" d="M127.9,0l5,14.7h0.1L137.7,0h6.6v21.4h-4.4V6.2h-0.1l-5.2,15.2H131l-5.3-15h-0.1v15h-4.4V0H127.9z"/>
				</g>
			</g>
			<g>
				<g>
					<path fill="#014747" d="M199.7,0h15.4v3.2h-11.7v5.6h10.8v3.1h-10.8v6.3h11.9v3.2h-15.6V0z"/>
					<path fill="#014747" d="M231.7,18c0,0.4,0.1,0.7,0.2,0.9c0.1,0.2,0.3,0.3,0.6,0.3c0.1,0,0.2,0,0.4,0s0.3,0,0.5-0.1v2.4
						c-0.1,0-0.3,0.1-0.5,0.1c-0.2,0-0.4,0.1-0.6,0.1c-0.2,0-0.4,0.1-0.6,0.1c-0.2,0-0.4,0-0.5,0c-0.7,0-1.3-0.1-1.7-0.4
						c-0.5-0.3-0.8-0.8-0.9-1.5c-0.7,0.7-1.5,1.1-2.5,1.4s-1.9,0.5-2.9,0.5c-0.7,0-1.4-0.1-2-0.3s-1.2-0.5-1.7-0.8s-0.9-0.8-1.2-1.4
						c-0.3-0.6-0.4-1.2-0.4-2c0-1,0.2-1.7,0.5-2.3s0.8-1.1,1.4-1.4c0.6-0.3,1.2-0.6,1.9-0.7c0.7-0.1,1.4-0.3,2.1-0.3
						c0.6-0.1,1.2-0.2,1.8-0.3c0.6,0,1.1-0.1,1.5-0.3c0.4-0.1,0.8-0.3,1-0.6s0.4-0.6,0.4-1.1c0-0.4-0.1-0.8-0.3-1.1
						c-0.2-0.3-0.5-0.5-0.8-0.6c-0.3-0.1-0.7-0.2-1-0.3s-0.7-0.1-1.1-0.1c-1,0-1.8,0.2-2.4,0.6c-0.6,0.4-1,1-1,1.9h-3.4
						c0.1-1,0.3-1.8,0.7-2.5c0.4-0.7,1-1.2,1.6-1.6c0.6-0.4,1.4-0.7,2.2-0.8c0.8-0.2,1.7-0.2,2.5-0.2c0.8,0,1.5,0.1,2.2,0.2
						c0.7,0.2,1.4,0.4,2,0.8c0.6,0.4,1.1,0.8,1.4,1.4c0.4,0.6,0.5,1.3,0.5,2.1V18z M228.3,13.6c-0.5,0.3-1.2,0.5-1.9,0.6
						c-0.8,0.1-1.5,0.2-2.3,0.3c-0.4,0.1-0.7,0.1-1,0.3c-0.3,0.1-0.6,0.3-0.9,0.5c-0.3,0.2-0.5,0.4-0.6,0.8
						c-0.2,0.3-0.2,0.7-0.2,1.1c0,0.4,0.1,0.7,0.3,1s0.5,0.5,0.8,0.6c0.3,0.2,0.6,0.3,1,0.3c0.4,0.1,0.7,0.1,1,0.1
						c0.4,0,0.8,0,1.2-0.2c0.4-0.1,0.9-0.3,1.2-0.5s0.7-0.5,1-0.9c0.3-0.4,0.4-0.8,0.4-1.4V13.6z"/>
					<path fill="#014747" d="M234.4,5.9h2.6V1.3h3.4v4.7h3.1v2.5h-3.1v8.3c0,0.4,0,0.7,0,0.9s0.1,0.5,0.2,0.7
						c0.1,0.2,0.3,0.3,0.5,0.4c0.2,0.1,0.5,0.1,0.9,0.1c0.2,0,0.5,0,0.7,0c0.2,0,0.5,0,0.7-0.1v2.6c-0.4,0-0.8,0.1-1.1,0.1
						c-0.4,0-0.7,0.1-1.1,0.1c-0.9,0-1.6-0.1-2.2-0.3c-0.5-0.2-1-0.4-1.3-0.8c-0.3-0.3-0.5-0.7-0.6-1.2c-0.1-0.5-0.2-1.1-0.2-1.7
						V8.5h-2.6V5.9z"/>
					<path fill="#014747" d="M256,0h3.8v18.2h10.9v3.2H256V0z"/>
					<path fill="#014747" d="M286.9,21.4h-3.4v-2.2h-0.1c-0.4,0.8-1,1.4-1.9,1.9s-1.7,0.7-2.5,0.7c-2,0-3.5-0.5-4.4-1.5
						c-0.9-1-1.4-2.5-1.4-4.6V5.9h3.4v9.5c0,1.4,0.3,2.3,0.8,2.9c0.5,0.6,1.2,0.8,2.2,0.8c0.7,0,1.3-0.1,1.8-0.3
						c0.5-0.2,0.9-0.5,1.2-0.9c0.3-0.4,0.5-0.8,0.6-1.3c0.1-0.5,0.2-1.1,0.2-1.7v-9h3.4V21.4z"/>
					<path fill="#014747" d="M291.1,5.9h3.2v2.3l0.1,0.1c0.5-0.9,1.2-1.5,2-2c0.8-0.5,1.8-0.7,2.8-0.7c1.7,0,3,0.4,4,1.3
						c1,0.9,1.5,2.2,1.5,4v10.7h-3.4v-9.8c0-1.2-0.3-2.1-0.8-2.7c-0.5-0.5-1.2-0.8-2.2-0.8c-0.6,0-1.1,0.1-1.6,0.3
						c-0.5,0.2-0.9,0.5-1.2,0.9c-0.3,0.4-0.6,0.8-0.8,1.3s-0.3,1-0.3,1.6v9.2h-3.4V5.9z"/>
					<path fill="#014747" d="M319.4,11.1c-0.1-1-0.5-1.7-1.2-2.2c-0.6-0.5-1.4-0.7-2.4-0.7c-0.4,0-0.9,0.1-1.4,0.2
						c-0.5,0.1-1,0.4-1.4,0.8s-0.8,1-1,1.7s-0.4,1.7-0.4,2.9c0,0.6,0.1,1.3,0.2,1.9c0.2,0.6,0.4,1.2,0.7,1.7s0.8,0.9,1.3,1.2
						c0.5,0.3,1.2,0.5,1.9,0.5c1,0,1.8-0.3,2.5-0.9c0.6-0.6,1.1-1.5,1.2-2.6h3.4c-0.3,2-1.1,3.6-2.3,4.6c-1.2,1.1-2.8,1.6-4.8,1.6
						c-1.2,0-2.3-0.2-3.2-0.6c-0.9-0.4-1.7-1-2.4-1.7c-0.6-0.7-1.1-1.6-1.5-2.5c-0.3-1-0.5-2-0.5-3.2c0-1.2,0.2-2.2,0.5-3.3
						c0.3-1,0.8-1.9,1.4-2.7c0.6-0.8,1.4-1.3,2.4-1.8c1-0.4,2.1-0.6,3.3-0.6c0.9,0,1.8,0.1,2.6,0.3s1.5,0.6,2.2,1
						c0.6,0.5,1.1,1,1.5,1.7c0.4,0.7,0.6,1.5,0.7,2.5H319.4z"/>
					<path fill="#014747" d="M326.2,0h3.4v7.9h0.1c0.4-0.7,1-1.3,1.9-1.8c0.8-0.5,1.8-0.7,2.8-0.7c1.7,0,3,0.4,4,1.3
						c1,0.9,1.5,2.2,1.5,4v10.7h-3.4v-9.8c0-1.2-0.3-2.1-0.8-2.7c-0.5-0.5-1.2-0.8-2.2-0.8c-0.6,0-1.1,0.1-1.6,0.3
						c-0.5,0.2-0.9,0.5-1.2,0.9c-0.3,0.4-0.6,0.8-0.8,1.3s-0.3,1-0.3,1.6v9.2h-3.4V0z"/>
				</g>
			</g>
			<g>
				<g>
					<path fill="#014747" d="M207.1,43.5c3.3,0,5.8,0.8,7.6,2.5s2.7,4.2,2.7,7.7c0,1.8-0.2,3.4-0.6,4.8c-0.4,1.4-1,2.6-1.9,3.5
						s-1.9,1.7-3.2,2.2s-2.8,0.8-4.6,0.8h-7.3V43.5H207.1z M207.3,62.6c0.3,0,0.7,0,1.2-0.1c0.5,0,1-0.2,1.5-0.4s1.1-0.5,1.6-0.8
						s1-0.8,1.4-1.5s0.8-1.4,1-2.3c0.3-0.9,0.4-2.1,0.4-3.4c0-1.3-0.1-2.4-0.4-3.4c-0.2-1-0.7-1.9-1.2-2.6c-0.6-0.7-1.3-1.2-2.2-1.6
						c-0.9-0.4-2-0.6-3.3-0.6h-4.8v16.6H207.3z"/>
					<path fill="#014747" d="M221.2,46.7v-3.1h2.6v3.1H221.2z M223.7,49.5V65h-2.6V49.5H223.7z"/>
					<path fill="#014747" d="M230.7,49.5v2.5h0.1c1.1-1.9,2.7-2.8,5-2.8c1,0,1.9,0.1,2.5,0.4s1.2,0.7,1.7,1.2s0.7,1.1,0.9,1.8
						c0.2,0.7,0.3,1.5,0.3,2.3V65h-2.5V54.5c0-1-0.3-1.7-0.8-2.3c-0.6-0.6-1.3-0.8-2.3-0.8c-0.8,0-1.5,0.1-2,0.4
						c-0.6,0.2-1,0.6-1.4,1c-0.4,0.4-0.7,1-0.9,1.5c-0.2,0.6-0.3,1.2-0.3,1.9V65h-2.5V49.5H230.7z"/>
					<path fill="#014747" d="M245.7,46.7v-3.1h2.5v3.1H245.7z M248.3,49.5V65h-2.5V49.5H248.3z"/>
					<path fill="#014747" d="M255.2,49.5v2.5h0.1c1.1-1.9,2.7-2.8,5-2.8c1,0,1.9,0.1,2.6,0.4c0.7,0.3,1.2,0.7,1.6,1.2
						s0.7,1.1,0.9,1.8c0.2,0.7,0.3,1.5,0.3,2.3V65h-2.5V54.5c0-1-0.3-1.7-0.8-2.3c-0.6-0.6-1.3-0.8-2.3-0.8c-0.8,0-1.5,0.1-2,0.4
						c-0.6,0.2-1,0.6-1.4,1c-0.4,0.4-0.7,1-0.9,1.5s-0.3,1.2-0.3,1.9V65h-2.6V49.5H255.2z"/>
					<path fill="#014747" d="M281.7,69.3c-1.2,1.3-3,1.9-5.5,1.9c-0.7,0-1.5-0.1-2.2-0.2s-1.4-0.4-2-0.8c-0.6-0.4-1.1-0.8-1.5-1.4
						c-0.4-0.6-0.6-1.3-0.7-2.1h2.5c0,0.5,0.2,0.8,0.4,1.2c0.3,0.3,0.6,0.6,1,0.8c0.4,0.2,0.8,0.3,1.3,0.4s0.9,0.1,1.3,0.1
						c0.8,0,1.5-0.1,2.1-0.4c0.6-0.3,1.1-0.7,1.4-1.2s0.7-1.1,0.8-1.8c0.2-0.7,0.3-1.5,0.3-2.4v-1H281c-0.4,1-1.1,1.7-2,2.1
						s-1.8,0.7-2.8,0.7c-1.2,0-2.2-0.2-3-0.6s-1.6-1-2.2-1.7s-1-1.5-1.3-2.5s-0.4-2-0.4-3c0-0.9,0.1-1.9,0.4-2.8
						c0.2-1,0.6-1.8,1.2-2.6s1.3-1.4,2.2-2s2-0.8,3.4-0.8c1,0,1.9,0.2,2.7,0.6c0.8,0.4,1.5,1.1,1.9,1.9h0v-2.2h2.4v14.2
						C283.5,66.2,282.9,68.1,281.7,69.3z M278.5,62.4c0.6-0.3,1.1-0.8,1.4-1.4c0.4-0.6,0.6-1.2,0.8-1.9s0.3-1.4,0.3-2.2
						c0-0.7-0.1-1.3-0.2-2c-0.2-0.7-0.4-1.3-0.8-1.8c-0.3-0.5-0.8-1-1.4-1.3c-0.6-0.3-1.2-0.5-2-0.5c-0.8,0-1.5,0.2-2.1,0.5
						c-0.6,0.3-1.1,0.7-1.4,1.2c-0.4,0.5-0.6,1.1-0.8,1.8c-0.2,0.7-0.3,1.4-0.3,2.1c0,0.7,0.1,1.4,0.2,2.1c0.1,0.7,0.4,1.3,0.7,1.9
						c0.3,0.6,0.8,1,1.3,1.4c0.6,0.4,1.3,0.5,2.1,0.5C277.2,62.9,277.9,62.7,278.5,62.4z"/>
					<path fill="#014747" d="M307.4,43.5c2,0,3.6,0.5,4.8,1.5c1.1,1,1.7,2.4,1.7,4.1c0,1.3-0.3,2.4-0.9,3.4c-0.6,1-1.5,1.7-2.8,2
						v0.1c0.6,0.1,1.1,0.3,1.5,0.6c0.4,0.3,0.7,0.6,0.9,1c0.2,0.4,0.4,0.8,0.5,1.3c0.1,0.5,0.2,1,0.3,1.5c0,0.5,0.1,1,0.1,1.6
						c0,0.5,0.1,1.1,0.2,1.6c0.1,0.5,0.2,1,0.3,1.5c0.1,0.5,0.4,0.9,0.7,1.2h-3.2c-0.2-0.2-0.3-0.5-0.4-0.9s-0.1-0.8-0.1-1.3
						c0-0.5,0-1-0.1-1.5c0-0.5-0.1-1.1-0.2-1.6c-0.1-0.5-0.2-1-0.3-1.5c-0.1-0.5-0.3-0.9-0.6-1.2s-0.6-0.6-1-0.8s-1-0.3-1.7-0.3h-7
						V65h-2.8V43.5H307.4z M308,53.3c0.6-0.1,1.1-0.3,1.6-0.6s0.8-0.7,1.1-1.2c0.3-0.5,0.4-1.1,0.4-1.9c0-1.1-0.3-2-0.9-2.6
						s-1.6-1-2.9-1h-7.1v7.5h5.9C306.7,53.4,307.4,53.4,308,53.3z"/>
					<path fill="#014747" d="M317.7,54c0.3-1,0.8-1.8,1.4-2.6c0.6-0.7,1.4-1.3,2.4-1.7s2-0.6,3.2-0.6c1.2,0,2.3,0.2,3.3,0.6
						s1.7,1,2.4,1.7c0.6,0.7,1.1,1.6,1.4,2.6c0.3,1,0.5,2.1,0.5,3.2s-0.2,2.2-0.5,3.2c-0.3,1-0.8,1.8-1.4,2.6
						c-0.6,0.7-1.4,1.3-2.4,1.7c-0.9,0.4-2,0.6-3.3,0.6c-1.2,0-2.3-0.2-3.2-0.6c-0.9-0.4-1.7-1-2.4-1.7c-0.6-0.7-1.1-1.6-1.4-2.6
						c-0.3-1-0.5-2-0.5-3.2S317.3,55,317.7,54z M320.3,59.7c0.2,0.7,0.6,1.3,1,1.8c0.4,0.5,1,0.9,1.5,1.1s1.2,0.4,1.9,0.4
						s1.3-0.1,1.9-0.4s1.1-0.6,1.5-1.1c0.4-0.5,0.8-1.1,1-1.8c0.2-0.7,0.4-1.6,0.4-2.5c0-0.9-0.1-1.8-0.4-2.5
						c-0.3-0.7-0.6-1.3-1-1.8c-0.4-0.5-1-0.9-1.5-1.1c-0.6-0.3-1.2-0.4-1.9-0.4s-1.3,0.1-1.9,0.4c-0.6,0.3-1.1,0.6-1.5,1.1
						c-0.4,0.5-0.8,1.1-1,1.8c-0.2,0.7-0.4,1.6-0.4,2.5C319.9,58.2,320,59,320.3,59.7z"/>
					<path fill="#014747" d="M335.5,54c0.3-1,0.8-1.8,1.4-2.6c0.6-0.7,1.4-1.3,2.4-1.7c0.9-0.4,2-0.6,3.2-0.6c1.2,0,2.3,0.2,3.3,0.6
						c0.9,0.4,1.7,1,2.4,1.7c0.6,0.7,1.1,1.6,1.4,2.6c0.3,1,0.5,2.1,0.5,3.2s-0.2,2.2-0.5,3.2c-0.3,1-0.8,1.8-1.4,2.6
						c-0.6,0.7-1.4,1.3-2.4,1.7c-0.9,0.4-2,0.6-3.3,0.6c-1.2,0-2.3-0.2-3.2-0.6c-0.9-0.4-1.7-1-2.4-1.7c-0.6-0.7-1.1-1.6-1.4-2.6
						c-0.3-1-0.5-2-0.5-3.2S335.2,55,335.5,54z M338.1,59.7c0.2,0.7,0.6,1.3,1,1.8c0.4,0.5,1,0.9,1.5,1.1s1.2,0.4,1.9,0.4
						c0.7,0,1.3-0.1,1.9-0.4s1.1-0.6,1.5-1.1c0.4-0.5,0.8-1.1,1-1.8c0.2-0.7,0.4-1.6,0.4-2.5c0-0.9-0.1-1.8-0.4-2.5
						c-0.2-0.7-0.6-1.3-1-1.8c-0.4-0.5-1-0.9-1.5-1.1c-0.6-0.3-1.2-0.4-1.9-0.4c-0.7,0-1.3,0.1-1.9,0.4c-0.6,0.3-1.1,0.6-1.5,1.1
						c-0.4,0.5-0.8,1.1-1,1.8c-0.2,0.7-0.4,1.6-0.4,2.5C337.7,58.2,337.8,59,338.1,59.7z"/>
					<path fill="#014747" d="M356.1,49.5v2.3h0.1c1.2-1.8,2.8-2.6,5-2.6c1,0,1.8,0.2,2.6,0.6c0.8,0.4,1.3,1.1,1.7,2
						c0.5-0.8,1.2-1.5,2.1-2c0.8-0.5,1.8-0.7,2.8-0.7c0.8,0,1.5,0.1,2.1,0.3s1.2,0.4,1.6,0.8s0.8,0.8,1,1.4c0.2,0.6,0.4,1.3,0.4,2.1
						V65h-2.5V54.8c0-0.5,0-0.9-0.1-1.4s-0.2-0.8-0.5-1.1c-0.2-0.3-0.5-0.6-0.9-0.7c-0.4-0.2-0.9-0.3-1.5-0.3c-1.3,0-2.2,0.4-3,1.1
						s-1.1,1.7-1.1,2.9V65h-2.5V54.8c0-0.5,0-1-0.1-1.4c-0.1-0.4-0.2-0.8-0.5-1.1c-0.2-0.3-0.5-0.5-0.9-0.7s-0.8-0.3-1.4-0.3
						c-0.7,0-1.4,0.1-1.9,0.5c-0.5,0.3-1,0.7-1.3,1.1s-0.6,0.9-0.7,1.3s-0.2,0.8-0.2,1.1V65h-2.6V49.5H356.1z"/>
				</g>
			</g>
		</g>
		<g>
			<g>
				<g>
					<path fill="#014747" d="M19.1,158.5v-13.6h-5.3v-3.2c0.7,0,1.5,0,2.1-0.2c0.7-0.1,1.3-0.4,1.9-0.7s1-0.8,1.4-1.3
						c0.4-0.5,0.6-1.2,0.8-2h3.4v21H19.1z"/>
					<path fill="#014747" d="M30.7,147.9v-4.6h4.7v4.6H30.7z M35.4,153.9v4.6h-4.7v-4.6H35.4z"/>
					<path fill="#014747" d="M46.1,146c0.5,0,1-0.2,1.5-0.3c0.4-0.2,0.8-0.5,1.1-0.8c0.3-0.4,0.4-0.8,0.4-1.4c0-0.9-0.3-1.6-0.9-2.1
						s-1.3-0.7-2.1-0.7c-1.1,0-1.9,0.4-2.4,1.1c-0.5,0.7-0.8,1.6-0.8,2.7h-4c0-1.1,0.2-2.1,0.6-3s0.8-1.7,1.5-2.3
						c0.6-0.6,1.4-1.1,2.3-1.5c0.9-0.3,1.9-0.5,2.9-0.5c0.8,0,1.7,0.1,2.5,0.4s1.6,0.6,2.3,1.1c0.7,0.5,1.2,1.1,1.6,1.8
						c0.4,0.7,0.6,1.5,0.6,2.5c0,1-0.2,1.9-0.7,2.7c-0.5,0.8-1.2,1.3-2.2,1.6v0.1c1.2,0.3,2.1,0.8,2.7,1.7s1,1.9,1,3.1
						c0,1.1-0.2,2.1-0.6,2.9c-0.4,0.9-1,1.6-1.7,2.2c-0.7,0.6-1.5,1-2.5,1.3c-0.9,0.3-1.9,0.5-2.9,0.5c-1.2,0-2.3-0.2-3.2-0.5
						c-1-0.3-1.8-0.8-2.5-1.5c-0.7-0.7-1.2-1.4-1.6-2.4c-0.4-0.9-0.5-2-0.5-3.2h4c0,0.6,0.1,1.1,0.3,1.6s0.4,0.9,0.7,1.3
						s0.7,0.7,1.1,0.9c0.5,0.2,1,0.3,1.6,0.3c1,0,1.8-0.3,2.4-0.9c0.7-0.6,1-1.4,1-2.4c0-0.8-0.2-1.4-0.5-1.8
						c-0.3-0.4-0.7-0.7-1.2-0.9c-0.5-0.2-1-0.3-1.6-0.3c-0.6,0-1.1,0-1.6,0v-3C45.1,146,45.6,146,46.1,146z"/>
					<path fill="#014747" d="M56.4,142.8c0.4-1.4,1-2.5,1.7-3.3s1.5-1.4,2.4-1.8c0.9-0.4,1.9-0.5,3-0.5c1.1,0,2.1,0.2,3,0.5
						c0.9,0.4,1.8,1,2.5,1.8c0.7,0.8,1.3,2,1.7,3.3s0.6,3.1,0.6,5.1c0,2.1-0.2,3.9-0.6,5.3c-0.4,1.4-1,2.5-1.7,3.4
						c-0.7,0.8-1.5,1.4-2.5,1.8c-0.9,0.4-1.9,0.5-3,0.5c-1,0-2-0.2-3-0.5s-1.7-1-2.4-1.8c-0.7-0.8-1.3-2-1.7-3.4
						c-0.4-1.4-0.6-3.2-0.6-5.3C55.7,145.9,55.9,144.2,56.4,142.8z M60.1,150.1c0,0.9,0.2,1.7,0.4,2.5c0.2,0.8,0.5,1.5,1,2
						c0.5,0.6,1.1,0.8,2,0.8c0.9,0,1.6-0.3,2-0.8c0.5-0.6,0.8-1.2,1-2s0.3-1.6,0.4-2.5c0-0.8,0.1-1.6,0.1-2.2c0-0.4,0-0.8,0-1.3
						c0-0.5-0.1-1-0.1-1.6c-0.1-0.5-0.2-1.1-0.3-1.6c-0.1-0.5-0.3-1-0.6-1.4c-0.3-0.4-0.6-0.8-1-1c-0.4-0.3-0.9-0.4-1.5-0.4
						s-1.1,0.1-1.5,0.4c-0.4,0.3-0.7,0.6-1,1c-0.3,0.4-0.4,0.9-0.6,1.4c-0.1,0.5-0.2,1.1-0.3,1.6c-0.1,0.5-0.1,1.1-0.1,1.6
						c0,0.5,0,0.9,0,1.3C60,148.5,60,149.2,60.1,150.1z"/>
					<path fill="#014747" d="M93.1,137.1c1.3,0,2.5,0.2,3.4,0.6c0.9,0.4,1.7,0.9,2.3,1.5c0.6,0.6,1,1.4,1.3,2.2
						c0.3,0.8,0.4,1.7,0.4,2.5c0,0.9-0.1,1.7-0.4,2.5c-0.3,0.8-0.7,1.6-1.3,2.2c-0.6,0.6-1.4,1.2-2.3,1.5c-0.9,0.4-2.1,0.6-3.4,0.6
						h-5v7.7h-4.7v-21.4H93.1z M91.8,147.2c0.5,0,1.1,0,1.6-0.1c0.5-0.1,0.9-0.2,1.3-0.5c0.4-0.2,0.7-0.6,0.9-1
						c0.2-0.4,0.3-1,0.3-1.7c0-0.7-0.1-1.2-0.3-1.7c-0.2-0.4-0.5-0.7-0.9-1c-0.4-0.2-0.8-0.4-1.3-0.5s-1-0.1-1.6-0.1h-3.7v6.4H91.8z
						"/>
					<path fill="#014747" d="M110.6,137.1l5,14.7h0.1l4.7-14.7h6.6v21.4h-4.4v-15.2h-0.1l-5.2,15.2h-3.6l-5.2-15h-0.1v15H104v-21.4
						H110.6z"/>
				</g>
			</g>
			<g>
				<g>
					<path fill="#014747" d="M197.6,137.1H215v3.2h-6.8v18.2h-3.8v-18.2h-6.8V137.1z"/>
					<path fill="#014747" d="M227.6,155.1c0,0.4,0.1,0.7,0.2,0.9c0.1,0.2,0.3,0.3,0.6,0.3c0.1,0,0.2,0,0.4,0c0.1,0,0.3,0,0.5-0.1
						v2.4c-0.1,0-0.3,0.1-0.5,0.1c-0.2,0.1-0.4,0.1-0.6,0.1c-0.2,0-0.4,0.1-0.6,0.1c-0.2,0-0.4,0-0.5,0c-0.7,0-1.3-0.1-1.7-0.4
						c-0.5-0.3-0.8-0.8-0.9-1.5c-0.7,0.7-1.5,1.1-2.5,1.4s-1.9,0.5-2.9,0.5c-0.7,0-1.4-0.1-2-0.3c-0.6-0.2-1.2-0.5-1.7-0.8
						s-0.9-0.8-1.2-1.4c-0.3-0.6-0.4-1.2-0.4-2c0-1,0.2-1.7,0.5-2.3c0.3-0.6,0.8-1.1,1.4-1.4c0.6-0.3,1.2-0.6,1.9-0.7
						c0.7-0.2,1.4-0.3,2.1-0.3c0.6-0.1,1.2-0.2,1.8-0.3s1.1-0.1,1.5-0.3c0.4-0.1,0.8-0.3,1-0.6c0.2-0.2,0.4-0.6,0.4-1.1
						c0-0.4-0.1-0.8-0.3-1.1c-0.2-0.3-0.5-0.5-0.8-0.6s-0.7-0.2-1-0.3s-0.7-0.1-1.1-0.1c-1,0-1.8,0.2-2.4,0.6c-0.6,0.4-1,1-1.1,1.9
						h-3.4c0.1-1,0.3-1.8,0.7-2.5c0.4-0.7,1-1.2,1.6-1.6c0.6-0.4,1.4-0.7,2.2-0.8c0.8-0.2,1.7-0.2,2.5-0.2c0.8,0,1.5,0.1,2.2,0.2
						c0.7,0.2,1.4,0.4,2,0.8c0.6,0.4,1.1,0.8,1.4,1.4c0.4,0.6,0.5,1.3,0.5,2.1V155.1z M224.1,150.7c-0.5,0.3-1.2,0.5-1.9,0.6
						c-0.8,0.1-1.5,0.2-2.3,0.3c-0.4,0.1-0.7,0.1-1.1,0.3c-0.3,0.1-0.6,0.3-0.9,0.5c-0.3,0.2-0.5,0.4-0.6,0.8
						c-0.1,0.3-0.2,0.7-0.2,1.1c0,0.4,0.1,0.7,0.3,1c0.2,0.3,0.5,0.5,0.8,0.6c0.3,0.2,0.7,0.3,1,0.3c0.4,0.1,0.7,0.1,1,0.1
						c0.4,0,0.8,0,1.2-0.2c0.4-0.1,0.9-0.3,1.2-0.5c0.4-0.2,0.7-0.5,1-0.9c0.3-0.4,0.4-0.8,0.4-1.4V150.7z"/>
					<path fill="#014747" d="M231.9,137.1h3.4v12.2l6.2-6.3h4.2l-5.9,5.7l6.5,9.8h-4.2l-4.7-7.5l-2,2v5.6h-3.4V137.1z"/>
					<path fill="#014747" d="M251.2,151.6c0,0.6,0.1,1.2,0.3,1.7c0.2,0.6,0.4,1.1,0.8,1.5c0.3,0.4,0.8,0.8,1.3,1
						c0.5,0.2,1.1,0.4,1.9,0.4c1,0,1.8-0.2,2.4-0.6c0.6-0.4,1.1-1.1,1.4-1.9h3.2c-0.2,0.8-0.5,1.6-0.9,2.2c-0.4,0.7-1,1.2-1.6,1.7
						c-0.6,0.4-1.3,0.8-2.1,1c-0.8,0.2-1.6,0.3-2.4,0.3c-1.2,0-2.3-0.2-3.2-0.6c-0.9-0.4-1.7-1-2.4-1.7s-1.1-1.6-1.5-2.6
						c-0.3-1-0.5-2.1-0.5-3.3c0-1.1,0.2-2.1,0.5-3.1c0.3-1,0.8-1.9,1.5-2.6c0.6-0.8,1.4-1.3,2.4-1.8c0.9-0.4,2-0.7,3.1-0.7
						c1.2,0,2.3,0.3,3.3,0.8c1,0.5,1.8,1.2,2.4,2s1.1,1.8,1.4,2.9c0.3,1.1,0.4,2.2,0.2,3.4H251.2z M259.2,149.4
						c0-0.5-0.2-1.1-0.3-1.6c-0.2-0.5-0.4-0.9-0.8-1.3s-0.7-0.7-1.2-0.9c-0.5-0.2-1-0.3-1.6-0.3c-0.6,0-1.1,0.1-1.6,0.3
						c-0.5,0.2-0.9,0.5-1.3,0.9c-0.4,0.4-0.6,0.8-0.8,1.3c-0.2,0.5-0.3,1-0.3,1.6H259.2z"/>
					<path fill="#014747" d="M274.8,143h3.2v2.2h0.1c0.3-0.4,0.5-0.7,0.8-1c0.3-0.3,0.6-0.6,1-0.8c0.4-0.2,0.8-0.4,1.3-0.5
						c0.5-0.1,1-0.2,1.7-0.2c0.9,0,1.8,0.2,2.6,0.6s1.4,1.1,1.7,2c0.6-0.8,1.2-1.4,2-1.9c0.8-0.5,1.7-0.7,2.9-0.7
						c1.6,0,2.9,0.4,3.8,1.2c0.9,0.8,1.4,2.1,1.4,4v10.7h-3.4v-9.1c0-0.6,0-1.2-0.1-1.7s-0.2-0.9-0.3-1.3c-0.2-0.4-0.5-0.7-0.9-0.9
						c-0.4-0.2-0.9-0.3-1.6-0.3c-1.2,0-2,0.4-2.5,1.1c-0.5,0.7-0.8,1.7-0.8,3.1v9.1h-3.4v-10c0-1.1-0.2-1.9-0.6-2.4
						c-0.4-0.5-1.1-0.8-2.1-0.8c-0.4,0-0.9,0.1-1.3,0.3c-0.4,0.2-0.8,0.4-1.1,0.8c-0.3,0.3-0.6,0.8-0.8,1.3
						c-0.2,0.5-0.3,1.1-0.3,1.7v9.2h-3.4V143z"/>
					<path fill="#014747" d="M304.2,151.6c0,0.6,0.1,1.2,0.3,1.7c0.2,0.6,0.4,1.1,0.8,1.5c0.3,0.4,0.8,0.8,1.3,1
						c0.5,0.2,1.1,0.4,1.9,0.4c1,0,1.8-0.2,2.4-0.6c0.6-0.4,1.1-1.1,1.4-1.9h3.2c-0.2,0.8-0.5,1.6-0.9,2.2c-0.4,0.7-1,1.2-1.6,1.7
						c-0.6,0.4-1.3,0.8-2.1,1c-0.8,0.2-1.6,0.3-2.4,0.3c-1.2,0-2.3-0.2-3.2-0.6c-0.9-0.4-1.7-1-2.4-1.7s-1.1-1.6-1.5-2.6
						c-0.3-1-0.5-2.1-0.5-3.3c0-1.1,0.2-2.1,0.5-3.1c0.3-1,0.8-1.9,1.5-2.6c0.6-0.8,1.4-1.3,2.4-1.8c0.9-0.4,2-0.7,3.1-0.7
						c1.2,0,2.3,0.3,3.3,0.8c1,0.5,1.8,1.2,2.4,2s1.1,1.8,1.4,2.9c0.3,1.1,0.4,2.2,0.2,3.4H304.2z M312.1,149.4
						c0-0.5-0.2-1.1-0.3-1.6c-0.2-0.5-0.4-0.9-0.8-1.3s-0.7-0.7-1.2-0.9c-0.5-0.2-1-0.3-1.6-0.3c-0.6,0-1.1,0.1-1.6,0.3
						c-0.5,0.2-0.9,0.5-1.3,0.9c-0.4,0.4-0.6,0.8-0.8,1.3c-0.2,0.5-0.3,1-0.3,1.6H312.1z"/>
					<path fill="#014747" d="M333.4,158.5h-3.2v-2.1h-0.1c-0.5,0.9-1.1,1.5-2,1.9c-0.9,0.4-1.8,0.6-2.8,0.6c-1.2,0-2.3-0.2-3.2-0.6
						c-0.9-0.4-1.7-1-2.3-1.8s-1.1-1.6-1.3-2.6c-0.3-1-0.5-2.1-0.5-3.3c0-1.4,0.2-2.6,0.6-3.6s0.9-1.9,1.5-2.5
						c0.6-0.7,1.3-1.1,2.2-1.5c0.8-0.3,1.6-0.5,2.5-0.5c0.5,0,1,0,1.5,0.1c0.5,0.1,1,0.2,1.4,0.4c0.5,0.2,0.9,0.5,1.3,0.8
						c0.4,0.3,0.7,0.7,1,1.1h0.1v-7.9h3.4V158.5z M321.4,150.9c0,0.7,0.1,1.3,0.3,1.9c0.2,0.6,0.4,1.2,0.8,1.7
						c0.3,0.5,0.8,0.9,1.3,1.2c0.5,0.3,1.2,0.5,1.9,0.5c0.8,0,1.4-0.2,2-0.5c0.5-0.3,1-0.7,1.3-1.3s0.6-1.1,0.8-1.8s0.3-1.3,0.3-2
						c0-1.7-0.4-3.1-1.2-4c-0.8-1-1.8-1.4-3.1-1.4c-0.8,0-1.5,0.2-2,0.5c-0.6,0.3-1,0.8-1.4,1.3s-0.6,1.1-0.8,1.8
						C321.5,149.5,321.4,150.2,321.4,150.9z"/>
					<path fill="#014747" d="M337.8,137.1h3.4v3.2h-3.4V137.1z M337.8,143h3.4v15.5h-3.4V143z"/>
					<path fill="#014747" d="M356,148.2c-0.1-1-0.5-1.7-1.2-2.2c-0.6-0.5-1.4-0.7-2.4-0.7c-0.4,0-0.9,0.1-1.4,0.2
						c-0.5,0.2-1,0.4-1.4,0.8c-0.4,0.4-0.8,1-1,1.7s-0.4,1.7-0.4,2.9c0,0.6,0.1,1.3,0.2,1.9c0.2,0.6,0.4,1.2,0.7,1.7
						c0.3,0.5,0.8,0.9,1.3,1.2c0.5,0.3,1.2,0.5,1.9,0.5c1,0,1.8-0.3,2.5-0.9c0.6-0.6,1.1-1.5,1.2-2.6h3.4c-0.3,2-1.1,3.6-2.3,4.6
						c-1.2,1.1-2.8,1.6-4.8,1.6c-1.2,0-2.3-0.2-3.2-0.6s-1.7-1-2.4-1.7c-0.6-0.7-1.1-1.6-1.5-2.5s-0.5-2-0.5-3.2
						c0-1.2,0.2-2.2,0.5-3.3s0.8-1.9,1.4-2.7c0.6-0.8,1.4-1.3,2.4-1.8s2.1-0.6,3.3-0.6c0.9,0,1.8,0.1,2.6,0.3c0.8,0.2,1.5,0.6,2.2,1
						c0.6,0.5,1.1,1,1.5,1.7c0.4,0.7,0.6,1.5,0.7,2.5H356z"/>
					<path fill="#014747" d="M375.8,155.1c0,0.4,0.1,0.7,0.2,0.9s0.3,0.3,0.6,0.3c0.1,0,0.2,0,0.4,0c0.1,0,0.3,0,0.5-0.1v2.4
						c-0.1,0-0.3,0.1-0.5,0.1c-0.2,0.1-0.4,0.1-0.6,0.1c-0.2,0-0.4,0.1-0.6,0.1c-0.2,0-0.4,0-0.5,0c-0.7,0-1.3-0.1-1.7-0.4
						c-0.5-0.3-0.8-0.8-0.9-1.5c-0.7,0.7-1.5,1.1-2.5,1.4c-1,0.3-1.9,0.5-2.9,0.5c-0.7,0-1.4-0.1-2-0.3c-0.6-0.2-1.2-0.5-1.7-0.8
						c-0.5-0.4-0.9-0.8-1.2-1.4s-0.4-1.2-0.4-2c0-1,0.2-1.7,0.5-2.3c0.3-0.6,0.8-1.1,1.4-1.4c0.6-0.3,1.2-0.6,1.9-0.7
						s1.4-0.3,2.1-0.3c0.6-0.1,1.2-0.2,1.8-0.3c0.6,0,1.1-0.1,1.5-0.3c0.4-0.1,0.8-0.3,1-0.6s0.4-0.6,0.4-1.1c0-0.4-0.1-0.8-0.3-1.1
						c-0.2-0.3-0.5-0.5-0.8-0.6s-0.7-0.2-1-0.3c-0.4,0-0.7-0.1-1.1-0.1c-1,0-1.8,0.2-2.4,0.6c-0.6,0.4-1,1-1,1.9h-3.4
						c0.1-1,0.3-1.8,0.7-2.5c0.4-0.7,1-1.2,1.6-1.6c0.7-0.4,1.4-0.7,2.2-0.8c0.8-0.2,1.7-0.2,2.5-0.2c0.8,0,1.5,0.1,2.2,0.2
						c0.7,0.2,1.4,0.4,2,0.8c0.6,0.4,1.1,0.8,1.4,1.4c0.4,0.6,0.5,1.3,0.5,2.1V155.1z M372.4,150.7c-0.5,0.3-1.2,0.5-1.9,0.6
						c-0.8,0.1-1.5,0.2-2.3,0.3c-0.4,0.1-0.7,0.1-1,0.3c-0.3,0.1-0.6,0.3-0.9,0.5c-0.3,0.2-0.5,0.4-0.6,0.8
						c-0.2,0.3-0.2,0.7-0.2,1.1c0,0.4,0.1,0.7,0.3,1c0.2,0.3,0.5,0.5,0.8,0.6c0.3,0.2,0.6,0.3,1,0.3c0.4,0.1,0.7,0.1,1,0.1
						c0.4,0,0.8,0,1.2-0.2c0.4-0.1,0.9-0.3,1.2-0.5c0.4-0.2,0.7-0.5,1-0.9c0.3-0.4,0.4-0.8,0.4-1.4V150.7z"/>
					<path fill="#014747" d="M378.5,143h2.6v-4.7h3.4v4.7h3.1v2.5h-3.1v8.3c0,0.4,0,0.7,0,0.9s0.1,0.5,0.2,0.7
						c0.1,0.2,0.3,0.3,0.5,0.4c0.2,0.1,0.5,0.1,0.9,0.1c0.2,0,0.5,0,0.7,0c0.2,0,0.5,0,0.7-0.1v2.6c-0.4,0-0.8,0.1-1.1,0.1
						c-0.4,0-0.7,0.1-1.1,0.1c-0.9,0-1.6-0.1-2.2-0.3c-0.5-0.2-1-0.4-1.3-0.8c-0.3-0.3-0.5-0.7-0.6-1.2c-0.1-0.5-0.2-1.1-0.2-1.7
						v-9.2h-2.6V143z"/>
					<path fill="#014747" d="M390.8,137.1h3.4v3.2h-3.4V137.1z M390.8,143h3.4v15.5h-3.4V143z"/>
					<path fill="#014747" d="M405.6,158.9c-1.2,0-2.3-0.2-3.3-0.6s-1.8-1-2.5-1.7c-0.7-0.7-1.2-1.6-1.5-2.6s-0.5-2.1-0.5-3.3
						c0-1.2,0.2-2.3,0.5-3.3c0.3-1,0.9-1.9,1.5-2.6c0.7-0.7,1.5-1.3,2.5-1.7c1-0.4,2.1-0.6,3.3-0.6c1.2,0,2.3,0.2,3.3,0.6
						c1,0.4,1.8,1,2.5,1.7c0.7,0.7,1.2,1.6,1.5,2.6c0.3,1,0.5,2.1,0.5,3.3c0,1.2-0.2,2.3-0.5,3.3c-0.4,1-0.9,1.9-1.5,2.6
						c-0.7,0.7-1.5,1.3-2.5,1.7C408,158.7,406.9,158.9,405.6,158.9z M405.6,156.2c0.8,0,1.4-0.2,2-0.5c0.6-0.3,1-0.7,1.4-1.3
						c0.4-0.5,0.6-1.1,0.8-1.8s0.3-1.3,0.3-2c0-0.7-0.1-1.3-0.3-2s-0.4-1.2-0.8-1.8c-0.4-0.5-0.8-0.9-1.4-1.2
						c-0.6-0.3-1.2-0.5-2-0.5c-0.8,0-1.4,0.2-2,0.5c-0.6,0.3-1,0.7-1.4,1.2c-0.4,0.5-0.6,1.1-0.8,1.8s-0.3,1.3-0.3,2
						c0,0.7,0.1,1.3,0.3,2s0.4,1.2,0.8,1.8c0.4,0.5,0.8,0.9,1.4,1.3C404.2,156.1,404.9,156.2,405.6,156.2z"/>
					<path fill="#014747" d="M416.9,143h3.2v2.3l0.1,0.1c0.5-0.9,1.2-1.5,2-2c0.8-0.5,1.8-0.7,2.8-0.7c1.7,0,3,0.4,4,1.3
						c1,0.9,1.5,2.2,1.5,4v10.7h-3.4v-9.8c0-1.2-0.3-2.1-0.8-2.7c-0.5-0.5-1.2-0.8-2.2-0.8c-0.6,0-1.1,0.1-1.6,0.3
						c-0.5,0.2-0.9,0.5-1.2,0.9c-0.3,0.4-0.6,0.8-0.8,1.3s-0.3,1-0.3,1.6v9.2h-3.4V143z"/>
				</g>
			</g>
			<g>
				<g>
					<path fill="#014747" d="M202.6,180.6v10.7l10.9-10.7h3.7l-9,8.6l9.4,12.8h-3.6l-7.7-10.8l-3.6,3.3v7.5h-2.8v-21.4H202.6z"/>
					<path fill="#014747" d="M220.1,183.7v-3.1h2.5v3.1H220.1z M222.6,186.5V202h-2.5v-15.5H222.6z"/>
					<path fill="#014747" d="M233.8,186.5v2.2h-3.1v9.6c0,0.3,0,0.5,0.1,0.7c0,0.2,0.1,0.3,0.3,0.4c0.1,0.1,0.3,0.2,0.6,0.2
						c0.2,0,0.6,0,1,0h1.2v2.2h-2c-0.7,0-1.2,0-1.7-0.1c-0.5-0.1-0.8-0.3-1.1-0.5c-0.3-0.2-0.5-0.6-0.6-1c-0.1-0.4-0.2-1-0.2-1.7
						v-9.9h-2.6v-2.2h2.6v-4.7h2.5v4.7H233.8z"/>
					<path fill="#014747" d="M246.5,189.2c-0.6-0.5-1.5-0.8-2.6-0.8c-0.9,0-1.7,0.2-2.3,0.5c-0.6,0.3-1.1,0.8-1.5,1.4
						c-0.4,0.6-0.6,1.2-0.8,1.9c-0.2,0.7-0.2,1.5-0.2,2.3c0,0.7,0.1,1.4,0.3,2.1c0.2,0.7,0.4,1.3,0.8,1.8c0.4,0.5,0.8,1,1.4,1.3
						c0.6,0.3,1.3,0.5,2.1,0.5c1.3,0,2.2-0.3,3-1c0.7-0.7,1.1-1.6,1.3-2.8h2.6c-0.3,1.9-1,3.4-2.1,4.4c-1.2,1-2.7,1.6-4.7,1.6
						c-1.2,0-2.2-0.2-3.1-0.6c-0.9-0.4-1.7-0.9-2.3-1.6c-0.6-0.7-1.1-1.5-1.4-2.5c-0.3-1-0.5-2-0.5-3.2c0-1.2,0.1-2.2,0.4-3.3
						c0.3-1,0.8-1.9,1.4-2.6s1.4-1.3,2.3-1.8c0.9-0.4,2-0.6,3.2-0.6c0.9,0,1.7,0.1,2.5,0.3c0.8,0.2,1.4,0.5,2,1
						c0.6,0.4,1.1,1,1.5,1.7c0.4,0.7,0.6,1.5,0.7,2.4h-2.6C247.6,190.5,247.1,189.8,246.5,189.2z"/>
					<path fill="#014747" d="M256.5,180.6v8.2h0.1c0.2-0.5,0.5-0.9,0.8-1.2s0.8-0.6,1.2-0.8s0.9-0.4,1.4-0.5c0.5-0.1,1-0.1,1.4-0.1
						c1,0,1.9,0.1,2.6,0.4c0.7,0.3,1.2,0.7,1.6,1.2s0.7,1.1,0.9,1.8c0.2,0.7,0.3,1.5,0.3,2.3V202h-2.5v-10.5c0-1-0.3-1.7-0.8-2.3
						c-0.6-0.6-1.3-0.8-2.3-0.8c-0.8,0-1.5,0.1-2,0.4c-0.6,0.2-1,0.6-1.4,1c-0.4,0.4-0.7,1-0.9,1.5s-0.3,1.2-0.3,1.9v8.8h-2.6v-21.4
						H256.5z"/>
					<path fill="#014747" d="M282.2,201.1c-1.2,0.9-2.6,1.3-4.4,1.3c-1.2,0-2.3-0.2-3.2-0.6c-0.9-0.4-1.7-1-2.3-1.7
						s-1.1-1.6-1.4-2.6c-0.3-1-0.5-2.1-0.5-3.3c0-1.2,0.2-2.3,0.5-3.2s0.9-1.8,1.5-2.5c0.7-0.7,1.4-1.3,2.3-1.7
						c0.9-0.4,1.9-0.6,2.9-0.6c1.4,0,2.5,0.3,3.4,0.9c0.9,0.6,1.6,1.3,2.2,2.2s0.9,1.8,1.1,2.9c0.2,1,0.3,2,0.3,3h-11.6
						c0,0.7,0.1,1.3,0.2,1.9c0.2,0.6,0.5,1.2,0.9,1.6c0.4,0.5,0.9,0.8,1.5,1.1c0.6,0.3,1.4,0.4,2.2,0.4c1.1,0,2-0.2,2.7-0.8
						c0.7-0.5,1.1-1.3,1.4-2.3h2.5C284.1,198.9,283.4,200.2,282.2,201.1z M281.6,191.1c-0.2-0.5-0.5-1-0.9-1.4
						c-0.4-0.4-0.9-0.7-1.4-0.9c-0.5-0.2-1.1-0.3-1.8-0.3c-0.7,0-1.3,0.1-1.8,0.3c-0.5,0.2-1,0.5-1.4,0.9s-0.7,0.9-0.9,1.4
						c-0.2,0.5-0.3,1.1-0.4,1.7h8.9C281.9,192.2,281.8,191.6,281.6,191.1z"/>
					<path fill="#014747" d="M290.3,186.5v2.5h0.1c1.1-1.9,2.7-2.8,5-2.8c1,0,1.9,0.1,2.5,0.4s1.2,0.7,1.7,1.2s0.7,1.1,0.9,1.8
						c0.2,0.7,0.3,1.5,0.3,2.3V202h-2.5v-10.5c0-1-0.3-1.7-0.8-2.3c-0.6-0.6-1.3-0.8-2.3-0.8c-0.8,0-1.5,0.1-2,0.4
						c-0.6,0.2-1,0.6-1.4,1c-0.4,0.4-0.7,1-0.9,1.5c-0.2,0.6-0.3,1.2-0.3,1.9v8.8h-2.5v-15.5H290.3z"/>
				</g>
			</g>
		</g>
		<g>
			<g>
				<g>
					<path fill="#014747" d="M19.9,275.4c0.5,0,1-0.2,1.5-0.3c0.4-0.2,0.8-0.5,1.1-0.8c0.3-0.4,0.4-0.8,0.4-1.4
						c0-0.9-0.3-1.6-0.9-2.1c-0.6-0.5-1.3-0.7-2.1-0.7c-1.1,0-1.9,0.4-2.4,1.1s-0.8,1.6-0.8,2.7h-4c0-1.1,0.2-2.1,0.6-3
						c0.4-0.9,0.8-1.7,1.5-2.3c0.6-0.6,1.4-1.1,2.3-1.5c0.9-0.3,1.9-0.5,2.9-0.5c0.8,0,1.7,0.1,2.5,0.4s1.6,0.6,2.3,1.1
						s1.2,1.1,1.6,1.8s0.6,1.5,0.6,2.5c0,1-0.2,1.9-0.7,2.7c-0.5,0.8-1.2,1.3-2.2,1.6v0.1c1.2,0.3,2.1,0.8,2.7,1.7
						c0.7,0.9,1,1.9,1,3.1c0,1.1-0.2,2.1-0.6,2.9c-0.4,0.9-1,1.6-1.7,2.2s-1.5,1-2.5,1.3c-0.9,0.3-1.9,0.4-2.9,0.4
						c-1.2,0-2.3-0.2-3.2-0.5s-1.8-0.8-2.5-1.5c-0.7-0.7-1.2-1.4-1.6-2.4c-0.4-0.9-0.5-2-0.5-3.2h4c0,0.6,0.1,1.1,0.3,1.6
						s0.4,1,0.7,1.3c0.3,0.4,0.7,0.7,1.1,0.9c0.4,0.2,1,0.3,1.6,0.3c1,0,1.8-0.3,2.4-0.9c0.7-0.6,1-1.4,1-2.4c0-0.8-0.2-1.4-0.5-1.8
						s-0.7-0.7-1.2-0.9c-0.5-0.2-1-0.3-1.6-0.3c-0.6,0-1.1,0-1.6,0v-3C18.9,275.5,19.4,275.5,19.9,275.4z"/>
					<path fill="#014747" d="M30.7,277.3v-4.6h4.7v4.6H30.7z M35.4,283.3v4.6h-4.7v-4.6H35.4z"/>
					<path fill="#014747" d="M39.1,272.2c0.4-1.4,1-2.5,1.7-3.3c0.7-0.8,1.5-1.4,2.4-1.8c0.9-0.4,1.9-0.5,3-0.5c1.1,0,2.1,0.2,3,0.5
						c0.9,0.4,1.8,1,2.5,1.8s1.3,2,1.7,3.3c0.4,1.4,0.6,3.1,0.6,5.1c0,2.1-0.2,3.9-0.6,5.3c-0.4,1.4-1,2.5-1.7,3.4s-1.5,1.4-2.5,1.8
						c-0.9,0.4-1.9,0.5-3,0.5c-1,0-2-0.2-3-0.5c-0.9-0.4-1.7-1-2.4-1.8c-0.7-0.8-1.3-2-1.7-3.4c-0.4-1.4-0.6-3.2-0.6-5.3
						C38.5,275.3,38.7,273.6,39.1,272.2z M42.8,279.5c0,0.9,0.2,1.7,0.4,2.5s0.5,1.5,1,2c0.5,0.6,1.1,0.8,2,0.8c0.9,0,1.6-0.3,2-0.8
						c0.5-0.6,0.8-1.2,1-2c0.2-0.8,0.3-1.6,0.4-2.5c0-0.8,0.1-1.6,0.1-2.2c0-0.4,0-0.8,0-1.3c0-0.5-0.1-1-0.1-1.6
						c-0.1-0.5-0.2-1.1-0.3-1.6c-0.1-0.5-0.3-1-0.6-1.4s-0.6-0.8-1-1c-0.4-0.3-0.9-0.4-1.5-0.4c-0.6,0-1.1,0.1-1.5,0.4
						c-0.4,0.3-0.7,0.6-1,1s-0.4,0.9-0.6,1.4c-0.1,0.5-0.2,1.1-0.3,1.6c-0.1,0.5-0.1,1.1-0.1,1.6c0,0.5,0,0.9,0,1.3
						C42.7,278,42.7,278.7,42.8,279.5z"/>
					<path fill="#014747" d="M56.4,272.2c0.4-1.4,1-2.5,1.7-3.3s1.5-1.4,2.4-1.8c0.9-0.4,1.9-0.5,3-0.5c1.1,0,2.1,0.2,3,0.5
						c0.9,0.4,1.8,1,2.5,1.8c0.7,0.8,1.3,2,1.7,3.3c0.4,1.4,0.6,3.1,0.6,5.1c0,2.1-0.2,3.9-0.6,5.3s-1,2.5-1.7,3.4
						c-0.7,0.8-1.5,1.4-2.5,1.8c-0.9,0.4-1.9,0.5-3,0.5c-1,0-2-0.2-3-0.5c-0.9-0.4-1.7-1-2.4-1.8s-1.3-2-1.7-3.4
						c-0.4-1.4-0.6-3.2-0.6-5.3C55.7,275.3,55.9,273.6,56.4,272.2z M60.1,279.5c0,0.9,0.2,1.7,0.4,2.5c0.2,0.8,0.5,1.5,1,2
						c0.5,0.6,1.1,0.8,2,0.8c0.9,0,1.6-0.3,2-0.8c0.5-0.6,0.8-1.2,1-2s0.3-1.6,0.4-2.5c0-0.8,0.1-1.6,0.1-2.2c0-0.4,0-0.8,0-1.3
						c0-0.5-0.1-1-0.1-1.6c-0.1-0.5-0.2-1.1-0.3-1.6c-0.1-0.5-0.3-1-0.6-1.4c-0.3-0.4-0.6-0.8-1-1c-0.4-0.3-0.9-0.4-1.5-0.4
						s-1.1,0.1-1.5,0.4c-0.4,0.3-0.7,0.6-1,1c-0.3,0.4-0.4,0.9-0.6,1.4c-0.1,0.5-0.2,1.1-0.3,1.6c-0.1,0.5-0.1,1.1-0.1,1.6
						c0,0.5,0,0.9,0,1.3C60,278,60,278.7,60.1,279.5z"/>
					<path fill="#014747" d="M93.1,266.5c1.3,0,2.5,0.2,3.4,0.6c0.9,0.4,1.7,0.9,2.3,1.5c0.6,0.6,1,1.4,1.3,2.2
						c0.3,0.8,0.4,1.7,0.4,2.6c0,0.9-0.1,1.7-0.4,2.5c-0.3,0.8-0.7,1.6-1.3,2.2c-0.6,0.6-1.4,1.2-2.3,1.5c-0.9,0.4-2.1,0.6-3.4,0.6
						h-5v7.7h-4.7v-21.4H93.1z M91.8,276.6c0.5,0,1.1,0,1.6-0.1s0.9-0.2,1.3-0.5c0.4-0.2,0.7-0.6,0.9-1c0.2-0.4,0.3-1,0.3-1.7
						s-0.1-1.2-0.3-1.7c-0.2-0.4-0.5-0.7-0.9-1c-0.4-0.2-0.8-0.4-1.3-0.5s-1-0.1-1.6-0.1h-3.7v6.4H91.8z"/>
					<path fill="#014747" d="M110.6,266.5l5,14.7h0.1l4.7-14.7h6.6v21.4h-4.4v-15.2h-0.1l-5.2,15.2h-3.6l-5.2-15h-0.1v15H104v-21.4
						H110.6z"/>
				</g>
			</g>
			<g>
				<g>
					<path fill="#014747" d="M218.4,287.9H216l-0.6-2.5c-1,1.1-2,1.9-3,2.4c-1,0.4-2.2,0.7-3.4,0.7c-1.6,0-3-0.3-4.3-0.9
						c-1.3-0.6-2.3-1.4-3.2-2.4s-1.6-2.2-2-3.6c-0.5-1.4-0.7-2.8-0.7-4.3c0-1.5,0.2-3,0.7-4.3c0.5-1.4,1.1-2.5,2-3.6
						c0.9-1,2-1.8,3.2-2.4c1.3-0.6,2.7-0.9,4.3-0.9c1.2,0,2.3,0.2,3.3,0.5c1.1,0.3,2,0.8,2.8,1.4c0.8,0.6,1.5,1.4,2,2.3
						c0.5,0.9,0.9,2,1,3.2h-3.7c-0.1-0.7-0.3-1.3-0.6-1.8s-0.7-1-1.2-1.3c-0.5-0.4-1.1-0.6-1.7-0.8c-0.6-0.2-1.3-0.3-1.9-0.3
						c-1.1,0-2.1,0.2-3,0.7c-0.8,0.5-1.5,1.1-2,1.8s-0.9,1.6-1.2,2.6c-0.3,1-0.4,2-0.4,3s0.1,2,0.4,3c0.2,1,0.6,1.9,1.2,2.6
						s1.2,1.4,2,1.8s1.8,0.7,3,0.7c1,0,1.8-0.1,2.5-0.4c0.7-0.3,1.4-0.7,1.9-1.2c0.5-0.5,0.9-1.1,1.2-1.9c0.3-0.7,0.4-1.6,0.4-2.5
						h-5.7v-2.8h9.1V287.9z"/>
					<path fill="#014747" d="M229.7,288.4c-1.2,0-2.3-0.2-3.3-0.6c-1-0.4-1.8-1-2.5-1.7c-0.7-0.7-1.2-1.6-1.5-2.6s-0.5-2.1-0.5-3.3
						c0-1.2,0.2-2.3,0.5-3.3s0.9-1.9,1.5-2.6c0.7-0.7,1.5-1.3,2.5-1.7c1-0.4,2.1-0.6,3.3-0.6c1.2,0,2.3,0.2,3.3,0.6
						c1,0.4,1.8,1,2.5,1.7c0.7,0.7,1.2,1.6,1.5,2.6c0.3,1,0.5,2.1,0.5,3.3c0,1.2-0.2,2.3-0.5,3.3c-0.4,1-0.9,1.9-1.5,2.6
						c-0.7,0.7-1.5,1.3-2.5,1.7C232,288.2,230.9,288.4,229.7,288.4z M229.7,285.7c0.8,0,1.4-0.2,2-0.5c0.6-0.3,1-0.7,1.4-1.3
						c0.4-0.5,0.6-1.1,0.8-1.8c0.2-0.7,0.3-1.3,0.3-2c0-0.7-0.1-1.3-0.3-2s-0.4-1.2-0.8-1.8c-0.4-0.5-0.8-0.9-1.4-1.2
						c-0.6-0.3-1.2-0.5-2-0.5c-0.8,0-1.4,0.2-2,0.5c-0.6,0.3-1,0.7-1.4,1.2c-0.4,0.5-0.6,1.1-0.8,1.8s-0.3,1.3-0.3,2
						c0,0.7,0.1,1.3,0.3,2c0.2,0.6,0.4,1.2,0.8,1.8c0.4,0.5,0.8,0.9,1.4,1.3C228.2,285.5,228.9,285.7,229.7,285.7z"/>
					<path fill="#014747" d="M248.4,272.4h2.5v-1.3c0-1,0.1-1.8,0.4-2.4c0.2-0.6,0.6-1.1,1-1.4s0.9-0.6,1.4-0.7s1-0.2,1.6-0.2
						c1.1,0,1.9,0.1,2.4,0.2v2.7c-0.2-0.1-0.5-0.1-0.7-0.1c-0.3,0-0.5,0-0.9,0c-0.5,0-0.9,0.1-1.2,0.3c-0.3,0.2-0.5,0.7-0.5,1.3v1.6
						h2.9v2.5h-2.9v13h-3.4v-13h-2.5V272.4z"/>
					<path fill="#014747" d="M267,288.4c-1.2,0-2.3-0.2-3.3-0.6c-1-0.4-1.8-1-2.5-1.7c-0.7-0.7-1.2-1.6-1.5-2.6
						c-0.4-1-0.5-2.1-0.5-3.3c0-1.2,0.2-2.3,0.5-3.3c0.3-1,0.9-1.9,1.5-2.6c0.7-0.7,1.5-1.3,2.5-1.7c1-0.4,2.1-0.6,3.3-0.6
						c1.2,0,2.3,0.2,3.3,0.6c1,0.4,1.8,1,2.5,1.7c0.7,0.7,1.2,1.6,1.5,2.6c0.3,1,0.5,2.1,0.5,3.3c0,1.2-0.2,2.3-0.5,3.3
						c-0.4,1-0.9,1.9-1.5,2.6c-0.7,0.7-1.5,1.3-2.5,1.7C269.4,288.2,268.3,288.4,267,288.4z M267,285.7c0.8,0,1.4-0.2,2-0.5
						s1-0.7,1.4-1.3c0.4-0.5,0.6-1.1,0.8-1.8c0.2-0.7,0.3-1.3,0.3-2c0-0.7-0.1-1.3-0.3-2s-0.4-1.2-0.8-1.8s-0.8-0.9-1.4-1.2
						c-0.6-0.3-1.2-0.5-2-0.5c-0.8,0-1.4,0.2-2,0.5c-0.6,0.3-1,0.7-1.4,1.2c-0.4,0.5-0.6,1.1-0.8,1.8s-0.3,1.3-0.3,2
						c0,0.7,0.1,1.3,0.3,2c0.2,0.6,0.4,1.2,0.8,1.8c0.4,0.5,0.8,0.9,1.4,1.3C265.6,285.5,266.3,285.7,267,285.7z"/>
					<path fill="#014747" d="M278.3,272.4h3.2v3h0.1c0.1-0.4,0.3-0.8,0.6-1.2c0.3-0.4,0.6-0.8,1-1.1s0.9-0.6,1.4-0.8
						c0.5-0.2,1-0.3,1.5-0.3c0.4,0,0.7,0,0.8,0c0.2,0,0.3,0,0.5,0.1v3.3c-0.2,0-0.5-0.1-0.7-0.1c-0.2,0-0.5,0-0.7,0
						c-0.6,0-1.1,0.1-1.6,0.3s-1,0.6-1.3,1c-0.4,0.5-0.7,1-0.9,1.7c-0.2,0.7-0.3,1.4-0.3,2.3v7.4h-3.4V272.4z"/>
					<path fill="#014747" d="M311.4,284.5c0,0.4,0.1,0.7,0.2,0.9s0.3,0.3,0.6,0.3c0.1,0,0.2,0,0.4,0c0.1,0,0.3,0,0.5-0.1v2.4
						c-0.1,0-0.3,0.1-0.5,0.1c-0.2,0-0.4,0.1-0.6,0.1c-0.2,0-0.4,0.1-0.6,0.1c-0.2,0-0.4,0-0.5,0c-0.7,0-1.3-0.1-1.7-0.4
						c-0.5-0.3-0.8-0.8-0.9-1.5c-0.7,0.7-1.5,1.1-2.5,1.4c-1,0.3-1.9,0.5-2.9,0.5c-0.7,0-1.4-0.1-2-0.3c-0.6-0.2-1.2-0.5-1.7-0.8
						c-0.5-0.4-0.9-0.8-1.2-1.4c-0.3-0.6-0.4-1.2-0.4-2c0-1,0.2-1.7,0.5-2.3c0.3-0.6,0.8-1.1,1.4-1.4c0.6-0.3,1.2-0.6,1.9-0.7
						s1.4-0.3,2.1-0.3c0.6-0.1,1.2-0.2,1.8-0.3c0.6-0.1,1.1-0.1,1.5-0.3c0.4-0.1,0.8-0.3,1-0.6s0.4-0.6,0.4-1.1
						c0-0.4-0.1-0.8-0.3-1.1c-0.2-0.3-0.5-0.5-0.8-0.6c-0.3-0.2-0.7-0.2-1-0.3c-0.4,0-0.7-0.1-1.1-0.1c-1,0-1.8,0.2-2.4,0.6
						c-0.6,0.4-1,1-1,1.9h-3.4c0.1-1,0.3-1.8,0.7-2.5c0.4-0.7,1-1.2,1.6-1.6c0.7-0.4,1.4-0.7,2.2-0.8c0.8-0.2,1.7-0.2,2.5-0.2
						c0.8,0,1.5,0.1,2.2,0.2c0.7,0.2,1.4,0.4,2,0.8c0.6,0.4,1.1,0.8,1.4,1.4c0.4,0.6,0.5,1.3,0.5,2.1V284.5z M308,280.2
						c-0.5,0.3-1.2,0.5-1.9,0.6c-0.8,0.1-1.5,0.2-2.3,0.3c-0.4,0.1-0.7,0.1-1,0.3c-0.3,0.1-0.6,0.3-0.9,0.5s-0.5,0.4-0.6,0.8
						s-0.2,0.7-0.2,1.1c0,0.4,0.1,0.7,0.3,1c0.2,0.3,0.5,0.5,0.8,0.6c0.3,0.1,0.6,0.3,1,0.3s0.7,0.1,1,0.1c0.4,0,0.8,0,1.2-0.2
						c0.4-0.1,0.9-0.3,1.2-0.5c0.4-0.2,0.7-0.5,1-0.9c0.3-0.4,0.4-0.8,0.4-1.4V280.2z"/>
					<path fill="#014747" d="M323.2,272.4h3.6l3,11.6h0.1l2.9-11.6h3.5l2.8,11.6h0.1l3.2-11.6h3.5l-4.9,15.5h-3.5l-2.9-11.5h-0.1
						l-2.9,11.5H328L323.2,272.4z"/>
					<path fill="#014747" d="M361.6,284.5c0,0.4,0.1,0.7,0.2,0.9c0.1,0.2,0.3,0.3,0.6,0.3c0.1,0,0.2,0,0.4,0s0.3,0,0.5-0.1v2.4
						c-0.1,0-0.3,0.1-0.5,0.1c-0.2,0-0.4,0.1-0.6,0.1c-0.2,0-0.4,0.1-0.6,0.1s-0.4,0-0.5,0c-0.7,0-1.3-0.1-1.7-0.4s-0.8-0.8-0.9-1.5
						c-0.7,0.7-1.5,1.1-2.5,1.4c-1,0.3-1.9,0.5-2.9,0.5c-0.7,0-1.4-0.1-2-0.3c-0.6-0.2-1.2-0.5-1.7-0.8s-0.9-0.8-1.2-1.4
						c-0.3-0.6-0.4-1.2-0.4-2c0-1,0.2-1.7,0.5-2.3s0.8-1.1,1.4-1.4c0.6-0.3,1.2-0.6,1.9-0.7c0.7-0.2,1.4-0.3,2.1-0.3
						c0.6-0.1,1.2-0.2,1.8-0.3c0.6-0.1,1.1-0.1,1.5-0.3c0.4-0.1,0.8-0.3,1-0.6s0.4-0.6,0.4-1.1c0-0.4-0.1-0.8-0.3-1.1
						c-0.2-0.3-0.5-0.5-0.8-0.6c-0.3-0.2-0.7-0.2-1-0.3c-0.4,0-0.7-0.1-1.1-0.1c-1,0-1.8,0.2-2.4,0.6c-0.6,0.4-1,1-1,1.9h-3.4
						c0.1-1,0.3-1.8,0.7-2.5c0.4-0.7,1-1.2,1.6-1.6c0.6-0.4,1.4-0.7,2.2-0.8c0.8-0.2,1.7-0.2,2.5-0.2c0.8,0,1.5,0.1,2.2,0.2
						c0.7,0.2,1.4,0.4,2,0.8c0.6,0.4,1.1,0.8,1.4,1.4s0.5,1.3,0.5,2.1V284.5z M358.2,280.2c-0.5,0.3-1.2,0.5-1.9,0.6
						c-0.8,0.1-1.5,0.2-2.3,0.3c-0.4,0.1-0.7,0.1-1,0.3c-0.3,0.1-0.6,0.3-0.9,0.5c-0.3,0.2-0.5,0.4-0.6,0.8
						c-0.2,0.3-0.2,0.7-0.2,1.1c0,0.4,0.1,0.7,0.3,1s0.5,0.5,0.8,0.6c0.3,0.1,0.6,0.3,1,0.3c0.4,0.1,0.7,0.1,1,0.1
						c0.4,0,0.8,0,1.2-0.2c0.4-0.1,0.9-0.3,1.2-0.5s0.7-0.5,1-0.9c0.3-0.4,0.4-0.8,0.4-1.4V280.2z"/>
					<path fill="#014747" d="M366,266.5h3.4v21.4H366V266.5z"/>
					<path fill="#014747" d="M373.8,266.5h3.4v12.2l6.2-6.3h4.2l-5.9,5.7l6.5,9.8H384l-4.7-7.5l-2,2v5.5h-3.4V266.5z"/>
				</g>
			</g>
			<g>
				<g>
					<path fill="#014747" d="M202.6,310.1v19h11.3v2.4h-14.2v-21.4H202.6z"/>
					<path fill="#014747" d="M216.7,313.2v-3.1h2.5v3.1H216.7z M219.3,316v15.5h-2.5V316H219.3z"/>
					<path fill="#014747" d="M228.1,331.5l-5.8-15.5h2.9l4.3,12.9h0.1l4.2-12.9h2.7l-5.7,15.5H228.1z"/>
					<path fill="#014747" d="M239.6,313.2v-3.1h2.6v3.1H239.6z M242.1,316v15.5h-2.6V316H242.1z"/>
					<path fill="#014747" d="M249.1,316v2.5h0.1c1.1-1.9,2.7-2.8,5-2.8c1,0,1.9,0.1,2.6,0.4c0.7,0.3,1.2,0.7,1.6,1.2
						s0.7,1.1,0.9,1.8s0.3,1.5,0.3,2.3v10.2H257V321c0-1-0.3-1.7-0.8-2.3c-0.6-0.6-1.3-0.8-2.3-0.8c-0.8,0-1.5,0.1-2,0.4
						s-1,0.6-1.4,1c-0.4,0.4-0.7,1-0.9,1.5s-0.3,1.2-0.3,1.9v8.8h-2.6V316H249.1z"/>
					<path fill="#014747" d="M275.6,335.9c-1.2,1.3-3,1.9-5.5,1.9c-0.7,0-1.5-0.1-2.2-0.2s-1.4-0.4-2-0.8c-0.6-0.4-1.1-0.8-1.5-1.4
						s-0.6-1.3-0.7-2.1h2.5c0,0.5,0.2,0.9,0.4,1.2c0.3,0.3,0.6,0.6,1,0.8c0.4,0.2,0.8,0.3,1.3,0.4c0.5,0.1,0.9,0.1,1.3,0.1
						c0.8,0,1.5-0.1,2.1-0.4c0.6-0.3,1.1-0.7,1.4-1.2c0.4-0.5,0.7-1.1,0.8-1.8c0.2-0.7,0.3-1.5,0.3-2.4v-1h-0.1
						c-0.4,1-1.1,1.7-2,2.1c-0.9,0.5-1.8,0.7-2.8,0.7c-1.2,0-2.2-0.2-3-0.6c-0.9-0.4-1.6-1-2.2-1.7s-1-1.5-1.3-2.5
						c-0.3-1-0.4-2-0.4-3c0-0.9,0.1-1.9,0.4-2.8c0.2-1,0.6-1.8,1.2-2.6c0.6-0.8,1.3-1.4,2.2-2s2-0.8,3.4-0.8c1,0,1.9,0.2,2.7,0.6
						s1.5,1.1,1.9,1.9h0V316h2.4v14.2C277.4,332.7,276.8,334.6,275.6,335.9z M272.4,328.9c0.6-0.3,1.1-0.8,1.4-1.4
						c0.4-0.6,0.6-1.2,0.8-1.9c0.2-0.7,0.3-1.4,0.3-2.2c0-0.7-0.1-1.3-0.2-2s-0.4-1.3-0.8-1.8c-0.4-0.5-0.8-1-1.4-1.3
						c-0.6-0.3-1.2-0.5-2-0.5c-0.8,0-1.5,0.2-2.1,0.5c-0.6,0.3-1.1,0.7-1.4,1.2c-0.4,0.5-0.6,1.1-0.8,1.8s-0.3,1.4-0.3,2.1
						c0,0.7,0.1,1.4,0.2,2.1c0.1,0.7,0.4,1.3,0.7,1.9s0.8,1,1.4,1.4c0.6,0.4,1.3,0.5,2.1,0.5S271.8,329.2,272.4,328.9z"/>
					<path fill="#014747" d="M301.2,310.1c2,0,3.6,0.5,4.8,1.5s1.7,2.4,1.7,4.1c0,1.3-0.3,2.4-0.9,3.4c-0.6,1-1.5,1.7-2.8,2v0.1
						c0.6,0.1,1.1,0.3,1.5,0.6c0.4,0.3,0.7,0.6,0.9,1c0.2,0.4,0.4,0.8,0.5,1.3s0.2,1,0.3,1.5c0,0.5,0.1,1.1,0.1,1.6
						c0,0.5,0.1,1.1,0.2,1.6c0.1,0.5,0.2,1,0.3,1.5c0.2,0.5,0.4,0.9,0.7,1.2h-3.2c-0.2-0.2-0.3-0.5-0.4-0.9
						c-0.1-0.4-0.1-0.8-0.1-1.3s0-1-0.1-1.5c0-0.5-0.1-1.1-0.2-1.6c-0.1-0.5-0.2-1-0.3-1.5c-0.1-0.5-0.3-0.9-0.6-1.2
						c-0.3-0.3-0.6-0.6-1-0.8s-1-0.3-1.7-0.3h-7v9.2h-2.9v-21.4H301.2z M301.8,319.8c0.6-0.1,1.1-0.3,1.6-0.6
						c0.4-0.3,0.8-0.7,1.1-1.2c0.3-0.5,0.4-1.1,0.4-1.9c0-1.1-0.3-2-0.9-2.6c-0.6-0.7-1.6-1-2.9-1H294v7.5h5.9
						C300.6,319.9,301.2,319.9,301.8,319.8z"/>
					<path fill="#014747" d="M311.5,320.6c0.3-1,0.8-1.8,1.4-2.6c0.6-0.7,1.4-1.3,2.4-1.7c0.9-0.4,2-0.6,3.2-0.6
						c1.2,0,2.3,0.2,3.3,0.6c0.9,0.4,1.7,1,2.4,1.7c0.6,0.7,1.1,1.6,1.4,2.6c0.3,1,0.5,2.1,0.5,3.2c0,1.1-0.2,2.2-0.5,3.2
						c-0.3,1-0.8,1.8-1.4,2.6c-0.6,0.7-1.4,1.3-2.4,1.7c-0.9,0.4-2,0.6-3.3,0.6c-1.2,0-2.3-0.2-3.2-0.6c-0.9-0.4-1.7-1-2.4-1.7
						c-0.6-0.7-1.1-1.6-1.4-2.6c-0.3-1-0.5-2-0.5-3.2C311.1,322.6,311.2,321.5,311.5,320.6z M314.1,326.3c0.2,0.7,0.6,1.3,1,1.8
						c0.4,0.5,1,0.9,1.5,1.1s1.2,0.4,1.9,0.4c0.7,0,1.3-0.1,1.9-0.4s1.1-0.6,1.5-1.1c0.4-0.5,0.8-1.1,1-1.8c0.2-0.7,0.4-1.6,0.4-2.5
						c0-0.9-0.1-1.8-0.4-2.5c-0.2-0.7-0.6-1.3-1-1.8c-0.4-0.5-1-0.9-1.5-1.1c-0.6-0.3-1.2-0.4-1.9-0.4c-0.7,0-1.3,0.1-1.9,0.4
						c-0.6,0.3-1.1,0.6-1.5,1.1c-0.4,0.5-0.8,1.1-1,1.8c-0.2,0.7-0.4,1.6-0.4,2.5C313.8,324.7,313.9,325.5,314.1,326.3z"/>
					<path fill="#014747" d="M329.4,320.6c0.3-1,0.8-1.8,1.4-2.6c0.6-0.7,1.4-1.3,2.4-1.7c0.9-0.4,2-0.6,3.2-0.6
						c1.2,0,2.3,0.2,3.3,0.6c0.9,0.4,1.7,1,2.4,1.7c0.6,0.7,1.1,1.6,1.4,2.6c0.3,1,0.5,2.1,0.5,3.2c0,1.1-0.2,2.2-0.5,3.2
						c-0.3,1-0.8,1.8-1.4,2.6c-0.6,0.7-1.4,1.3-2.4,1.7c-0.9,0.4-2,0.6-3.3,0.6c-1.2,0-2.3-0.2-3.2-0.6c-0.9-0.4-1.7-1-2.4-1.7
						c-0.6-0.7-1.1-1.6-1.4-2.6c-0.3-1-0.5-2-0.5-3.2C328.9,322.6,329,321.5,329.4,320.6z M331.9,326.3c0.2,0.7,0.6,1.3,1,1.8
						c0.4,0.5,1,0.9,1.5,1.1s1.2,0.4,1.9,0.4c0.7,0,1.3-0.1,1.9-0.4s1.1-0.6,1.5-1.1c0.4-0.5,0.8-1.1,1-1.8c0.2-0.7,0.4-1.6,0.4-2.5
						c0-0.9-0.1-1.8-0.4-2.5c-0.2-0.7-0.6-1.3-1-1.8c-0.4-0.5-1-0.9-1.5-1.1c-0.6-0.3-1.2-0.4-1.9-0.4c-0.7,0-1.3,0.1-1.9,0.4
						c-0.6,0.3-1.1,0.6-1.5,1.1c-0.4,0.5-0.8,1.1-1,1.8c-0.2,0.7-0.4,1.6-0.4,2.5C331.6,324.7,331.7,325.5,331.9,326.3z"/>
					<path fill="#014747" d="M349.9,316v2.3h0.1c1.2-1.8,2.8-2.6,5-2.6c1,0,1.8,0.2,2.6,0.6c0.8,0.4,1.3,1.1,1.7,2
						c0.5-0.8,1.2-1.5,2.1-1.9c0.8-0.5,1.8-0.7,2.8-0.7c0.8,0,1.5,0.1,2.1,0.3s1.2,0.4,1.6,0.8c0.5,0.4,0.8,0.8,1,1.4
						c0.2,0.6,0.4,1.3,0.4,2.1v11.4h-2.5v-10.2c0-0.5,0-0.9-0.1-1.3s-0.2-0.8-0.5-1.1c-0.2-0.3-0.5-0.6-0.9-0.7
						c-0.4-0.2-0.9-0.3-1.5-0.3c-1.3,0-2.2,0.4-3,1.1s-1.1,1.7-1.1,2.9v9.7h-2.5v-10.2c0-0.5,0-1-0.1-1.4c-0.1-0.4-0.2-0.8-0.5-1.1
						s-0.5-0.6-0.9-0.7s-0.8-0.3-1.4-0.3c-0.7,0-1.4,0.1-1.9,0.5c-0.5,0.3-1,0.7-1.3,1.1s-0.6,0.9-0.7,1.3c-0.2,0.5-0.2,0.8-0.2,1.1
						v9.7h-2.6V316H349.9z"/>
				</g>
			</g>
		</g>
		<g>
			<g>
				<g>
					<path fill="#014747" d="M22.3,400.6c-0.5-0.5-1.1-0.8-1.9-0.8c-0.8,0-1.4,0.2-1.9,0.7c-0.5,0.5-0.9,1-1.2,1.7
						c-0.3,0.6-0.5,1.3-0.7,2.1c-0.1,0.7-0.2,1.4-0.2,2l0.1,0.1c0.6-0.8,1.3-1.4,2-1.8c0.8-0.4,1.7-0.5,2.7-0.5
						c0.9,0,1.8,0.2,2.6,0.6c0.9,0.4,1.6,0.9,2.2,1.6c0.6,0.6,1,1.4,1.2,2.2s0.4,1.6,0.4,2.5c0,1.1-0.2,2.1-0.5,3s-0.8,1.7-1.5,2.4
						c-0.7,0.7-1.4,1.2-2.3,1.6c-0.9,0.4-1.9,0.6-3,0.6c-1.6,0-2.9-0.3-3.9-0.9c-1-0.6-1.9-1.5-2.5-2.5c-0.6-1-1-2.2-1.3-3.5
						s-0.4-2.6-0.4-3.9c0-1.3,0.1-2.6,0.4-3.9c0.3-1.3,0.8-2.5,1.4-3.5s1.5-1.9,2.5-2.6c1-0.7,2.3-1,3.8-1c0.9,0,1.7,0.1,2.5,0.4
						c0.8,0.3,1.5,0.6,2.1,1.1s1.1,1.1,1.5,1.8c0.4,0.7,0.6,1.5,0.8,2.5h-4C23.1,401.7,22.8,401.1,22.3,400.6z M18.7,407.4
						c-0.4,0.2-0.8,0.5-1.1,0.9c-0.3,0.4-0.5,0.8-0.6,1.2c-0.1,0.5-0.2,1-0.2,1.5c0,0.5,0.1,1,0.2,1.4c0.1,0.5,0.4,0.9,0.7,1.3
						c0.3,0.4,0.6,0.7,1.1,0.9s0.9,0.3,1.4,0.3c0.5,0,1-0.1,1.4-0.3c0.4-0.2,0.7-0.5,1-0.9c0.3-0.4,0.5-0.8,0.6-1.2
						c0.1-0.5,0.2-0.9,0.2-1.4c0-0.5-0.1-1-0.2-1.5c-0.1-0.5-0.3-0.9-0.6-1.3c-0.3-0.4-0.6-0.7-1-0.9c-0.4-0.2-0.9-0.3-1.4-0.3
						C19.6,407.1,19.1,407.2,18.7,407.4z"/>
					<path fill="#014747" d="M30.7,407.4v-4.6h4.7v4.6H30.7z M35.4,413.4v4.6h-4.7v-4.6H35.4z"/>
					<path fill="#014747" d="M39.1,402.3c0.4-1.4,1-2.5,1.7-3.3c0.7-0.8,1.5-1.4,2.4-1.8c0.9-0.4,1.9-0.5,3-0.5c1.1,0,2.1,0.2,3,0.5
						c0.9,0.4,1.8,1,2.5,1.8s1.3,2,1.7,3.3c0.4,1.4,0.6,3.1,0.6,5.1c0,2.1-0.2,3.9-0.6,5.3c-0.4,1.4-1,2.5-1.7,3.4s-1.5,1.4-2.5,1.8
						c-0.9,0.4-1.9,0.5-3,0.5c-1,0-2-0.2-3-0.5c-0.9-0.4-1.7-1-2.4-1.8c-0.7-0.8-1.3-2-1.7-3.4c-0.4-1.4-0.6-3.2-0.6-5.3
						C38.5,405.4,38.7,403.6,39.1,402.3z M42.8,409.6c0,0.9,0.2,1.7,0.4,2.5s0.5,1.5,1,2c0.5,0.6,1.1,0.8,2,0.8c0.9,0,1.6-0.3,2-0.8
						c0.5-0.6,0.8-1.2,1-2c0.2-0.8,0.3-1.6,0.4-2.5c0-0.8,0.1-1.6,0.1-2.2c0-0.4,0-0.8,0-1.3c0-0.5-0.1-1-0.1-1.6
						c-0.1-0.5-0.2-1.1-0.3-1.6c-0.1-0.5-0.3-1-0.6-1.4s-0.6-0.8-1-1c-0.4-0.3-0.9-0.4-1.5-0.4c-0.6,0-1.1,0.1-1.5,0.4
						c-0.4,0.3-0.7,0.6-1,1s-0.4,0.9-0.6,1.4c-0.1,0.5-0.2,1.1-0.3,1.6c-0.1,0.5-0.1,1.1-0.1,1.6c0,0.5,0,0.9,0,1.3
						C42.7,408,42.7,408.7,42.8,409.6z"/>
					<path fill="#014747" d="M56.4,402.3c0.4-1.4,1-2.5,1.7-3.3s1.5-1.4,2.4-1.8c0.9-0.4,1.9-0.5,3-0.5c1.1,0,2.1,0.2,3,0.5
						c0.9,0.4,1.8,1,2.5,1.8c0.7,0.8,1.3,2,1.7,3.3c0.4,1.4,0.6,3.1,0.6,5.1c0,2.1-0.2,3.9-0.6,5.3s-1,2.5-1.7,3.4
						c-0.7,0.8-1.5,1.4-2.5,1.8c-0.9,0.4-1.9,0.5-3,0.5c-1,0-2-0.2-3-0.5c-0.9-0.4-1.7-1-2.4-1.8s-1.3-2-1.7-3.4
						c-0.4-1.4-0.6-3.2-0.6-5.3C55.7,405.4,55.9,403.6,56.4,402.3z M60.1,409.6c0,0.9,0.2,1.7,0.4,2.5c0.2,0.8,0.5,1.5,1,2
						c0.5,0.6,1.1,0.8,2,0.8c0.9,0,1.6-0.3,2-0.8c0.5-0.6,0.8-1.2,1-2s0.3-1.6,0.4-2.5c0-0.8,0.1-1.6,0.1-2.2c0-0.4,0-0.8,0-1.3
						c0-0.5-0.1-1-0.1-1.6c-0.1-0.5-0.2-1.1-0.3-1.6c-0.1-0.5-0.3-1-0.6-1.4c-0.3-0.4-0.6-0.8-1-1c-0.4-0.3-0.9-0.4-1.5-0.4
						s-1.1,0.1-1.5,0.4c-0.4,0.3-0.7,0.6-1,1c-0.3,0.4-0.4,0.9-0.6,1.4c-0.1,0.5-0.2,1.1-0.3,1.6c-0.1,0.5-0.1,1.1-0.1,1.6
						c0,0.5,0,0.9,0,1.3C60,408,60,408.7,60.1,409.6z"/>
					<path fill="#014747" d="M93.1,396.6c1.3,0,2.5,0.2,3.4,0.6c0.9,0.4,1.7,0.9,2.3,1.5s1,1.4,1.3,2.2c0.3,0.8,0.4,1.7,0.4,2.6
						c0,0.9-0.1,1.7-0.4,2.5c-0.3,0.8-0.7,1.6-1.3,2.2c-0.6,0.6-1.4,1.2-2.3,1.5c-0.9,0.4-2.1,0.6-3.4,0.6h-5v7.7h-4.7v-21.4H93.1z
						 M91.8,406.7c0.5,0,1.1,0,1.6-0.1s0.9-0.2,1.3-0.5c0.4-0.2,0.7-0.6,0.9-1c0.2-0.4,0.3-1,0.3-1.6s-0.1-1.2-0.3-1.7
						c-0.2-0.4-0.5-0.7-0.9-1c-0.4-0.2-0.8-0.4-1.3-0.5c-0.5-0.1-1-0.1-1.6-0.1h-3.7v6.4H91.8z"/>
					<path fill="#014747" d="M110.6,396.6l5,14.7h0.1l4.7-14.7h6.6V418h-4.4v-15.2h-0.1l-5.2,15.2h-3.6l-5.2-15h-0.1v15H104v-21.4
						H110.6z"/>
				</g>
			</g>
			<g>
				<g>
					<path fill="#014747" d="M196.4,396.6h15.4v3.2h-11.7v5.6h10.8v3.1h-10.8v6.3H212v3.2h-15.6V396.6z"/>
					<path fill="#014747" d="M228.4,414.5c0,0.4,0.1,0.7,0.2,0.9c0.1,0.2,0.3,0.3,0.6,0.3c0.1,0,0.2,0,0.4,0c0.1,0,0.3,0,0.5-0.1
						v2.4c-0.1,0-0.3,0.1-0.5,0.1c-0.2,0-0.4,0.1-0.6,0.1c-0.2,0-0.4,0.1-0.6,0.1c-0.2,0-0.4,0-0.5,0c-0.7,0-1.3-0.1-1.7-0.4
						c-0.5-0.3-0.8-0.8-0.9-1.5c-0.7,0.7-1.5,1.1-2.5,1.4c-1,0.3-1.9,0.5-2.9,0.5c-0.7,0-1.4-0.1-2-0.3s-1.2-0.5-1.7-0.8
						c-0.5-0.4-0.9-0.8-1.2-1.4c-0.3-0.6-0.4-1.2-0.4-2c0-1,0.2-1.7,0.5-2.3c0.3-0.6,0.8-1.1,1.4-1.4c0.6-0.3,1.2-0.6,1.9-0.7
						c0.7-0.1,1.4-0.3,2.1-0.3c0.6-0.1,1.2-0.2,1.8-0.3c0.6,0,1.1-0.1,1.5-0.3s0.8-0.3,1-0.6c0.2-0.2,0.4-0.6,0.4-1.1
						c0-0.4-0.1-0.8-0.3-1.1c-0.2-0.3-0.5-0.5-0.8-0.6c-0.3-0.1-0.7-0.2-1-0.3c-0.4,0-0.7-0.1-1.1-0.1c-1,0-1.8,0.2-2.4,0.6
						s-1,1-1,1.9h-3.4c0.1-1,0.3-1.8,0.7-2.5c0.4-0.7,1-1.2,1.6-1.6c0.7-0.4,1.4-0.7,2.2-0.8c0.8-0.2,1.7-0.2,2.5-0.2
						c0.8,0,1.5,0.1,2.2,0.2c0.7,0.2,1.4,0.4,2,0.8s1.1,0.8,1.4,1.4c0.4,0.6,0.5,1.3,0.5,2.1V414.5z M225,410.2
						c-0.5,0.3-1.2,0.5-1.9,0.6c-0.8,0.1-1.5,0.2-2.3,0.3c-0.4,0.1-0.7,0.1-1,0.3s-0.6,0.3-0.9,0.5c-0.3,0.2-0.5,0.4-0.6,0.8
						c-0.1,0.3-0.2,0.7-0.2,1.1c0,0.4,0.1,0.7,0.3,1c0.2,0.3,0.5,0.5,0.8,0.6c0.3,0.2,0.7,0.3,1,0.3c0.4,0.1,0.7,0.1,1,0.1
						c0.4,0,0.8,0,1.2-0.2c0.4-0.1,0.9-0.3,1.2-0.5c0.4-0.2,0.7-0.5,1-0.9c0.3-0.4,0.4-0.8,0.4-1.4V410.2z"/>
					<path fill="#014747" d="M231.1,402.5h2.6v-4.7h3.4v4.7h3.1v2.5h-3.1v8.3c0,0.4,0,0.7,0,0.9c0,0.3,0.1,0.5,0.2,0.7
						c0.1,0.2,0.3,0.3,0.5,0.4c0.2,0.1,0.5,0.1,0.9,0.1c0.2,0,0.5,0,0.7,0c0.2,0,0.5,0,0.7-0.1v2.6c-0.4,0-0.8,0.1-1.1,0.1
						c-0.4,0-0.7,0.1-1.1,0.1c-0.9,0-1.6-0.1-2.2-0.3c-0.6-0.2-1-0.4-1.3-0.8s-0.5-0.7-0.6-1.2c-0.1-0.5-0.2-1.1-0.2-1.7V405h-2.6
						V402.5z"/>
					<path fill="#014747" d="M252.7,396.6h8.9c1.6,0,3.1,0.3,4.3,0.8c1.2,0.6,2.2,1.3,2.9,2.3c0.8,1,1.3,2.1,1.7,3.4
						s0.6,2.7,0.6,4.2s-0.2,2.9-0.6,4.2s-0.9,2.4-1.7,3.4c-0.8,1-1.7,1.7-2.9,2.3c-1.2,0.6-2.6,0.8-4.3,0.8h-8.9V396.6z
						 M256.4,414.9h3.7c1.5,0,2.7-0.2,3.6-0.6c0.9-0.4,1.7-0.9,2.2-1.6c0.5-0.7,0.9-1.5,1.1-2.4c0.2-0.9,0.3-1.9,0.3-3
						s-0.1-2.1-0.3-3c-0.2-0.9-0.6-1.7-1.1-2.4c-0.5-0.7-1.3-1.2-2.2-1.6c-0.9-0.4-2.1-0.6-3.6-0.6h-3.7V414.9z"/>
					<path fill="#014747" d="M274.6,396.6h3.4v3.2h-3.4V396.6z M274.6,402.5h3.4V418h-3.4V402.5z"/>
					<path fill="#014747" d="M282.3,402.5h3.2v2.3l0.1,0.1c0.5-0.9,1.2-1.5,2-2c0.8-0.5,1.8-0.7,2.8-0.7c1.7,0,3,0.4,4,1.3
						c1,0.9,1.5,2.2,1.5,4V418h-3.4v-9.8c0-1.2-0.3-2.1-0.8-2.7c-0.5-0.5-1.2-0.8-2.2-0.8c-0.6,0-1.1,0.1-1.6,0.3
						c-0.5,0.2-0.9,0.5-1.2,0.9c-0.3,0.4-0.6,0.8-0.8,1.3s-0.3,1-0.3,1.6v9.2h-3.4V402.5z"/>
					<path fill="#014747" d="M300.1,402.5h3.2v2.3l0.1,0.1c0.5-0.9,1.2-1.5,2-2c0.8-0.5,1.8-0.7,2.8-0.7c1.7,0,3,0.4,4,1.3
						c1,0.9,1.5,2.2,1.5,4V418h-3.4v-9.8c0-1.2-0.3-2.1-0.8-2.7c-0.5-0.5-1.2-0.8-2.2-0.8c-0.6,0-1.1,0.1-1.6,0.3
						c-0.5,0.2-0.9,0.5-1.2,0.9c-0.3,0.4-0.6,0.8-0.8,1.3c-0.2,0.5-0.3,1-0.3,1.6v9.2h-3.4V402.5z"/>
					<path fill="#014747" d="M320.6,411.1c0,0.6,0.1,1.2,0.3,1.7c0.2,0.6,0.4,1,0.8,1.5s0.8,0.8,1.3,1s1.1,0.4,1.9,0.4
						c1,0,1.8-0.2,2.4-0.6c0.6-0.4,1.1-1.1,1.4-1.9h3.2c-0.2,0.8-0.5,1.6-0.9,2.2s-1,1.2-1.6,1.7c-0.6,0.5-1.3,0.8-2.1,1
						c-0.8,0.2-1.6,0.3-2.4,0.3c-1.2,0-2.3-0.2-3.2-0.6c-0.9-0.4-1.7-1-2.4-1.7c-0.7-0.7-1.1-1.6-1.5-2.6c-0.3-1-0.5-2.1-0.5-3.3
						c0-1.1,0.2-2.1,0.5-3.1c0.3-1,0.8-1.9,1.5-2.6c0.6-0.8,1.4-1.3,2.4-1.8c0.9-0.4,2-0.7,3.1-0.7c1.2,0,2.3,0.3,3.3,0.8
						c1,0.5,1.8,1.2,2.4,2c0.6,0.8,1.1,1.8,1.4,2.9s0.4,2.2,0.2,3.4H320.6z M328.6,408.9c0-0.5-0.2-1.1-0.3-1.6
						c-0.2-0.5-0.5-0.9-0.8-1.3c-0.3-0.4-0.7-0.7-1.2-0.9c-0.5-0.2-1-0.3-1.6-0.3c-0.6,0-1.1,0.1-1.6,0.3c-0.5,0.2-0.9,0.5-1.3,0.9
						s-0.6,0.8-0.8,1.3s-0.3,1-0.3,1.6H328.6z"/>
					<path fill="#014747" d="M335.2,402.5h3.2v3h0.1c0.1-0.4,0.3-0.8,0.6-1.2c0.3-0.4,0.6-0.8,1.1-1.1c0.4-0.3,0.9-0.6,1.4-0.8
						s1-0.3,1.5-0.3c0.4,0,0.7,0,0.8,0c0.2,0,0.3,0,0.5,0.1v3.3c-0.2,0-0.5-0.1-0.7-0.1c-0.2,0-0.5,0-0.7,0c-0.6,0-1.1,0.1-1.6,0.3
						c-0.5,0.2-1,0.6-1.3,1s-0.7,1-0.9,1.7c-0.2,0.7-0.3,1.4-0.3,2.3v7.4h-3.4V402.5z"/>
				</g>
			</g>
			<g>
				<g>
					<path fill="#014747" d="M207.1,440.1c3.3,0,5.8,0.8,7.6,2.5s2.7,4.2,2.7,7.7c0,1.8-0.2,3.4-0.6,4.8c-0.4,1.4-1,2.6-1.9,3.5
						s-1.9,1.7-3.2,2.2s-2.8,0.8-4.6,0.8h-7.3v-21.4H207.1z M207.3,459.1c0.3,0,0.7,0,1.2-0.1c0.5-0.1,1-0.2,1.5-0.4
						s1.1-0.5,1.6-0.8c0.5-0.4,1-0.8,1.4-1.5s0.8-1.4,1-2.3c0.3-0.9,0.4-2.1,0.4-3.4c0-1.3-0.1-2.4-0.4-3.4c-0.2-1-0.7-1.9-1.2-2.6
						c-0.6-0.7-1.3-1.2-2.2-1.6c-0.9-0.4-2-0.6-3.3-0.6h-4.8v16.6H207.3z"/>
					<path fill="#014747" d="M221.2,443.2v-3.1h2.6v3.1H221.2z M223.7,446v15.5h-2.6V446H223.7z"/>
					<path fill="#014747" d="M230.7,446v2.5h0.1c1.1-1.9,2.7-2.8,5-2.8c1,0,1.9,0.1,2.5,0.4s1.2,0.7,1.7,1.2s0.7,1.1,0.9,1.8
						s0.3,1.5,0.3,2.3v10.2h-2.5V451c0-1-0.3-1.7-0.8-2.3c-0.6-0.6-1.3-0.8-2.3-0.8c-0.8,0-1.5,0.1-2,0.4c-0.6,0.2-1,0.6-1.4,1
						c-0.4,0.4-0.7,1-0.9,1.5c-0.2,0.6-0.3,1.2-0.3,1.9v8.8h-2.5V446H230.7z"/>
					<path fill="#014747" d="M245.7,443.2v-3.1h2.5v3.1H245.7z M248.3,446v15.5h-2.5V446H248.3z"/>
					<path fill="#014747" d="M255.2,446v2.5h0.1c1.1-1.9,2.7-2.8,5-2.8c1,0,1.9,0.1,2.6,0.4c0.7,0.3,1.2,0.7,1.6,1.2
						s0.7,1.1,0.9,1.8s0.3,1.5,0.3,2.3v10.2h-2.5V451c0-1-0.3-1.7-0.8-2.3c-0.6-0.6-1.3-0.8-2.3-0.8c-0.8,0-1.5,0.1-2,0.4
						s-1,0.6-1.4,1c-0.4,0.4-0.7,1-0.9,1.5s-0.3,1.2-0.3,1.9v8.8h-2.6V446H255.2z"/>
					<path fill="#014747" d="M281.7,465.9c-1.2,1.3-3,1.9-5.5,1.9c-0.7,0-1.5-0.1-2.2-0.2s-1.4-0.4-2-0.8s-1.1-0.8-1.5-1.4
						c-0.4-0.6-0.6-1.3-0.7-2.1h2.5c0,0.5,0.2,0.9,0.4,1.2c0.3,0.3,0.6,0.6,1,0.8c0.4,0.2,0.8,0.3,1.3,0.4c0.5,0.1,0.9,0.1,1.3,0.1
						c0.8,0,1.5-0.1,2.1-0.4c0.6-0.3,1.1-0.7,1.4-1.2c0.4-0.5,0.7-1.1,0.8-1.8s0.3-1.5,0.3-2.4v-1H281c-0.4,1-1.1,1.7-2,2.1
						c-0.9,0.5-1.8,0.7-2.8,0.7c-1.2,0-2.2-0.2-3-0.6s-1.6-1-2.2-1.7s-1-1.5-1.3-2.5s-0.4-2-0.4-3c0-0.9,0.1-1.9,0.4-2.8
						c0.2-1,0.6-1.8,1.2-2.6c0.6-0.8,1.3-1.4,2.2-2s2-0.8,3.4-0.8c1,0,1.9,0.2,2.7,0.6c0.8,0.4,1.5,1.1,1.9,1.9h0V446h2.4v14.2
						C283.5,462.8,282.9,464.7,281.7,465.9z M278.5,458.9c0.6-0.3,1.1-0.8,1.4-1.4c0.4-0.6,0.6-1.2,0.8-1.9c0.2-0.7,0.3-1.4,0.3-2.2
						c0-0.7-0.1-1.3-0.2-2c-0.2-0.7-0.4-1.3-0.8-1.8c-0.3-0.5-0.8-1-1.4-1.3c-0.6-0.3-1.2-0.5-2-0.5c-0.8,0-1.5,0.2-2.1,0.5
						c-0.6,0.3-1.1,0.7-1.4,1.2c-0.4,0.5-0.6,1.1-0.8,1.8c-0.2,0.7-0.3,1.4-0.3,2.1c0,0.7,0.1,1.4,0.2,2.1c0.1,0.7,0.4,1.3,0.7,1.9
						c0.3,0.6,0.8,1,1.3,1.4c0.6,0.4,1.3,0.5,2.1,0.5C277.2,459.5,277.9,459.3,278.5,458.9z"/>
					<path fill="#014747" d="M307.4,440.1c2,0,3.6,0.5,4.8,1.5c1.1,1,1.7,2.4,1.7,4.1c0,1.3-0.3,2.4-0.9,3.4c-0.6,1-1.5,1.7-2.8,2
						v0.1c0.6,0.1,1.1,0.3,1.5,0.6c0.4,0.3,0.7,0.6,0.9,1c0.2,0.4,0.4,0.8,0.5,1.3c0.1,0.5,0.2,1,0.3,1.5c0,0.5,0.1,1.1,0.1,1.6
						c0,0.5,0.1,1.1,0.2,1.6c0.1,0.5,0.2,1,0.3,1.5c0.1,0.5,0.4,0.9,0.7,1.2h-3.2c-0.2-0.2-0.3-0.5-0.4-0.9
						c-0.1-0.4-0.1-0.8-0.1-1.3c0-0.5,0-1-0.1-1.5c0-0.5-0.1-1.1-0.2-1.6c-0.1-0.5-0.2-1-0.3-1.5c-0.1-0.5-0.3-0.9-0.6-1.2
						c-0.3-0.3-0.6-0.6-1-0.8s-1-0.3-1.7-0.3h-7v9.2h-2.8v-21.4H307.4z M308,449.8c0.6-0.1,1.1-0.3,1.6-0.6c0.5-0.3,0.8-0.7,1.1-1.2
						c0.3-0.5,0.4-1.1,0.4-1.9c0-1.1-0.3-2-0.9-2.6s-1.6-1-2.9-1h-7.1v7.5h5.9C306.7,450,307.4,449.9,308,449.8z"/>
					<path fill="#014747" d="M317.7,450.6c0.3-1,0.8-1.8,1.4-2.6c0.6-0.7,1.4-1.3,2.4-1.7s2-0.6,3.2-0.6c1.2,0,2.3,0.2,3.3,0.6
						s1.7,1,2.4,1.7c0.6,0.7,1.1,1.6,1.4,2.6c0.3,1,0.5,2.1,0.5,3.2c0,1.1-0.2,2.2-0.5,3.2c-0.3,1-0.8,1.8-1.4,2.6
						c-0.6,0.7-1.4,1.3-2.4,1.7s-2,0.6-3.3,0.6c-1.2,0-2.3-0.2-3.2-0.6s-1.7-1-2.4-1.7c-0.6-0.7-1.1-1.6-1.4-2.6
						c-0.3-1-0.5-2-0.5-3.2C317.2,452.7,317.3,451.6,317.7,450.6z M320.3,456.3c0.2,0.7,0.6,1.3,1,1.8c0.4,0.5,1,0.9,1.5,1.1
						s1.2,0.4,1.9,0.4s1.3-0.1,1.9-0.4s1.1-0.6,1.5-1.1c0.4-0.5,0.8-1.1,1-1.8c0.2-0.7,0.4-1.6,0.4-2.5c0-0.9-0.1-1.8-0.4-2.5
						c-0.3-0.7-0.6-1.3-1-1.8c-0.4-0.5-1-0.9-1.5-1.1c-0.6-0.3-1.2-0.4-1.9-0.4s-1.3,0.1-1.9,0.4c-0.6,0.3-1.1,0.6-1.5,1.1
						c-0.4,0.5-0.8,1.1-1,1.8c-0.2,0.7-0.4,1.6-0.4,2.5C319.9,454.7,320,455.6,320.3,456.3z"/>
					<path fill="#014747" d="M335.5,450.6c0.3-1,0.8-1.8,1.4-2.6c0.6-0.7,1.4-1.3,2.4-1.7c0.9-0.4,2-0.6,3.2-0.6
						c1.2,0,2.3,0.2,3.3,0.6c0.9,0.4,1.7,1,2.4,1.7c0.6,0.7,1.1,1.6,1.4,2.6c0.3,1,0.5,2.1,0.5,3.2c0,1.1-0.2,2.2-0.5,3.2
						c-0.3,1-0.8,1.8-1.4,2.6c-0.6,0.7-1.4,1.3-2.4,1.7c-0.9,0.4-2,0.6-3.3,0.6c-1.2,0-2.3-0.2-3.2-0.6c-0.9-0.4-1.7-1-2.4-1.7
						c-0.6-0.7-1.1-1.6-1.4-2.6c-0.3-1-0.5-2-0.5-3.2C335,452.7,335.2,451.6,335.5,450.6z M338.1,456.3c0.2,0.7,0.6,1.3,1,1.8
						c0.4,0.5,1,0.9,1.5,1.1s1.2,0.4,1.9,0.4c0.7,0,1.3-0.1,1.9-0.4s1.1-0.6,1.5-1.1c0.4-0.5,0.8-1.1,1-1.8c0.2-0.7,0.4-1.6,0.4-2.5
						c0-0.9-0.1-1.8-0.4-2.5c-0.2-0.7-0.6-1.3-1-1.8c-0.4-0.5-1-0.9-1.5-1.1c-0.6-0.3-1.2-0.4-1.9-0.4c-0.7,0-1.3,0.1-1.9,0.4
						c-0.6,0.3-1.1,0.6-1.5,1.1c-0.4,0.5-0.8,1.1-1,1.8c-0.2,0.7-0.4,1.6-0.4,2.5C337.7,454.7,337.8,455.6,338.1,456.3z"/>
					<path fill="#014747" d="M356.1,446v2.3h0.1c1.2-1.8,2.8-2.6,5-2.6c1,0,1.8,0.2,2.6,0.6c0.8,0.4,1.3,1.1,1.7,2
						c0.5-0.8,1.2-1.5,2.1-1.9c0.8-0.5,1.8-0.7,2.8-0.7c0.8,0,1.5,0.1,2.1,0.3s1.2,0.4,1.6,0.8c0.5,0.4,0.8,0.8,1,1.4
						c0.2,0.6,0.4,1.3,0.4,2.1v11.4h-2.5v-10.2c0-0.5,0-0.9-0.1-1.3s-0.2-0.8-0.5-1.1c-0.2-0.3-0.5-0.6-0.9-0.7
						c-0.4-0.2-0.9-0.3-1.5-0.3c-1.3,0-2.2,0.4-3,1.1s-1.1,1.7-1.1,2.9v9.7h-2.5v-10.2c0-0.5,0-1-0.1-1.4c-0.1-0.4-0.2-0.8-0.5-1.1
						s-0.5-0.6-0.9-0.7s-0.8-0.3-1.4-0.3c-0.7,0-1.4,0.1-1.9,0.5c-0.5,0.3-1,0.7-1.3,1.1s-0.6,0.9-0.7,1.3c-0.2,0.5-0.2,0.8-0.2,1.1
						v9.7h-2.6V446H356.1z"/>
				</g>
			</g>
		</g>
	</g>
</g>
</svg>
