<!-- Generator: Adobe Illustrator 20.1.0, SVG Export Plug-In  -->
<svg version="1.1"
	 xmlns="http://www.w3.org/2000/svg" xmlns:xlink="http://www.w3.org/1999/xlink" xmlns:a="http://ns.adobe.com/AdobeSVGViewerExtensions/3.0/"
	 x="0px" y="0px" width="533.7px" height="81px" viewBox="0 0 533.7 81" enable-background="new 0 0 533.7 81" xml:space="preserve"
	>
<defs>
</defs>
<g>
	<path fill="#014747" d="M62.3,0h23.1v4.3h-9.1v24.2h-5V4.3h-9V0z"/>
	<path fill="#014747" d="M93.9,29.1c-1.7,0-3.1-0.3-4.4-0.8c-1.3-0.5-2.4-1.3-3.3-2.3c-0.9-1-1.6-2.1-2-3.4
		c-0.5-1.3-0.7-2.8-0.7-4.4c0-1.6,0.2-3,0.7-4.4c0.5-1.3,1.1-2.5,2-3.4c0.9-1,2-1.7,3.3-2.3c1.3-0.5,2.8-0.8,4.4-0.8
		c1.7,0,3.1,0.3,4.4,0.8s2.4,1.3,3.3,2.3c0.9,1,1.6,2.1,2,3.4c0.5,1.3,0.7,2.8,0.7,4.4c0,1.6-0.2,3.1-0.7,4.4
		c-0.5,1.3-1.1,2.5-2,3.4c-0.9,1-2,1.7-3.3,2.3C97.1,28.8,95.6,29.1,93.9,29.1z M93.9,25.5c1,0,1.9-0.2,2.6-0.6
		c0.7-0.4,1.4-1,1.8-1.7c0.5-0.7,0.8-1.5,1.1-2.3c0.2-0.9,0.3-1.8,0.3-2.7c0-0.9-0.1-1.8-0.3-2.6s-0.6-1.7-1.1-2.3
		c-0.5-0.7-1.1-1.2-1.8-1.7c-0.7-0.4-1.6-0.6-2.6-0.6c-1,0-1.9,0.2-2.6,0.6c-0.7,0.4-1.4,1-1.8,1.7c-0.5,0.7-0.8,1.5-1.1,2.3
		s-0.3,1.8-0.3,2.6c0,0.9,0.1,1.8,0.3,2.7c0.2,0.9,0.6,1.6,1.1,2.3c0.5,0.7,1.1,1.3,1.8,1.7C92.1,25.3,92.9,25.5,93.9,25.5z"/>
	<path fill="#014747" d="M128.5,28.6h-4.3v-2.8h-0.1c-0.6,1.2-1.5,2.1-2.7,2.6c-1.2,0.5-2.4,0.8-3.7,0.8c-1.6,0-3-0.3-4.3-0.9
		c-1.2-0.6-2.2-1.4-3-2.3c-0.8-1-1.4-2.2-1.8-3.5c-0.4-1.3-0.6-2.8-0.6-4.3c0-1.9,0.3-3.5,0.8-4.8c0.5-1.4,1.2-2.5,2-3.4
		c0.8-0.9,1.8-1.5,2.9-1.9c1.1-0.4,2.2-0.6,3.3-0.6c0.6,0,1.3,0.1,2,0.2s1.3,0.3,1.9,0.6c0.6,0.3,1.2,0.6,1.7,1s1,0.9,1.3,1.5h0.1V0
		h4.6V28.6z M112.5,18.4c0,0.9,0.1,1.7,0.3,2.6c0.2,0.9,0.6,1.6,1,2.3c0.5,0.7,1.1,1.2,1.8,1.6c0.7,0.4,1.6,0.6,2.6,0.6
		c1,0,1.9-0.2,2.6-0.6c0.7-0.4,1.3-1,1.8-1.7c0.5-0.7,0.8-1.5,1-2.3c0.2-0.9,0.3-1.8,0.3-2.7c0-2.3-0.5-4.1-1.5-5.4
		c-1-1.3-2.4-1.9-4.2-1.9c-1.1,0-2,0.2-2.7,0.7c-0.7,0.4-1.3,1-1.8,1.7c-0.5,0.7-0.8,1.5-1,2.4C112.6,16.6,112.5,17.5,112.5,18.4z"
		/>
	<path fill="#014747" d="M151.5,24c0,0.6,0.1,1,0.2,1.2c0.1,0.2,0.4,0.4,0.9,0.4c0.1,0,0.3,0,0.5,0s0.4,0,0.6-0.1v3.2
		c-0.2,0.1-0.4,0.1-0.6,0.2s-0.5,0.1-0.8,0.2c-0.3,0.1-0.5,0.1-0.8,0.1c-0.3,0-0.5,0-0.7,0c-0.9,0-1.7-0.2-2.3-0.6
		c-0.6-0.4-1-1-1.2-2c-0.9,0.9-2,1.5-3.3,1.9c-1.3,0.4-2.6,0.6-3.8,0.6c-0.9,0-1.8-0.1-2.7-0.4c-0.9-0.3-1.6-0.6-2.3-1.1
		c-0.7-0.5-1.2-1.1-1.6-1.9c-0.4-0.8-0.6-1.6-0.6-2.7c0-1.3,0.2-2.3,0.7-3.1c0.5-0.8,1.1-1.4,1.8-1.9c0.8-0.5,1.6-0.8,2.6-1
		c0.9-0.2,1.9-0.4,2.9-0.5c0.8-0.2,1.6-0.3,2.4-0.3c0.7-0.1,1.4-0.2,2-0.3c0.6-0.2,1-0.4,1.4-0.7c0.3-0.3,0.5-0.8,0.5-1.5
		c0-0.6-0.1-1.1-0.4-1.4c-0.3-0.4-0.6-0.7-1-0.9c-0.4-0.2-0.9-0.3-1.4-0.4c-0.5-0.1-1-0.1-1.4-0.1c-1.3,0-2.3,0.3-3.2,0.8
		c-0.8,0.5-1.3,1.4-1.4,2.5h-4.6c0.1-1.3,0.4-2.4,1-3.3c0.6-0.9,1.3-1.6,2.1-2.1c0.9-0.5,1.8-0.9,2.9-1.1c1.1-0.2,2.2-0.3,3.4-0.3
		c1,0,2,0.1,3,0.3c1,0.2,1.9,0.6,2.7,1c0.8,0.5,1.4,1.1,1.9,1.9c0.5,0.8,0.7,1.7,0.7,2.8V24z M147,18.2c-0.7,0.5-1.5,0.7-2.6,0.8
		c-1,0.1-2,0.2-3,0.4c-0.5,0.1-0.9,0.2-1.4,0.3c-0.5,0.1-0.9,0.3-1.2,0.6c-0.3,0.3-0.6,0.6-0.8,1c-0.2,0.4-0.3,0.9-0.3,1.5
		c0,0.5,0.1,0.9,0.4,1.3c0.3,0.3,0.6,0.6,1.1,0.8c0.4,0.2,0.9,0.3,1.4,0.4c0.5,0.1,0.9,0.1,1.3,0.1c0.5,0,1.1-0.1,1.6-0.2
		c0.6-0.1,1.1-0.4,1.7-0.7c0.5-0.3,1-0.7,1.3-1.2c0.3-0.5,0.5-1.1,0.5-1.8V18.2z"/>
	<path fill="#014747" d="M155,7.9h5l5.4,15.4h0.1l5.2-15.4h4.8l-8,21.8c-0.4,0.9-0.7,1.8-1.1,2.7s-0.8,1.6-1.3,2.3s-1.2,1.2-1.9,1.6
		c-0.8,0.4-1.8,0.6-3,0.6c-1.1,0-2.1-0.1-3.2-0.2v-3.8c0.4,0.1,0.7,0.1,1.1,0.2c0.3,0.1,0.7,0.1,1.1,0.1c0.5,0,1-0.1,1.3-0.2
		c0.3-0.1,0.6-0.3,0.9-0.6c0.2-0.3,0.4-0.6,0.6-0.9s0.3-0.7,0.4-1.2l0.5-1.6L155,7.9z"/>
	<path fill="#014747" d="M175.5,23.2h5.6v5.4c0,1.7-0.5,3-1.5,4.2c-1,1.1-2.3,1.8-3.9,2.2v-2.4c0.9-0.2,1.5-0.7,2-1.5
		s0.6-1.6,0.6-2.4h-2.8V23.2z"/>
	<path fill="#014747" d="M199.6,0h11.8c2.2,0,4.1,0.4,5.7,1.1c1.6,0.7,2.9,1.8,3.9,3.1c1,1.3,1.8,2.8,2.3,4.5
		c0.5,1.7,0.7,3.6,0.7,5.6c0,2-0.2,3.8-0.7,5.6c-0.5,1.7-1.2,3.2-2.3,4.5c-1,1.3-2.3,2.3-3.9,3.1c-1.6,0.7-3.5,1.1-5.7,1.1h-11.8V0z
		 M204.6,24.5h4.9c1.9,0,3.5-0.3,4.8-0.8c1.2-0.5,2.2-1.2,2.9-2.2c0.7-0.9,1.2-2,1.4-3.2c0.3-1.2,0.4-2.6,0.4-4s-0.1-2.8-0.4-4
		c-0.3-1.2-0.7-2.3-1.4-3.2c-0.7-0.9-1.7-1.6-2.9-2.2c-1.2-0.5-2.8-0.8-4.8-0.8h-4.9V24.5z"/>
	<path fill="#014747" d="M232.2,19.4c0,0.8,0.1,1.6,0.3,2.3c0.2,0.7,0.6,1.4,1,2c0.5,0.6,1,1,1.7,1.3c0.7,0.3,1.5,0.5,2.5,0.5
		c1.3,0,2.4-0.3,3.2-0.9c0.8-0.6,1.4-1.4,1.8-2.6h4.3c-0.2,1.1-0.7,2.1-1.2,3c-0.6,0.9-1.3,1.6-2.1,2.2c-0.8,0.6-1.8,1.1-2.8,1.4
		c-1,0.3-2.1,0.5-3.2,0.5c-1.6,0-3.1-0.3-4.3-0.8c-1.3-0.5-2.3-1.3-3.2-2.2c-0.9-1-1.5-2.1-2-3.4s-0.7-2.8-0.7-4.4
		c0-1.5,0.2-2.9,0.7-4.2c0.5-1.3,1.1-2.5,2-3.5c0.9-1,1.9-1.8,3.1-2.4c1.2-0.6,2.6-0.9,4.2-0.9c1.6,0,3.1,0.3,4.4,1
		c1.3,0.7,2.4,1.6,3.2,2.7c0.9,1.1,1.5,2.4,1.9,3.9c0.4,1.5,0.5,3,0.3,4.5H232.2z M242.9,16.4c-0.1-0.7-0.2-1.4-0.5-2.1
		c-0.3-0.7-0.6-1.2-1-1.7c-0.4-0.5-1-0.9-1.6-1.2c-0.6-0.3-1.3-0.5-2.1-0.5c-0.8,0-1.5,0.1-2.2,0.4c-0.7,0.3-1.2,0.7-1.7,1.2
		c-0.5,0.5-0.8,1.1-1.1,1.7c-0.3,0.7-0.4,1.4-0.5,2.2H242.9z"/>
	<path fill="#014747" d="M265.7,14.8c-0.2-1.3-0.7-2.2-1.5-2.9c-0.8-0.7-1.9-1-3.2-1c-0.6,0-1.2,0.1-1.9,0.3
		c-0.7,0.2-1.3,0.6-1.8,1.1c-0.6,0.5-1,1.3-1.4,2.3c-0.4,1-0.6,2.2-0.6,3.8c0,0.9,0.1,1.7,0.3,2.6c0.2,0.9,0.5,1.6,1,2.3
		c0.4,0.7,1,1.2,1.7,1.6c0.7,0.4,1.5,0.6,2.5,0.6c1.3,0,2.4-0.4,3.3-1.2c0.9-0.8,1.4-2,1.6-3.5h4.6c-0.4,2.7-1.4,4.8-3.1,6.2
		c-1.6,1.4-3.8,2.1-6.4,2.1c-1.6,0-3.1-0.3-4.3-0.8c-1.2-0.5-2.3-1.3-3.1-2.2c-0.9-0.9-1.5-2.1-1.9-3.4s-0.7-2.7-0.7-4.2
		c0-1.5,0.2-3,0.6-4.4c0.4-1.4,1.1-2.5,1.9-3.5c0.9-1,1.9-1.8,3.2-2.4c1.3-0.6,2.8-0.9,4.5-0.9c1.2,0,2.3,0.2,3.4,0.5s2,0.8,2.9,1.4
		c0.8,0.6,1.5,1.4,2.1,2.3c0.5,0.9,0.9,2,1,3.3H265.7z"/>
	<path fill="#014747" d="M278.3,19.4c0,0.8,0.1,1.6,0.3,2.3c0.2,0.7,0.6,1.4,1,2c0.5,0.6,1,1,1.7,1.3c0.7,0.3,1.5,0.5,2.5,0.5
		c1.3,0,2.4-0.3,3.2-0.9c0.8-0.6,1.4-1.4,1.8-2.6h4.3c-0.2,1.1-0.7,2.1-1.2,3c-0.6,0.9-1.3,1.6-2.1,2.2c-0.8,0.6-1.8,1.1-2.8,1.4
		c-1,0.3-2.1,0.5-3.2,0.5c-1.6,0-3.1-0.3-4.3-0.8c-1.3-0.5-2.3-1.3-3.2-2.2c-0.9-1-1.5-2.1-2-3.4s-0.7-2.8-0.7-4.4
		c0-1.5,0.2-2.9,0.7-4.2c0.5-1.3,1.1-2.5,2-3.5c0.9-1,1.9-1.8,3.1-2.4c1.2-0.6,2.6-0.9,4.2-0.9c1.6,0,3.1,0.3,4.4,1
		c1.3,0.7,2.4,1.6,3.2,2.7c0.9,1.1,1.5,2.4,1.9,3.9c0.4,1.5,0.5,3,0.3,4.5H278.3z M288.9,16.4c-0.1-0.7-0.2-1.4-0.5-2.1
		c-0.3-0.7-0.6-1.2-1-1.7c-0.4-0.5-1-0.9-1.6-1.2c-0.6-0.3-1.3-0.5-2.1-0.5c-0.8,0-1.5,0.1-2.2,0.4c-0.7,0.3-1.2,0.7-1.7,1.2
		c-0.5,0.5-0.8,1.1-1.1,1.7c-0.3,0.7-0.4,1.4-0.5,2.2H288.9z"/>
	<path fill="#014747" d="M297.8,7.9h4.3v2.9h0.1c0.3-0.5,0.7-1,1.1-1.4s0.8-0.8,1.3-1.1c0.5-0.3,1.1-0.5,1.7-0.7
		c0.6-0.2,1.4-0.3,2.2-0.3c1.3,0,2.4,0.3,3.5,0.8c1.1,0.6,1.8,1.4,2.3,2.6c0.8-1.1,1.7-1.9,2.7-2.5c1-0.6,2.3-0.9,3.8-0.9
		c2.2,0,3.9,0.5,5.1,1.6c1.2,1.1,1.8,2.9,1.8,5.4v14.3h-4.6V16.5c0-0.8,0-1.6-0.1-2.3c-0.1-0.7-0.2-1.3-0.5-1.8
		c-0.3-0.5-0.6-0.9-1.1-1.1c-0.5-0.3-1.2-0.4-2.1-0.4c-1.5,0-2.7,0.5-3.4,1.4c-0.7,1-1,2.3-1,4.1v12.1h-4.6V15.3
		c0-1.4-0.3-2.5-0.8-3.3s-1.5-1.1-2.9-1.1c-0.6,0-1.2,0.1-1.7,0.4c-0.5,0.2-1,0.6-1.4,1c-0.4,0.5-0.7,1-1,1.7
		c-0.3,0.7-0.4,1.4-0.4,2.3v12.3h-4.6V7.9z"/>
	<path fill="#014747" d="M333.5,0h4.6v10.6h0.1c0.3-0.5,0.7-1,1.2-1.4c0.5-0.4,1-0.7,1.5-1c0.5-0.3,1.1-0.5,1.7-0.6
		c0.6-0.1,1.2-0.2,1.8-0.2c1.6,0,3,0.3,4.3,0.9c1.2,0.6,2.2,1.4,3,2.4c0.8,1,1.4,2.2,1.8,3.5c0.4,1.3,0.6,2.8,0.6,4.3
		c0,1.4-0.2,2.7-0.5,4s-0.9,2.5-1.6,3.5s-1.7,1.8-2.8,2.4c-1.1,0.6-2.4,0.9-4,0.9c-0.7,0-1.4,0-2.1-0.1c-0.7-0.1-1.4-0.3-2-0.5
		s-1.2-0.6-1.7-1s-1-1-1.3-1.7h-0.1v2.8h-4.3V0z M349.4,18.2c0-0.9-0.1-1.8-0.4-2.7c-0.2-0.9-0.6-1.7-1.1-2.3
		c-0.5-0.7-1.1-1.2-1.8-1.6c-0.7-0.4-1.5-0.6-2.5-0.6c-1.9,0-3.4,0.7-4.3,2c-1,1.3-1.5,3.1-1.5,5.3c0,1,0.1,2,0.4,2.9
		s0.6,1.7,1.1,2.3c0.5,0.6,1.1,1.1,1.8,1.5c0.7,0.4,1.5,0.6,2.5,0.6c1,0,1.9-0.2,2.6-0.6c0.7-0.4,1.3-1,1.8-1.7
		c0.5-0.7,0.8-1.5,1-2.3C349.3,20,349.4,19.1,349.4,18.2z"/>
	<path fill="#014747" d="M362.2,19.4c0,0.8,0.1,1.6,0.3,2.3c0.2,0.7,0.6,1.4,1,2c0.5,0.6,1,1,1.7,1.3c0.7,0.3,1.5,0.5,2.5,0.5
		c1.3,0,2.4-0.3,3.2-0.9c0.8-0.6,1.4-1.4,1.8-2.6h4.3c-0.2,1.1-0.7,2.1-1.2,3c-0.6,0.9-1.3,1.6-2.1,2.2c-0.8,0.6-1.8,1.1-2.8,1.4
		c-1,0.3-2.1,0.5-3.2,0.5c-1.6,0-3.1-0.3-4.3-0.8c-1.3-0.5-2.3-1.3-3.2-2.2c-0.9-1-1.5-2.1-2-3.4s-0.7-2.8-0.7-4.4
		c0-1.5,0.2-2.9,0.7-4.2c0.5-1.3,1.1-2.5,2-3.5c0.9-1,1.9-1.8,3.1-2.4c1.2-0.6,2.6-0.9,4.2-0.9c1.6,0,3.1,0.3,4.4,1
		c1.3,0.7,2.4,1.6,3.2,2.7c0.9,1.1,1.5,2.4,1.9,3.9c0.4,1.5,0.5,3,0.3,4.5H362.2z M372.8,16.4c-0.1-0.7-0.2-1.4-0.5-2.1
		c-0.3-0.7-0.6-1.2-1-1.7c-0.4-0.5-1-0.9-1.6-1.2c-0.6-0.3-1.3-0.5-2.1-0.5c-0.8,0-1.5,0.1-2.2,0.4c-0.7,0.3-1.2,0.7-1.7,1.2
		c-0.5,0.5-0.8,1.1-1.1,1.7c-0.3,0.7-0.4,1.4-0.5,2.2H372.8z"/>
	<path fill="#014747" d="M381.7,7.9h4.3v4h0.1c0.1-0.6,0.4-1.1,0.8-1.6c0.4-0.5,0.9-1,1.4-1.5c0.5-0.4,1.2-0.8,1.8-1.1
		s1.3-0.4,2-0.4c0.5,0,0.9,0,1.1,0c0.2,0,0.4,0.1,0.6,0.1v4.4c-0.3-0.1-0.6-0.1-1-0.1c-0.3,0-0.7-0.1-1-0.1c-0.8,0-1.5,0.2-2.2,0.5
		c-0.7,0.3-1.3,0.8-1.8,1.4c-0.5,0.6-0.9,1.3-1.2,2.2s-0.4,1.9-0.4,3v9.8h-4.6V7.9z"/>
	<path fill="#014747" d="M415.2,12.2c0.7,0,1.5,0,2.2-0.2c0.7-0.1,1.4-0.4,2-0.7c0.6-0.3,1.1-0.8,1.4-1.4c0.4-0.6,0.5-1.3,0.5-2.2
		c0-1.2-0.4-2.2-1.2-2.9c-0.8-0.7-1.9-1.1-3.1-1.1c-0.8,0-1.5,0.2-2.1,0.5c-0.6,0.3-1.1,0.8-1.5,1.3c-0.4,0.5-0.7,1.2-0.9,1.8
		c-0.2,0.7-0.3,1.4-0.2,2.1h-4.6c0.1-1.4,0.3-2.6,0.8-3.8c0.5-1.2,1.1-2.2,1.9-3c0.8-0.9,1.7-1.5,2.9-2c1.1-0.5,2.4-0.7,3.8-0.7
		c1.1,0,2.2,0.2,3.2,0.5c1.1,0.3,2,0.8,2.8,1.4c0.8,0.6,1.5,1.4,2,2.3c0.5,0.9,0.8,2,0.8,3.3c0,1.4-0.3,2.6-1,3.7s-1.6,1.8-3,2.3
		v0.1c1.6,0.3,2.8,1.1,3.7,2.4c0.9,1.3,1.3,2.8,1.3,4.6c0,1.3-0.3,2.5-0.8,3.6c-0.5,1.1-1.3,1.9-2.2,2.7c-0.9,0.7-2,1.3-3.2,1.7
		c-1.2,0.4-2.5,0.6-3.8,0.6c-1.6,0-3-0.2-4.3-0.7c-1.2-0.5-2.2-1.1-3-2s-1.4-1.9-1.9-3.1c-0.4-1.2-0.7-2.5-0.7-4h4.6
		c-0.1,1.7,0.4,3.1,1.3,4.3c0.9,1.1,2.2,1.7,4,1.7c1.5,0,2.8-0.4,3.8-1.3c1-0.9,1.5-2.1,1.5-3.7c0-1.1-0.2-2-0.6-2.6
		c-0.4-0.6-1-1.1-1.7-1.5c-0.7-0.3-1.5-0.5-2.3-0.6s-1.8-0.1-2.7-0.1V12.2z"/>
	<path fill="#014747" d="M431.5,7.9h4.3v4h0.1c0.1-0.6,0.4-1.1,0.8-1.6c0.4-0.5,0.9-1,1.4-1.5c0.5-0.4,1.2-0.8,1.8-1.1
		s1.3-0.4,2-0.4c0.5,0,0.9,0,1.1,0c0.2,0,0.4,0.1,0.6,0.1v4.4c-0.3-0.1-0.6-0.1-1-0.1c-0.3,0-0.7-0.1-1-0.1c-0.8,0-1.5,0.2-2.2,0.5
		c-0.7,0.3-1.3,0.8-1.8,1.4c-0.5,0.6-0.9,1.3-1.2,2.2s-0.4,1.9-0.4,3v9.8h-4.6V7.9z"/>
	<path fill="#014747" d="M465.1,28.6h-4.3v-2.8h-0.1c-0.6,1.2-1.5,2.1-2.7,2.6c-1.2,0.5-2.4,0.8-3.7,0.8c-1.6,0-3-0.3-4.3-0.9
		c-1.2-0.6-2.2-1.4-3-2.3c-0.8-1-1.4-2.2-1.8-3.5c-0.4-1.3-0.6-2.8-0.6-4.3c0-1.9,0.3-3.5,0.8-4.8c0.5-1.4,1.2-2.5,2-3.4
		c0.8-0.9,1.8-1.5,2.9-1.9c1.1-0.4,2.2-0.6,3.3-0.6c0.6,0,1.3,0.1,2,0.2s1.3,0.3,1.9,0.6c0.6,0.3,1.2,0.6,1.7,1s1,0.9,1.3,1.5h0.1V0
		h4.6V28.6z M449.2,18.4c0,0.9,0.1,1.7,0.3,2.6c0.2,0.9,0.6,1.6,1,2.3c0.5,0.7,1.1,1.2,1.8,1.6c0.7,0.4,1.6,0.6,2.6,0.6
		c1,0,1.9-0.2,2.6-0.6c0.7-0.4,1.3-1,1.8-1.7c0.5-0.7,0.8-1.5,1-2.3c0.2-0.9,0.3-1.8,0.3-2.7c0-2.3-0.5-4.1-1.5-5.4
		c-1-1.3-2.4-1.9-4.2-1.9c-1.1,0-2,0.2-2.7,0.7c-0.7,0.4-1.3,1-1.8,1.7c-0.5,0.7-0.8,1.5-1,2.4C449.3,16.6,449.2,17.5,449.2,18.4z"
		/>
</g>
<line fill="none" stroke="#76A8AB" stroke-width="10" stroke-miterlimit="10" x1="0" y1="76" x2="533.7" y2="76"/>
</svg>
