<!-- Generator: Adobe Illustrator 20.1.0, SVG Export Plug-In  -->
<svg version="1.1"
	 xmlns="http://www.w3.org/2000/svg" xmlns:xlink="http://www.w3.org/1999/xlink" xmlns:a="http://ns.adobe.com/AdobeSVGViewerExtensions/3.0/"
	 x="0px" y="0px" width="533.7px" height="81px" viewBox="0 0 533.7 81" enable-background="new 0 0 533.7 81" xml:space="preserve"
	>
<defs>
</defs>
<g>
	<path fill="#014747" d="M28.1,0h23.1v4.3h-9.1v24.2h-5V4.3h-9V0z"/>
	<path fill="#014747" d="M59.7,29.1c-1.7,0-3.1-0.3-4.4-0.8C54,27.8,52.9,27,52,26c-0.9-1-1.6-2.1-2-3.4c-0.5-1.3-0.7-2.8-0.7-4.4
		c0-1.6,0.2-3,0.7-4.4c0.5-1.3,1.1-2.5,2-3.4c0.9-1,2-1.7,3.3-2.3c1.3-0.5,2.8-0.8,4.4-0.8c1.7,0,3.1,0.3,4.4,0.8
		c1.3,0.5,2.4,1.3,3.3,2.3c0.9,1,1.6,2.1,2,3.4c0.5,1.3,0.7,2.8,0.7,4.4c0,1.6-0.2,3.1-0.7,4.4c-0.5,1.3-1.1,2.5-2,3.4
		c-0.9,1-2,1.7-3.3,2.3C62.9,28.8,61.4,29.1,59.7,29.1z M59.7,25.5c1,0,1.9-0.2,2.6-0.6c0.7-0.4,1.4-1,1.8-1.7
		c0.5-0.7,0.8-1.5,1.1-2.3s0.3-1.8,0.3-2.7c0-0.9-0.1-1.8-0.3-2.6c-0.2-0.9-0.6-1.7-1.1-2.3c-0.5-0.7-1.1-1.2-1.8-1.7
		c-0.7-0.4-1.6-0.6-2.6-0.6c-1,0-1.9,0.2-2.6,0.6c-0.7,0.4-1.4,1-1.8,1.7s-0.8,1.5-1.1,2.3c-0.2,0.9-0.3,1.8-0.3,2.6
		c0,0.9,0.1,1.8,0.3,2.7s0.6,1.6,1.1,2.3s1.1,1.3,1.8,1.7C57.8,25.3,58.7,25.5,59.7,25.5z"/>
	<path fill="#014747" d="M74.8,7.9h4.3v2.9h0.1c0.3-0.5,0.7-1,1.1-1.4s0.8-0.8,1.3-1.1c0.5-0.3,1.1-0.5,1.7-0.7
		c0.6-0.2,1.4-0.3,2.2-0.3c1.3,0,2.4,0.3,3.5,0.8c1.1,0.6,1.8,1.4,2.3,2.6C92.1,9.7,93,8.9,94,8.2c1-0.6,2.3-0.9,3.8-0.9
		c2.2,0,3.9,0.5,5.1,1.6c1.2,1.1,1.8,2.9,1.8,5.4v14.3h-4.6V16.5c0-0.8,0-1.6-0.1-2.3c-0.1-0.7-0.2-1.3-0.5-1.8
		c-0.3-0.5-0.6-0.9-1.1-1.1c-0.5-0.3-1.2-0.4-2.1-0.4c-1.5,0-2.7,0.5-3.4,1.4c-0.7,1-1,2.3-1,4.1v12.1h-4.6V15.3
		c0-1.4-0.3-2.5-0.8-3.3s-1.5-1.1-2.9-1.1c-0.6,0-1.2,0.1-1.7,0.4c-0.5,0.2-1,0.6-1.4,1c-0.4,0.5-0.7,1-1,1.7
		c-0.3,0.7-0.4,1.4-0.4,2.3v12.3h-4.6V7.9z"/>
	<path fill="#014747" d="M119.8,29.1c-1.7,0-3.1-0.3-4.4-0.8c-1.3-0.5-2.4-1.3-3.3-2.3c-0.9-1-1.6-2.1-2-3.4
		c-0.5-1.3-0.7-2.8-0.7-4.4c0-1.6,0.2-3,0.7-4.4c0.5-1.3,1.1-2.5,2-3.4c0.9-1,2-1.7,3.3-2.3c1.3-0.5,2.8-0.8,4.4-0.8
		c1.7,0,3.1,0.3,4.4,0.8c1.3,0.5,2.4,1.3,3.3,2.3c0.9,1,1.6,2.1,2,3.4c0.5,1.3,0.7,2.8,0.7,4.4c0,1.6-0.2,3.1-0.7,4.4
		c-0.5,1.3-1.1,2.5-2,3.4c-0.9,1-2,1.7-3.3,2.3C123,28.8,121.5,29.1,119.8,29.1z M119.8,25.5c1,0,1.9-0.2,2.6-0.6
		c0.7-0.4,1.4-1,1.8-1.7s0.8-1.5,1.1-2.3s0.3-1.8,0.3-2.7c0-0.9-0.1-1.8-0.3-2.6c-0.2-0.9-0.6-1.7-1.1-2.3s-1.1-1.2-1.8-1.7
		c-0.7-0.4-1.6-0.6-2.6-0.6c-1,0-1.9,0.2-2.6,0.6c-0.7,0.4-1.4,1-1.8,1.7s-0.8,1.5-1.1,2.3c-0.2,0.9-0.3,1.8-0.3,2.6
		c0,0.9,0.1,1.8,0.3,2.7s0.6,1.6,1.1,2.3s1.1,1.3,1.8,1.7C118,25.3,118.8,25.5,119.8,25.5z"/>
	<path fill="#014747" d="M134.9,7.9h4.3v4h0.1c0.1-0.6,0.4-1.1,0.8-1.6c0.4-0.5,0.9-1,1.4-1.5c0.5-0.4,1.2-0.8,1.8-1.1
		c0.7-0.3,1.3-0.4,2-0.4c0.5,0,0.9,0,1.1,0c0.2,0,0.4,0.1,0.6,0.1v4.4c-0.3-0.1-0.6-0.1-1-0.1c-0.3,0-0.7-0.1-1-0.1
		c-0.8,0-1.5,0.2-2.2,0.5c-0.7,0.3-1.3,0.8-1.8,1.4c-0.5,0.6-0.9,1.3-1.2,2.2c-0.3,0.9-0.4,1.9-0.4,3v9.8h-4.6V7.9z"/>
	<path fill="#014747" d="M149.8,7.9h4.3v4h0.1c0.1-0.6,0.4-1.1,0.8-1.6c0.4-0.5,0.9-1,1.4-1.5c0.5-0.4,1.2-0.8,1.8-1.1
		c0.7-0.3,1.3-0.4,2-0.4c0.5,0,0.9,0,1.1,0c0.2,0,0.4,0.1,0.6,0.1v4.4c-0.3-0.1-0.6-0.1-1-0.1c-0.3,0-0.7-0.1-1-0.1
		c-0.8,0-1.5,0.2-2.2,0.5c-0.7,0.3-1.3,0.8-1.8,1.4c-0.5,0.6-0.9,1.3-1.2,2.2c-0.3,0.9-0.4,1.9-0.4,3v9.8h-4.6V7.9z"/>
	<path fill="#014747" d="M173.4,29.1c-1.7,0-3.1-0.3-4.4-0.8c-1.3-0.5-2.4-1.3-3.3-2.3c-0.9-1-1.6-2.1-2-3.4
		c-0.5-1.3-0.7-2.8-0.7-4.4c0-1.6,0.2-3,0.7-4.4c0.5-1.3,1.1-2.5,2-3.4c0.9-1,2-1.7,3.3-2.3c1.3-0.5,2.8-0.8,4.4-0.8
		c1.7,0,3.1,0.3,4.4,0.8c1.3,0.5,2.4,1.3,3.3,2.3c0.9,1,1.6,2.1,2,3.4c0.5,1.3,0.7,2.8,0.7,4.4c0,1.6-0.2,3.1-0.7,4.4
		c-0.5,1.3-1.1,2.5-2,3.4c-0.9,1-2,1.7-3.3,2.3C176.5,28.8,175.1,29.1,173.4,29.1z M173.4,25.5c1,0,1.9-0.2,2.6-0.6
		c0.7-0.4,1.4-1,1.8-1.7s0.8-1.5,1.1-2.3s0.3-1.8,0.3-2.7c0-0.9-0.1-1.8-0.3-2.6c-0.2-0.9-0.6-1.7-1.1-2.3s-1.1-1.2-1.8-1.7
		c-0.7-0.4-1.6-0.6-2.6-0.6c-1,0-1.9,0.2-2.6,0.6c-0.7,0.4-1.4,1-1.8,1.7s-0.8,1.5-1.1,2.3c-0.2,0.9-0.3,1.8-0.3,2.6
		c0,0.9,0.1,1.8,0.3,2.7s0.6,1.6,1.1,2.3s1.1,1.3,1.8,1.7C171.5,25.3,172.4,25.5,173.4,25.5z"/>
	<path fill="#014747" d="M186.6,7.9h4.8l4,15.4h0.1l3.9-15.4h4.6l3.7,15.4h0.1L212,7.9h4.6l-6.5,20.7h-4.7l-3.8-15.4h-0.1l-3.8,15.4
		H193L186.6,7.9z"/>
	<path fill="#014747" d="M218.5,23.2h5.6v5.4c0,1.7-0.5,3-1.5,4.2c-1,1.1-2.3,1.8-3.9,2.2v-2.4c0.9-0.2,1.5-0.7,2-1.5
		c0.4-0.8,0.6-1.6,0.6-2.4h-2.8V23.2z"/>
	<path fill="#014747" d="M242.6,0h11.8c2.2,0,4.1,0.4,5.7,1.1s2.9,1.8,3.9,3.1c1,1.3,1.8,2.8,2.3,4.5c0.5,1.7,0.7,3.6,0.7,5.6
		c0,2-0.2,3.8-0.7,5.6c-0.5,1.7-1.2,3.2-2.3,4.5c-1,1.3-2.3,2.3-3.9,3.1s-3.5,1.1-5.7,1.1h-11.8V0z M247.6,24.5h4.9
		c1.9,0,3.5-0.3,4.8-0.8c1.2-0.5,2.2-1.2,2.9-2.2c0.7-0.9,1.2-2,1.4-3.2c0.3-1.2,0.4-2.6,0.4-4c0-1.4-0.1-2.8-0.4-4
		C261.4,9,261,7.9,260.3,7c-0.7-0.9-1.7-1.6-2.9-2.2c-1.2-0.5-2.8-0.8-4.8-0.8h-4.9V24.5z"/>
	<path fill="#014747" d="M275.2,19.4c0,0.8,0.1,1.6,0.3,2.3c0.2,0.7,0.6,1.4,1,2c0.5,0.6,1,1,1.7,1.3c0.7,0.3,1.5,0.5,2.5,0.5
		c1.3,0,2.4-0.3,3.2-0.9c0.8-0.6,1.4-1.4,1.8-2.6h4.3c-0.2,1.1-0.7,2.1-1.2,3c-0.6,0.9-1.3,1.6-2.1,2.2c-0.8,0.6-1.8,1.1-2.8,1.4
		c-1,0.3-2.1,0.5-3.2,0.5c-1.6,0-3.1-0.3-4.3-0.8c-1.3-0.5-2.3-1.3-3.2-2.2c-0.9-1-1.5-2.1-2-3.4c-0.4-1.3-0.7-2.8-0.7-4.4
		c0-1.5,0.2-2.9,0.7-4.2c0.5-1.3,1.1-2.5,2-3.5c0.9-1,1.9-1.8,3.1-2.4c1.2-0.6,2.6-0.9,4.2-0.9c1.6,0,3.1,0.3,4.4,1
		c1.3,0.7,2.4,1.6,3.2,2.7c0.9,1.1,1.5,2.4,1.9,3.9c0.4,1.5,0.5,3,0.3,4.5H275.2z M285.9,16.4c-0.1-0.7-0.2-1.4-0.5-2.1
		c-0.3-0.7-0.6-1.2-1-1.7s-1-0.9-1.6-1.2c-0.6-0.3-1.3-0.5-2.1-0.5c-0.8,0-1.5,0.1-2.2,0.4c-0.7,0.3-1.2,0.7-1.7,1.2
		c-0.5,0.5-0.8,1.1-1.1,1.7c-0.3,0.7-0.4,1.4-0.5,2.2H285.9z"/>
	<path fill="#014747" d="M308.7,14.8c-0.2-1.3-0.7-2.2-1.5-2.9c-0.8-0.7-1.9-1-3.2-1c-0.6,0-1.2,0.1-1.9,0.3
		c-0.7,0.2-1.3,0.6-1.8,1.1c-0.6,0.5-1,1.3-1.4,2.3c-0.4,1-0.6,2.2-0.6,3.8c0,0.9,0.1,1.7,0.3,2.6c0.2,0.9,0.5,1.6,1,2.3
		c0.4,0.7,1,1.2,1.7,1.6c0.7,0.4,1.5,0.6,2.5,0.6c1.3,0,2.4-0.4,3.3-1.2c0.9-0.8,1.4-2,1.6-3.5h4.6c-0.4,2.7-1.4,4.8-3.1,6.2
		c-1.6,1.4-3.8,2.1-6.4,2.1c-1.6,0-3.1-0.3-4.3-0.8c-1.2-0.5-2.3-1.3-3.1-2.2c-0.9-0.9-1.5-2.1-1.9-3.4s-0.7-2.7-0.7-4.2
		c0-1.5,0.2-3,0.6-4.4c0.4-1.4,1.1-2.5,1.9-3.5c0.9-1,1.9-1.8,3.2-2.4c1.3-0.6,2.8-0.9,4.5-0.9c1.2,0,2.3,0.2,3.4,0.5s2,0.8,2.9,1.4
		c0.8,0.6,1.5,1.4,2.1,2.3c0.5,0.9,0.9,2,1,3.3H308.7z"/>
	<path fill="#014747" d="M321.3,19.4c0,0.8,0.1,1.6,0.3,2.3c0.2,0.7,0.6,1.4,1,2c0.5,0.6,1,1,1.7,1.3c0.7,0.3,1.5,0.5,2.5,0.5
		c1.3,0,2.4-0.3,3.2-0.9c0.8-0.6,1.4-1.4,1.8-2.6h4.3c-0.2,1.1-0.7,2.1-1.2,3c-0.6,0.9-1.3,1.6-2.1,2.2c-0.8,0.6-1.8,1.1-2.8,1.4
		c-1,0.3-2.1,0.5-3.2,0.5c-1.6,0-3.1-0.3-4.3-0.8c-1.3-0.5-2.3-1.3-3.2-2.2c-0.9-1-1.5-2.1-2-3.4c-0.4-1.3-0.7-2.8-0.7-4.4
		c0-1.5,0.2-2.9,0.7-4.2c0.5-1.3,1.1-2.5,2-3.5c0.9-1,1.9-1.8,3.1-2.4c1.2-0.6,2.6-0.9,4.2-0.9c1.6,0,3.1,0.3,4.4,1
		c1.3,0.7,2.4,1.6,3.2,2.7c0.9,1.1,1.5,2.4,1.9,3.9c0.4,1.5,0.5,3,0.3,4.5H321.3z M332,16.4c-0.1-0.7-0.2-1.4-0.5-2.1
		c-0.3-0.7-0.6-1.2-1-1.7s-1-0.9-1.6-1.2c-0.6-0.3-1.3-0.5-2.1-0.5c-0.8,0-1.5,0.1-2.2,0.4c-0.7,0.3-1.2,0.7-1.7,1.2
		c-0.5,0.5-0.8,1.1-1.1,1.7c-0.3,0.7-0.4,1.4-0.5,2.2H332z"/>
	<path fill="#014747" d="M340.8,7.9h4.3v2.9h0.1c0.3-0.5,0.7-1,1.1-1.4s0.8-0.8,1.3-1.1c0.5-0.3,1.1-0.5,1.7-0.7
		c0.6-0.2,1.4-0.3,2.2-0.3c1.3,0,2.4,0.3,3.5,0.8c1.1,0.6,1.8,1.4,2.3,2.6c0.8-1.1,1.7-1.9,2.7-2.5c1-0.6,2.3-0.9,3.8-0.9
		c2.2,0,3.9,0.5,5.1,1.6c1.2,1.1,1.8,2.9,1.8,5.4v14.3h-4.6V16.5c0-0.8,0-1.6-0.1-2.3c-0.1-0.7-0.2-1.3-0.5-1.8
		c-0.3-0.5-0.6-0.9-1.1-1.1c-0.5-0.3-1.2-0.4-2.1-0.4c-1.5,0-2.7,0.5-3.4,1.4c-0.7,1-1,2.3-1,4.1v12.1h-4.6V15.3
		c0-1.4-0.3-2.5-0.8-3.3s-1.5-1.1-2.9-1.1c-0.6,0-1.2,0.1-1.7,0.4c-0.5,0.2-1,0.6-1.4,1c-0.4,0.5-0.7,1-1,1.7
		c-0.3,0.7-0.4,1.4-0.4,2.3v12.3h-4.6V7.9z"/>
	<path fill="#014747" d="M376.5,0h4.6v10.6h0.1c0.3-0.5,0.7-1,1.2-1.4c0.5-0.4,1-0.7,1.5-1c0.5-0.3,1.1-0.5,1.7-0.6s1.2-0.2,1.8-0.2
		c1.6,0,3,0.3,4.3,0.9c1.2,0.6,2.2,1.4,3,2.4c0.8,1,1.4,2.2,1.8,3.5c0.4,1.3,0.6,2.8,0.6,4.3c0,1.4-0.2,2.7-0.5,4s-0.9,2.5-1.6,3.5
		s-1.7,1.8-2.8,2.4s-2.4,0.9-4,0.9c-0.7,0-1.4,0-2.1-0.1c-0.7-0.1-1.4-0.3-2-0.5c-0.6-0.3-1.2-0.6-1.7-1c-0.5-0.4-1-1-1.3-1.7h-0.1
		v2.8h-4.3V0z M392.4,18.2c0-0.9-0.1-1.8-0.4-2.7c-0.2-0.9-0.6-1.7-1.1-2.3c-0.5-0.7-1.1-1.2-1.8-1.6c-0.7-0.4-1.5-0.6-2.5-0.6
		c-1.9,0-3.4,0.7-4.3,2c-1,1.3-1.5,3.1-1.5,5.3c0,1,0.1,2,0.4,2.9c0.3,0.9,0.6,1.7,1.1,2.3c0.5,0.6,1.1,1.1,1.8,1.5
		c0.7,0.4,1.5,0.6,2.5,0.6c1,0,1.9-0.2,2.6-0.6c0.7-0.4,1.3-1,1.8-1.7c0.5-0.7,0.8-1.5,1-2.3C392.3,20,392.4,19.1,392.4,18.2z"/>
	<path fill="#014747" d="M405.2,19.4c0,0.8,0.1,1.6,0.3,2.3c0.2,0.7,0.6,1.4,1,2c0.5,0.6,1,1,1.7,1.3c0.7,0.3,1.5,0.5,2.5,0.5
		c1.3,0,2.4-0.3,3.2-0.9c0.8-0.6,1.4-1.4,1.8-2.6h4.3c-0.2,1.1-0.7,2.1-1.2,3c-0.6,0.9-1.3,1.6-2.1,2.2c-0.8,0.6-1.8,1.1-2.8,1.4
		c-1,0.3-2.1,0.5-3.2,0.5c-1.6,0-3.1-0.3-4.3-0.8c-1.3-0.5-2.3-1.3-3.2-2.2c-0.9-1-1.5-2.1-2-3.4c-0.4-1.3-0.7-2.8-0.7-4.4
		c0-1.5,0.2-2.9,0.7-4.2c0.5-1.3,1.1-2.5,2-3.5c0.9-1,1.9-1.8,3.1-2.4c1.2-0.6,2.6-0.9,4.2-0.9c1.6,0,3.1,0.3,4.4,1
		c1.3,0.7,2.4,1.6,3.2,2.7c0.9,1.1,1.5,2.4,1.9,3.9c0.4,1.5,0.5,3,0.3,4.5H405.2z M415.8,16.4c-0.1-0.7-0.2-1.4-0.5-2.1
		c-0.3-0.7-0.6-1.2-1-1.7s-1-0.9-1.6-1.2c-0.6-0.3-1.3-0.5-2.1-0.5c-0.8,0-1.5,0.1-2.2,0.4c-0.7,0.3-1.2,0.7-1.7,1.2
		c-0.5,0.5-0.8,1.1-1.1,1.7c-0.3,0.7-0.4,1.4-0.5,2.2H415.8z"/>
	<path fill="#014747" d="M424.7,7.9h4.3v4h0.1c0.1-0.6,0.4-1.1,0.8-1.6c0.4-0.5,0.9-1,1.4-1.5c0.5-0.4,1.2-0.8,1.8-1.1
		c0.7-0.3,1.3-0.4,2-0.4c0.5,0,0.9,0,1.1,0c0.2,0,0.4,0.1,0.6,0.1v4.4c-0.3-0.1-0.6-0.1-1-0.1c-0.3,0-0.7-0.1-1-0.1
		c-0.8,0-1.5,0.2-2.2,0.5c-0.7,0.3-1.3,0.8-1.8,1.4c-0.5,0.6-0.9,1.3-1.2,2.2c-0.3,0.9-0.4,1.9-0.4,3v9.8h-4.6V7.9z"/>
	<path fill="#014747" d="M470,21.9h-3.6v6.6H462v-6.6h-12v-4.5l12-16.8h4.3v17.8h3.6V21.9z M453.6,18.3h8.5V6H462L453.6,18.3z"/>
	<path fill="#014747" d="M472.4,7.9h3.4V1.7h4.6v6.2h4.1v3.4h-4.1v11c0,0.5,0,0.9,0.1,1.2c0,0.3,0.1,0.6,0.3,0.9
		c0.1,0.2,0.4,0.4,0.7,0.5c0.3,0.1,0.7,0.2,1.2,0.2c0.3,0,0.6,0,1,0c0.3,0,0.6-0.1,1-0.1v3.5c-0.5,0.1-1,0.1-1.5,0.2
		c-0.5,0.1-1,0.1-1.5,0.1c-1.2,0-2.2-0.1-2.9-0.3c-0.7-0.2-1.3-0.6-1.7-1c-0.4-0.4-0.7-1-0.8-1.7c-0.1-0.7-0.2-1.4-0.3-2.3V11.3
		h-3.4V7.9z"/>
	<path fill="#014747" d="M488.6,0h4.6v10.6h0.1c0.6-0.9,1.4-1.7,2.5-2.3c1.1-0.6,2.3-0.9,3.7-0.9c2.3,0,4.1,0.6,5.4,1.8
		c1.3,1.2,2,2.9,2,5.3v14.2h-4.6v-13c-0.1-1.6-0.4-2.8-1-3.5s-1.6-1.1-3-1.1c-0.8,0-1.5,0.1-2.1,0.4c-0.6,0.3-1.1,0.7-1.6,1.2
		c-0.4,0.5-0.8,1.1-1,1.7c-0.2,0.7-0.4,1.4-0.4,2.1v12.2h-4.6V0z"/>
</g>
<line fill="none" stroke="#76A8AB" stroke-width="10" stroke-miterlimit="10" x1="0" y1="76" x2="533.7" y2="76"/>
</svg>
