<!-- Generator: Adobe Illustrator 20.1.0, SVG Export Plug-In  -->
<svg version="1.1"
	 xmlns="http://www.w3.org/2000/svg" xmlns:xlink="http://www.w3.org/1999/xlink" xmlns:a="http://ns.adobe.com/AdobeSVGViewerExtensions/3.0/"
	 x="0px" y="0px" width="1709.9px" height="332.3px" viewBox="0 0 1709.9 332.3" enable-background="new 0 0 1709.9 332.3"
	 xml:space="preserve">
<defs>
</defs>
<line fill="none" stroke="#76A8AB" stroke-width="2" stroke-miterlimit="10" x1="0" y1="62.7" x2="1709.9" y2="62.7"/>
<g>
	<g>
		<text transform="matrix(1 0 0 1 4.2552 25.7104)" fill="#014747" font-family="'HelveticaNeue-Bold'" font-size="30px">Make a cup of coffee</text>
	</g>
	<g>
		<text transform="matrix(1 0 0 1 505.4332 25.7102)" fill="#014747" font-family="'HelveticaNeue'" font-size="30px">Kitchen</text>
	</g>
	<g>
		<text transform="matrix(1 0 0 1 911.9813 25.7102)" fill="#014747" font-family="'HelveticaNeue'" font-size="30px">6 Steps</text>
	</g>
</g>
<line fill="none" stroke="#76A8AB" stroke-width="2" stroke-miterlimit="10" x1="0" y1="160.7" x2="1709.9" y2="160.7"/>
<g>
	<g>
		<text transform="matrix(1 0 0 1 4.2552 123.7217)" fill="#014747" font-family="'HelveticaNeue-Bold'" font-size="30px">Turn on the heater</text>
	</g>
	<g>
		<text transform="matrix(1 0 0 1 505.4332 123.7214)" fill="#014747" font-family="'HelveticaNeue'" font-size="30px">Living Room</text>
	</g>
	<g>
		<text transform="matrix(1 0 0 1 911.9813 123.7214)" fill="#014747" font-family="'HelveticaNeue'" font-size="30px">4 Steps</text>
	</g>
</g>
<line fill="none" stroke="#76A8AB" stroke-width="2" stroke-miterlimit="10" x1="0" y1="258.7" x2="1709.9" y2="258.7"/>
<g>
	<g>
		<text transform="matrix(1 0 0 1 4.2552 221.7812)" fill="#014747" font-family="'HelveticaNeue-Bold'" font-size="30px">Lock up the house</text>
	</g>
	<g>
		<text transform="matrix(1 0 0 1 505.4332 221.781)" fill="#014747" font-family="'HelveticaNeue'" font-size="30px">Living Room</text>
	</g>
	<g>
		<text transform="matrix(1 0 0 1 911.9813 221.781)" fill="#014747" font-family="'HelveticaNeue'" font-size="30px">5 Steps</text>
	</g>
</g>
<g>
	<g>
		<text transform="matrix(1 0 0 1 4.2552 317.8889)" fill="#014747" font-family="'HelveticaNeue-Bold'" font-size="30px">Feed the dog</text>
	</g>
	<g>
		<text transform="matrix(1 0 0 1 505.4332 317.8887)" fill="#014747" font-family="'HelveticaNeue'" font-size="30px">Kitchen</text>
	</g>
	<g>
		<text transform="matrix(1 0 0 1 911.9813 317.8887)" fill="#014747" font-family="'HelveticaNeue'" font-size="30px">3 Steps</text>
	</g>
</g>
</svg>
