<!-- Generator: Adobe Illustrator 20.1.0, SVG Export Plug-In  -->
<svg version="1.1"
	 xmlns="http://www.w3.org/2000/svg" xmlns:xlink="http://www.w3.org/1999/xlink" xmlns:a="http://ns.adobe.com/AdobeSVGViewerExtensions/3.0/"
	 x="0px" y="0px" width="545.4px" height="507.2px" viewBox="0 0 545.4 507.2" enable-background="new 0 0 545.4 507.2"
	 xml:space="preserve">
<defs>
</defs>
<g>
	<g>
		<g>
			<g>
				<g>
					<g>
						
							<text transform="matrix(1 0 0 1 65.73 110.1699)" fill="#FFFFFF" font-family="'HelveticaNeue-Medium'" font-size="128.554px" letter-spacing="2">10:45</text>
					</g>
					<g>
						
							<text transform="matrix(1 0 0 1 413.5127 110.1699)" fill="#FFFFFF" font-family="'HelveticaNeue-Medium'" font-size="48.8501px">AM</text>
					</g>
				</g>
			</g>
		</g>
		<g>
			<text transform="matrix(1 0 0 1 -2.6865 192.7988)" fill="#FFFFFF" font-family="'HelveticaNeue-Medium'" font-size="48.8501px">Monday, December 3rd</text>
		</g>
	</g>
	<g>
		<text transform="matrix(1 0 0 1 87.0952 448.9448)" fill="#FFFFFF" font-family="'HelveticaNeue-Medium'" font-size="36.4164px">Pasadena, California</text>
		<text transform="matrix(1 0 0 1 193.248 496.7168)" fill="#FFFFFF" font-family="'HelveticaNeue-Medium'" font-size="36.4164px">85° / 63°</text>
	</g>
	<g>
		<g>
			<path fill="#014747" d="M267.8,349.3c-22.8,0-41.4-18.6-41.4-41.4c0-22.8,18.6-41.4,41.4-41.4c22.8,0,41.4,18.6,41.4,41.4
				S290.6,349.3,267.8,349.3z M267.8,278.5c-16.2,0-29.3,13.2-29.3,29.3c0,16.2,13.2,29.3,29.3,29.3s29.3-13.2,29.3-29.3
				C297.1,291.7,283.9,278.5,267.8,278.5z"/>
		</g>
		<g>
			<path fill="#014747" d="M267.8,256.4c-3.3,0-6-2.7-6-6v-18.1c0-3.3,2.7-6,6-6c3.3,0,6,2.7,6,6v18.1
				C273.8,253.7,271.1,256.4,267.8,256.4z"/>
		</g>
		<g>
			<path fill="#014747" d="M267.8,389.1c-3.3,0-6-2.7-6-6v-18.1c0-3.3,2.7-6,6-6c3.3,0,6,2.7,6,6V383
				C273.8,386.4,271.1,389.1,267.8,389.1z"/>
		</g>
		<g>
			<path fill="#014747" d="M343.1,313.7H325c-3.3,0-6-2.7-6-6c0-3.3,2.7-6,6-6h18.1c3.3,0,6,2.7,6,6
				C349.2,311,346.5,313.7,343.1,313.7z"/>
		</g>
		<g>
			<path fill="#014747" d="M210.5,313.7h-18.1c-3.3,0-6-2.7-6-6c0-3.3,2.7-6,6-6h18.1c3.3,0,6,2.7,6,6
				C216.5,311,213.8,313.7,210.5,313.7z"/>
		</g>
		<g>
			<path fill="#014747" d="M321.1,367c-1.5,0-3.1-0.6-4.3-1.8L304,352.4c-2.4-2.4-2.4-6.2,0-8.5c2.4-2.4,6.2-2.4,8.5,0l12.8,12.8
				c2.4,2.4,2.4,6.2,0,8.5C324.1,366.4,322.6,367,321.1,367z"/>
		</g>
		<g>
			<path fill="#014747" d="M227.2,273.2c-1.5,0-3.1-0.6-4.3-1.8l-12.8-12.8c-2.4-2.4-2.4-6.2,0-8.5c2.4-2.4,6.2-2.4,8.5,0l12.8,12.8
				c2.4,2.4,2.4,6.2,0,8.5C230.3,272.6,228.8,273.2,227.2,273.2z"/>
		</g>
		<g>
			<path fill="#014747" d="M214.5,367c-1.5,0-3.1-0.6-4.3-1.8c-2.4-2.4-2.4-6.2,0-8.5l12.8-12.8c2.4-2.4,6.2-2.4,8.5,0
				c2.4,2.4,2.4,6.2,0,8.5l-12.8,12.8C217.5,366.4,216,367,214.5,367z"/>
		</g>
		<g>
			<path fill="#014747" d="M308.3,273.2c-1.5,0-3.1-0.6-4.3-1.8c-2.4-2.4-2.4-6.2,0-8.5l12.8-12.8c2.4-2.4,6.2-2.4,8.5,0
				c2.4,2.4,2.4,6.2,0,8.5l-12.8,12.8C311.3,272.6,309.8,273.2,308.3,273.2z"/>
		</g>
	</g>
</g>
</svg>
