<?xml version="1.0" encoding="utf-8"?>
<!-- Generator: Adobe Illustrator 17.0.0, SVG Export Plug-In . SVG Version: 6.00 Build 0)  -->
<!DOCTYPE svg PUBLIC "-//W3C//DTD SVG 1.1//EN" "http://www.w3.org/Graphics/SVG/1.1/DTD/svg11.dtd">
<svg version="1.1" id="Layer_1" xmlns="http://www.w3.org/2000/svg" xmlns:xlink="http://www.w3.org/1999/xlink" x="0px" y="0px"
	 width="501.459px" height="354.955px" viewBox="0 0 501.459 354.955" enable-background="new 0 0 501.459 354.955"
	 xml:space="preserve">
<g>
	<g>
		<path fill="#ED2024" d="M64.432,132.461c0,0,74.353,17.053,113.151-1.182c23.119-10.866,36.469-75.5,36.469-75.5
			s6.093,46.301,30.282,42.981c33.213-4.559,93.451-98.01,93.451-98.01s-29.775,67.968-19.537,74.566
			c7.326,4.721,41.679-22.956,41.679-22.956s-19.48,21.34-5.047,29.957c10.908,6.512,112.663-8.14,112.663-8.14
			s-67.728,34.841-67.728,48.679c0,17.631,100.895,27.514,100.895,27.514s-154.295,11.396-156.086,28.003
			c-1.265,11.733,22.467,23.607,22.467,23.607s-36.794-2.442-35.655,4.559c1.291,7.933,66.914,40.865,66.914,40.865
			s-101.592-28.817-111.686-17.258c-6.847,7.841,2.605,18.886,2.605,18.886s-20.782-9.399-30.771-5.21
			c-20.188,8.466-33.05,110.383-33.05,110.383s-3.256-94.917-15.97-93.73c-5.939,0.554-19.033,26.491-19.033,26.491
			s1.628-29.631-6.187-28.98c-10.901,0.908-61.216,90.846-61.216,90.846s27.677-61.541,7.164-69.193
			c-20.514-7.652-111.36,32.887-111.36,32.887s76.696-68.942,80.752-83.195c4.728-16.61-98.847-1.628-98.847-1.628
			s107.15-35.004,114.965-57.006C121.113,155.503,64.432,132.461,64.432,132.461z"/>
		<path fill="#010101" d="M225.449,354.955c-0.012,0-0.023,0-0.035-0.001c-0.391-0.018-0.702-0.333-0.716-0.723
			c-1.282-37.39-6.332-93.017-14.984-93.017c-0.055,0-0.11,0.003-0.166,0.008c-4.055,0.378-13.245,15.805-18.433,26.082
			c-0.16,0.317-0.52,0.479-0.863,0.387c-0.343-0.092-0.575-0.411-0.556-0.766c0.013-0.224,1.174-22.456-3.484-27.376
			c-0.576-0.609-1.184-0.875-1.891-0.815c-8.617,0.718-46.684,65.546-60.624,90.465c-0.195,0.35-0.634,0.485-0.991,0.304
			c-0.359-0.181-0.512-0.611-0.347-0.978c0.203-0.453,20.272-45.465,13.134-62.557c-1.167-2.795-3.034-4.688-5.549-5.626
			c-1.626-0.606-3.817-0.914-6.512-0.914c-28.241,0-103.523,33.446-104.28,33.784c-0.336,0.149-0.733,0.033-0.935-0.276
			c-0.201-0.31-0.147-0.72,0.128-0.966c0.765-0.688,76.58-68.959,80.531-82.842c0.258-0.903,0.126-1.681-0.4-2.379
			c-1.549-2.051-7.236-4.496-25.535-4.496c-28.932,0-71.655,6.131-72.083,6.193c-0.378,0.057-0.749-0.192-0.838-0.571
			s0.128-0.763,0.498-0.884c1.067-0.349,106.888-35.138,114.491-56.543c4.23-11.911-35.279-30.958-50.859-37.291
			c-0.362-0.147-0.551-0.548-0.433-0.92c0.117-0.373,0.503-0.594,0.883-0.505c0.314,0.072,31.87,7.222,64.133,7.222
			c20.412,0,36.74-2.81,48.53-8.352c9.266-4.355,18.434-18.665,26.512-41.382c6.141-17.269,9.509-33.43,9.542-33.591
			c0.074-0.357,0.362-0.606,0.762-0.598c0.365,0.013,0.668,0.289,0.716,0.651c0.057,0.425,5.851,42.5,27.092,42.5
			c0.767,0,1.556-0.055,2.346-0.164c32.495-4.46,92.323-96.741,92.924-97.673c0.211-0.328,0.64-0.44,0.984-0.254
			c0.345,0.185,0.489,0.604,0.333,0.961c-11.866,27.086-26.936,69.048-19.818,73.634c0.435,0.28,1.038,0.422,1.792,0.422
			c9.934,0,38.721-23.098,39.01-23.332c0.306-0.246,0.749-0.215,1.017,0.07c0.269,0.286,0.272,0.729,0.008,1.019
			c-0.114,0.125-11.435,12.66-10.061,21.97c0.424,2.871,2.054,5.171,4.845,6.837c1.193,0.713,4.49,1.562,13.417,1.562
			c30.336,0,98.073-9.704,98.754-9.801c0.342-0.055,0.709,0.164,0.821,0.514c0.111,0.349-0.046,0.728-0.372,0.895
			c-23.284,11.979-67.32,37.429-67.32,48.013c0,6.703,17.695,13.675,49.826,19.63c24.903,4.616,50.14,7.113,50.392,7.138
			c0.388,0.038,0.682,0.366,0.677,0.755c-0.005,0.39-0.307,0.71-0.694,0.739c-42.743,3.157-153.981,14.222-155.396,27.335
			c-1.196,11.086,21.823,22.739,22.057,22.855c0.319,0.16,0.481,0.523,0.388,0.867c-0.094,0.345-0.436,0.571-0.773,0.552
			c-0.062-0.004-6.275-0.411-13.405-0.411c-16.088,0-20.164,1.969-21.162,3.142c-0.259,0.305-0.354,0.61-0.297,0.958
			c0.902,5.543,40.269,27.146,66.509,40.315c0.346,0.174,0.503,0.582,0.363,0.942c-0.14,0.36-0.527,0.554-0.904,0.45
			c-0.703-0.2-70.715-19.964-99.66-19.964c-7.514,0-10.268,1.348-11.255,2.479c-6.348,7.269,2.52,17.799,2.609,17.904
			c0.229,0.267,0.241,0.657,0.03,0.938c-0.211,0.282-0.589,0.378-0.908,0.233c-0.138-0.062-13.875-6.219-24.117-6.219
			c-2.408,0-4.445,0.342-6.055,1.017c-19.562,8.204-32.469,108.771-32.597,109.786C226.144,354.675,225.824,354.955,225.449,354.955
			z M209.713,259.714c2.104,0,8.502,0,13.308,47.545c1.494,14.782,2.371,29.687,2.812,38.613
			c3.56-24.631,15.223-95.549,32.375-102.742c1.794-0.752,4.026-1.134,6.635-1.134c8.006,0,17.748,3.497,22.251,5.305
			c-2.443-3.768-6.281-11.595-0.995-17.648c1.758-2.014,5.809-2.992,12.385-2.992c23.632,0,74.24,13.023,92.938,18.063
			c-17.265-8.864-59.617-31.25-60.727-38.065c-0.127-0.782,0.092-1.533,0.635-2.171c2.071-2.436,9.575-3.67,22.305-3.67
			c3.971,0,7.659,0.125,10.175,0.238c-6.434-3.674-20.974-13.104-19.933-22.763c1.184-10.968,60.029-18.438,79.366-20.893
			c28.017-3.556,56.182-6.05,69.494-7.149c-9.461-1.1-26.107-3.23-42.612-6.289c-33.881-6.279-51.061-13.38-51.061-21.106
			c0-12.336,49.783-39.639,64.298-47.337c-15.452,2.134-68.694,9.216-94.681,9.216c-7.546,0-12.187-0.581-14.187-1.774
			c-3.196-1.909-5.067-4.569-5.56-7.908c-0.923-6.262,3.199-13.555,6.537-18.271c-8.829,6.717-27.078,19.826-35.026,19.826
			c-1.047,0-1.923-0.223-2.604-0.662c-8.727-5.624,8.326-49.423,16.034-67.933c-14.72,21.836-61.2,87.613-89.441,91.49
			c-0.857,0.118-1.715,0.177-2.549,0.177c-18.791,0-25.945-29.171-27.945-39.935c-3.285,14.191-15.858,62.728-36.039,72.212
			c-11.992,5.636-28.535,8.494-49.169,8.494c-23.293,0-46.211-3.706-57.4-5.822c5.416,2.432,13.416,6.218,21.136,10.6
			c18.272,10.371,26.333,19.024,23.955,25.72c-6.721,18.919-83.353,46.521-107.999,54.966c13.755-1.77,42.942-5.163,64.517-5.163
			c15.4,0,24.145,1.666,26.731,5.092c0.818,1.083,1.036,2.326,0.647,3.693c-3.62,12.718-62.402,66.7-77.542,80.445
			c16.5-7.16,75.669-32.054,100.654-32.054c2.874,0,5.241,0.339,7.035,1.009c2.92,1.089,5.076,3.26,6.41,6.454
			c5.202,12.458-3.027,38.057-8.645,52.764c13.952-24.357,46.862-80.158,55.963-80.917c1.162-0.096,2.213,0.335,3.105,1.279
			c3.969,4.193,4.148,18.552,4.009,25.152c3.755-7.081,12.971-23.462,18.099-23.941
			C209.511,259.719,209.612,259.714,209.713,259.714z"/>
	</g>
	<g>
		<g>
			<g>
				<path fill="#030405" d="M77.25,238.31c2.222-1.887,6.197-5.737,11.928-11.548c4.993-4.943,9.139-8.689,12.434-11.241
					c1.334-0.926,2.651-1.792,3.955-2.597c10.119-6.248,17.308-5.83,21.573,1.244c6.142,9.947,5.997,23.775-0.433,41.481
					c7.571-5.396,13.472-6.045,17.699-1.942c0.878,0.906,1.661,1.918,2.354,3.04c3.463,5.609,4.213,12.997,2.249,22.162
					c-1.492,7.017-4.303,14.122-8.433,21.321c-4.943,8.63-12.242,15.926-21.9,21.889c-1.533,0.946-3.089,1.854-4.669,2.728
					c-6.475-17.175-15.902-39.813-28.275-67.913C82.279,248.944,79.452,242.737,77.25,238.31z M118.25,277.449
					c1.142,3.222,2.868,7.475,5.18,12.761c8.823-9.888,11.964-16.889,9.424-21.003c-0.923-1.495-2.728-1.414-5.409,0.241
					C125.068,270.916,122.002,273.583,118.25,277.449z M106.012,243.482c0.91,2.847,1.858,5.67,2.847,8.468l2.961,8.398
					c3.516-6.82,5.103-13.169,4.755-19.05c-0.064-1.302-0.28-2.252-0.65-2.852c-0.785-1.271-2.175-1.291-4.166-0.062
					C110.224,239.332,108.31,241.032,106.012,243.482z"/>
				<path fill="#010101" d="M117.867,208.531c3.917,0,7.007,1.879,9.273,5.637c6.142,9.947,5.997,23.775-0.433,41.481
					c4.302-3.066,8.064-4.599,11.287-4.599c2.449,0,4.587,0.886,6.412,2.657c0.877,0.906,1.661,1.918,2.354,3.04
					c3.463,5.609,4.213,12.997,2.249,22.162c-1.492,7.017-4.303,14.122-8.433,21.32c-4.943,8.63-12.242,15.926-21.9,21.889
					c-1.533,0.946-3.089,1.854-4.669,2.728c-6.475-17.175-15.902-39.813-28.275-67.913c-3.452-7.99-6.279-14.197-8.482-18.624
					c2.222-1.887,6.197-5.737,11.928-11.548c4.993-4.943,9.139-8.689,12.434-11.241c1.334-0.926,2.651-1.792,3.955-2.597
					C110.31,209.995,114.41,208.531,117.867,208.531 M111.82,260.348c3.516-6.82,5.103-13.169,4.755-19.05
					c-0.064-1.302-0.28-2.252-0.65-2.852c-0.399-0.646-0.954-0.969-1.665-0.969c-0.688,0-1.522,0.302-2.501,0.907
					c-1.535,0.948-3.449,2.647-5.747,5.098c0.91,2.847,1.858,5.67,2.847,8.468L111.82,260.348 M123.43,290.21
					c8.823-9.888,11.964-16.889,9.424-21.003c-0.438-0.709-1.074-1.064-1.909-1.064c-0.924,0-2.091,0.435-3.501,1.305
					c-2.377,1.468-5.442,4.135-9.195,8.001C119.392,280.672,121.118,284.924,123.43,290.21 M117.867,206.531L117.867,206.531
					c-3.872,0-8.239,1.535-13.352,4.691c-1.304,0.806-2.665,1.699-4.044,2.656l-0.043,0.03l-0.042,0.032
					c-3.354,2.598-7.599,6.434-12.616,11.401c-5.683,5.763-9.653,9.608-11.816,11.445l-1.193,1.013l0.697,1.402
					c2.181,4.384,5.02,10.617,8.436,18.526c12.319,27.977,21.818,50.793,28.24,67.825l0.816,2.164l2.024-1.119
					c1.627-0.9,3.226-1.834,4.752-2.776c9.898-6.111,17.496-13.714,22.585-22.597c4.215-7.345,7.126-14.713,8.654-21.899
					c2.066-9.641,1.224-17.591-2.503-23.629c-0.766-1.24-1.647-2.377-2.619-3.381l-0.021-0.022l-0.022-0.021
					c-2.203-2.138-4.829-3.222-7.805-3.222c-2.37,0-4.9,0.673-7.654,2.044c4.821-15.793,4.322-28.55-1.499-37.977
					C126.21,208.753,122.514,206.531,117.867,206.531L117.867,206.531z M108.28,244.003c1.811-1.861,3.331-3.176,4.529-3.916
					c0.818-0.505,1.254-0.592,1.403-0.606c0.003,0.005,0.007,0.011,0.011,0.017c0.047,0.077,0.287,0.528,0.354,1.899
					c0.251,4.235-0.594,8.799-2.515,13.623l-1.317-3.735C109.906,248.912,109.079,246.468,108.28,244.003L108.28,244.003z
					 M120.559,277.951c3.225-3.253,5.892-5.539,7.936-6.801c1.472-0.909,2.204-1.007,2.45-1.007c0.088,0,0.126,0.012,0.131,0.014
					c0,0.001,0.03,0.026,0.076,0.101c1.052,1.704,1.39,6.025-7.151,16.234C122.58,283.162,121.427,280.302,120.559,277.951
					L120.559,277.951z"/>
			</g>
			<g>
				<path fill="#030405" d="M120.043,195.547l18.018-16.731c6.857,22.683,14.274,42.149,21.651,60.325l17.395-14.757l10.539,20.587
					c-9.349,6.981-20.365,17.187-33.048,30.619L120.043,195.547z"/>
				<path fill="#010101" d="M138.061,178.817c6.857,22.683,14.274,42.149,21.651,60.325l17.395-14.757l10.539,20.587
					c-9.349,6.981-20.365,17.187-33.048,30.619l-34.554-80.044L138.061,178.817 M139.048,175.171l-2.348,2.18l-18.018,16.731
					l-1.035,0.961l0.56,1.297l34.554,80.044l1.204,2.79l2.086-2.209c12.544-13.286,23.577-23.51,32.79-30.39l1.353-1.01l-0.77-1.503
					l-10.539-20.587l-1.15-2.246l-1.924,1.632l-15.286,12.967c-6.363-15.772-13.665-34.807-20.552-57.589L139.048,175.171
					L139.048,175.171z"/>
			</g>
			<g>
				<path fill="#030405" d="M184.605,251.999c-2.832-32.161-7.221-62.323-13.163-90.485l30.519-22.348
					c7.162,23.512,18.411,49.921,33.749,79.227l-20.553,17.02l-5.138-14.191l-6.631,5.113l2.474,10.571L184.605,251.999z
					 M204.479,205.956l-15.447-42.89l-0.11,0.056l10.702,46.578L204.479,205.956z"/>
				<path fill="#010101" d="M201.961,139.166c7.162,23.511,18.411,49.921,33.749,79.227l-20.553,17.02l-5.138-14.191l-6.631,5.113
					l2.474,10.571l-21.256,15.092c-2.832-32.161-7.221-62.323-13.163-90.485L201.961,139.166 M199.624,209.7l4.856-3.744
					l-15.447-42.89l-0.11,0.056L199.624,209.7 M203.053,135.887l-2.274,1.665L170.26,159.9l-1.042,0.763l0.267,1.264
					c5.9,27.962,10.317,58.325,13.128,90.248l0.306,3.475l2.844-2.019l21.256-15.092l1.096-0.778l-0.306-1.309l-2.181-9.317
					l3.442-2.654l4.206,11.615l0.967,2.672l2.189-1.812l20.553-17.02l1.247-1.033l-0.751-1.435
					c-15.206-29.054-26.514-55.594-33.608-78.882L203.053,135.887L203.053,135.887z M200.874,206.211l-2.769-12.049l3.998,11.101
					L200.874,206.211L200.874,206.211z"/>
			</g>
			<g>
				<path fill="#030405" d="M230.676,229.129c-2.738-28.023-7.73-55.483-14.974-82.385l21.05-15.061l15.032,40.022l-7.937-39.81
					l20.115-14.74c8.235,24.029,16.721,45.192,25.453,63.492c1.733,3.633,3.45,7.23,5.149,10.792l-17.831,13.139L258.3,157.034
					l11.643,56.832l-9.837,6.624l-24.447-67.574l13.634,63.729L230.676,229.129z"/>
				<path fill="#010101" d="M263.963,117.156c8.235,24.029,16.721,45.192,25.453,63.492c1.734,3.633,3.45,7.229,5.15,10.792
					l-17.831,13.139L258.3,157.034l11.643,56.832l-9.837,6.624l-24.447-67.574l13.634,63.729l-18.617,12.485
					c-2.738-28.023-7.73-55.483-14.974-82.385l21.05-15.061l15.032,40.022l-7.937-39.81L263.963,117.156 M264.973,113.936
					l-2.193,1.607l-20.115,14.74l-1.029,0.754l0.249,1.25l3.134,15.722l-6.396-17.028l-0.916-2.44l-2.12,1.517l-21.05,15.061
					l-1.128,0.807l0.361,1.339c7.183,26.677,12.201,54.286,14.914,82.059l0.325,3.33l2.779-1.864l18.617-12.485l1.125-0.755
					l-0.283-1.325l-7.507-35.091l14.484,40.035l0.872,2.41l2.126-1.432l9.837-6.624l1.111-0.748l-0.269-1.312l-6.87-33.534
					l9.837,25.372l0.946,2.439l2.106-1.552l17.831-13.139l1.33-0.98l-0.712-1.491l-1.036-2.171l-4.113-8.621
					c-8.663-18.155-17.197-39.445-25.366-63.279L264.973,113.936L264.973,113.936z"/>
			</g>
			<g>
				<path fill="#030405" d="M288.953,204.105c-1.541-27.319-5.405-54.073-11.587-80.267l22.123-14.843l13.534,38.938l-6.314-38.781
					l21.156-14.523c7.321,23.383,15.025,43.97,23.107,61.761c1.605,3.532,3.193,7.029,4.767,10.492l-18.757,12.946l-16.666-46.254
					l9.332,55.362l-10.32,6.532l-21.9-65.751l11.052,62.077L288.953,204.105z"/>
				<path fill="#010101" d="M327.865,94.629c7.321,23.383,15.025,43.97,23.108,61.761c1.604,3.532,3.193,7.029,4.766,10.492
					l-18.756,12.946l-16.666-46.254l9.332,55.362l-10.32,6.532l-21.9-65.751l11.052,62.077l-19.527,12.312
					c-1.541-27.319-5.405-54.073-11.587-80.267l22.123-14.843l13.534,38.938l-6.313-38.781L327.865,94.629 M328.964,91.448
					l-2.232,1.532l-21.156,14.523l-1.046,0.718l0.204,1.252l2.61,16.035l-5.968-17.17l-0.851-2.448l-2.153,1.444l-22.123,14.843
					l-1.15,0.772l0.318,1.348c6.128,25.964,10.01,52.853,11.537,79.92l0.191,3.39l2.872-1.811l19.527-12.312l1.138-0.718
					l-0.236-1.325l-6.236-35.025l13.217,39.682l0.808,2.425l2.16-1.367l10.32-6.532l1.124-0.711l-0.221-1.311l-5.624-33.366
					l9.105,25.269l0.88,2.443l2.137-1.475l18.756-12.946l1.377-0.95l-0.692-1.523l-4.766-10.492
					c-8.015-17.642-15.76-38.344-23.02-61.531L328.964,91.448L328.964,91.448z"/>
			</g>
			<g>
				<path fill="#030405" d="M365.838,74.9c7.779-2.959,14.786-1.103,21.021,5.564c3.241,3.441,5.792,7.605,7.65,12.49
					c1.783,4.686,2.947,10.066,3.494,16.139c0.849,10.404-0.565,20.826-4.238,31.263c-4.48,12.737-11.272,20.837-20.372,24.299
					c-7.855,2.988-14.933,1.162-21.241-5.48c-3.09-3.267-5.554-7.311-7.388-12.13c-1.808-4.751-2.96-10.212-3.459-16.382
					c-0.876-10.47,0.489-20.91,4.089-31.321C349.849,86.538,356.662,78.391,365.838,74.9z M371.347,101.305
					c-4.037,1.536-7.001,6.111-8.893,13.727c-1.569,6.038-2.147,11.582-1.737,16.635c0.256,2.661,0.753,4.963,1.491,6.903
					c1.044,2.745,2.631,4.708,4.761,5.889c2.427,1.3,5.144,1.375,8.154,0.23c4.11-1.564,7.066-4.947,8.866-10.154
					c1.446-4.15,1.94-8.591,1.485-13.322c-0.516-5.55-2.106-10.614-4.772-15.193C377.988,101.536,374.87,99.965,371.347,101.305z"/>
				<path fill="#010101" d="M372.791,73.535c5.06,0,9.749,2.31,14.068,6.928c3.241,3.441,5.792,7.605,7.65,12.49
					c1.783,4.685,2.947,10.066,3.494,16.139c0.849,10.405-0.565,20.826-4.238,31.263c-4.48,12.737-11.272,20.837-20.372,24.299
					c-2.438,0.927-4.8,1.391-7.088,1.391c-5.086,0-9.802-2.29-14.153-6.871c-3.09-3.267-5.554-7.311-7.388-12.13
					c-1.808-4.751-2.96-10.212-3.459-16.382c-0.876-10.47,0.489-20.91,4.089-31.321c4.455-12.803,11.269-20.951,20.445-24.442
					C368.229,73.99,370.547,73.535,372.791,73.535 M371.083,145.494c1.283,0,2.629-0.268,4.04-0.805
					c4.11-1.563,7.066-4.947,8.866-10.154c1.446-4.15,1.94-8.591,1.485-13.322c-0.516-5.55-2.106-10.614-4.772-15.193
					c-2.089-3.452-4.419-5.178-6.988-5.178c-0.768,0-1.557,0.154-2.368,0.463c-4.037,1.536-7.001,6.111-8.893,13.727
					c-1.569,6.038-2.147,11.582-1.737,16.635c0.256,2.661,0.753,4.963,1.491,6.903c1.045,2.745,2.631,4.708,4.761,5.889
					C368.258,145.149,369.63,145.494,371.083,145.494 M372.792,71.535L372.792,71.535c-2.479,0-5.057,0.503-7.665,1.495
					c-9.709,3.694-16.984,12.325-21.622,25.654c-3.678,10.635-5.088,21.449-4.193,32.146c0.513,6.328,1.718,12.024,3.583,16.926
					c1.919,5.043,4.545,9.348,7.804,12.793c4.725,4.975,9.975,7.496,15.606,7.496c2.521,0,5.146-0.512,7.8-1.522
					c9.634-3.665,16.884-12.246,21.548-25.505c3.751-10.657,5.213-21.453,4.345-32.089c-0.562-6.245-1.779-11.854-3.618-16.688
					c-1.943-5.106-4.656-9.531-8.063-13.15C383.627,74.079,378.403,71.535,372.792,71.535L372.792,71.535z M371.083,143.494
					c-1.13,0-2.167-0.261-3.17-0.799c-1.693-0.939-2.956-2.526-3.836-4.837c-0.671-1.765-1.132-3.912-1.37-6.383
					c-0.388-4.779,0.177-10.152,1.682-15.941c1.721-6.927,4.3-11.078,7.669-12.36c0.579-0.22,1.136-0.332,1.657-0.332
					c1.809,0,3.584,1.418,5.277,4.214c2.488,4.274,4.005,9.11,4.491,14.343c0.426,4.427-0.039,8.623-1.382,12.479
					c-1.613,4.664-4.127,7.587-7.689,8.942C373.235,143.267,372.116,143.494,371.083,143.494L371.083,143.494z"/>
			</g>
			<g>
				<g>
					<path fill="#030405" d="M416.233,131.843c2.379-1.806,4.874-2.711,7.484-2.713c3.02-0.132,5.229,1.057,6.625,3.567
						c1.89,3.398,1.805,7.507-0.252,12.325c-1.575,3.777-3.899,6.81-6.976,9.102c-2.453,1.847-4.908,2.825-7.361,2.934
						c-2.945,0.092-5.118-1.117-6.515-3.628c-1.889-3.396-1.9-7.502-0.031-12.312C410.741,137.268,413.082,134.176,416.233,131.843z
						 M388.117,58.367l24.876-10.135c0.642,14.401,1.425,25.484,2.348,33.256c1.29,10.624,3.434,21.663,6.432,33.118l-15.395,8.604
						L388.117,58.367z"/>
					<path fill="#010101" d="M412.993,48.233c0.642,14.401,1.425,25.484,2.348,33.256c1.29,10.624,3.434,21.663,6.432,33.118
						l-15.395,8.604l-18.261-64.843L412.993,48.233 M424.164,129.12c2.792,0,4.853,1.193,6.179,3.577
						c1.89,3.398,1.805,7.507-0.252,12.325c-1.575,3.777-3.899,6.81-6.976,9.102c-2.453,1.847-4.908,2.825-7.361,2.934
						c-0.104,0.003-0.208,0.005-0.31,0.005c-2.788,0-4.857-1.211-6.204-3.633c-1.889-3.396-1.9-7.501-0.031-12.312
						c1.533-3.849,3.874-6.941,7.025-9.274c2.379-1.806,4.874-2.711,7.484-2.713C423.868,129.124,424.017,129.12,424.164,129.12
						 M414.864,45.311l-2.626,1.07l-24.876,10.135l-1.655,0.674l0.484,1.72l18.261,64.843l0.687,2.441l2.214-1.237l15.395-8.604
						l1.351-0.755l-0.392-1.497c-2.962-11.318-5.109-22.371-6.382-32.853c-0.912-7.683-1.698-18.822-2.335-33.104L414.864,45.311
						L414.864,45.311z M424.164,127.12c-0.162,0-0.326,0.003-0.491,0.01c-3.028,0.011-5.938,1.061-8.649,3.12
						c-3.419,2.531-6.007,5.943-7.674,10.127c-2.092,5.386-2.042,10.099,0.141,14.024c1.696,3.049,4.446,4.661,7.952,4.661
						c0.123,0,0.248-0.002,0.373-0.006c2.88-0.128,5.732-1.25,8.501-3.335c3.344-2.491,5.911-5.834,7.619-9.93
						c2.297-5.379,2.35-10.117,0.154-14.067C430.415,128.713,427.674,127.12,424.164,127.12L424.164,127.12z"/>
				</g>
			</g>
		</g>
		<g>
			<g>
				<path fill="#FED20D" d="M385.02,87.857c-1.858-4.885-4.41-9.048-7.65-12.49c-6.235-6.667-13.242-8.523-21.021-5.564
					c-9.176,3.491-15.989,11.639-20.445,24.442c-3.601,10.411-4.965,20.852-4.089,31.321c0.101,1.245,0.235,2.454,0.39,3.641
					c-4.751-12.186-9.362-25.407-13.829-39.675l-21.156,14.523l6.313,38.781L290,103.899l-22.123,14.843
					c3.887,16.469,6.854,33.162,8.907,50.075c-7.629-16.704-15.067-35.621-22.311-56.758l-20.115,14.74l7.937,39.81l-15.032-40.022
					l-21.05,15.061c4.853,18.023,8.671,36.304,11.502,54.83c-11.062-22.679-19.479-43.484-25.244-62.409l-30.519,22.348
					c4.942,23.422,8.793,48.247,11.584,74.435l-5.92-11.564l-17.395,14.757c-7.377-18.176-14.793-37.642-21.651-60.325
					l-18.018,16.731l25.927,60.059c-0.488-0.672-1-1.316-1.564-1.899c-4.228-4.103-10.128-3.454-17.699,1.942
					c6.43-17.706,6.575-31.534,0.433-41.481c-4.265-7.074-11.455-7.491-21.573-1.244c-1.304,0.805-2.621,1.672-3.955,2.597
					c-3.295,2.552-7.441,6.298-12.434,11.241c-5.73,5.811-9.706,9.66-11.928,11.548c2.202,4.427,5.03,10.633,8.482,18.624
					c12.373,28.1,21.8,50.738,28.275,67.913c1.58-0.874,3.137-1.781,4.669-2.728c9.658-5.963,16.956-13.259,21.9-21.889
					c4.13-7.198,6.941-14.304,8.433-21.32c1.228-5.728,1.395-10.762,0.503-15.101l5.086,11.782
					c11.154-11.813,21.019-21.13,29.594-27.953c0.135,1.457,0.285,2.896,0.414,4.361l21.256-15.092l-2.474-10.571l6.631-5.113
					l5.139,14.191l14.868-12.312c0.22,2.009,0.454,4.014,0.651,6.028l18.617-12.485l-13.634-63.729l24.447,67.574l9.837-6.624
					l-11.643-56.832l18.434,47.546l11.673-8.602c0.199,2.705,0.393,5.411,0.546,8.127l19.527-12.312l-11.052-62.077l21.9,65.751
					l10.32-6.532l-9.332-55.362l16.666,46.254l18.756-12.946c-1.132-2.492-2.282-5.022-3.43-7.55
					c6.268,6.508,13.294,8.287,21.084,5.323c9.1-3.462,15.892-11.562,20.372-24.299c3.673-10.437,5.087-20.858,4.238-31.263
					C387.967,97.922,386.803,92.542,385.02,87.857z M102.331,255.252l-2.961-8.398c-0.989-2.798-1.938-5.621-2.847-8.468
					c2.298-2.45,4.212-4.15,5.747-5.098c1.992-1.23,3.382-1.209,4.166,0.062c0.37,0.599,0.586,1.55,0.65,2.852
					C107.434,242.083,105.848,248.432,102.331,255.252z M113.941,285.114c-2.312-5.286-4.038-9.538-5.18-12.761
					c3.752-3.866,6.818-6.533,9.195-8.001c2.682-1.656,4.486-1.737,5.409-0.241C125.905,268.225,122.764,275.226,113.941,285.114z
					 M190.135,204.604l-10.702-46.578l0.11-0.056l15.447,42.89L190.135,204.604z M374.501,129.439
					c-1.801,5.207-4.757,8.59-8.866,10.154c-3.01,1.145-5.727,1.069-8.154-0.23c-2.13-1.181-3.716-3.144-4.761-5.889
					c-0.738-1.94-1.235-4.242-1.491-6.903c-0.41-5.053,0.168-10.597,1.737-16.635c1.892-7.615,4.856-12.191,8.893-13.727
					c3.523-1.34,6.641,0.231,9.355,4.715c2.665,4.579,4.256,9.643,4.772,15.193C376.441,120.848,375.946,125.289,374.501,129.439z"
					/>
				<path fill="#010101" d="M363.303,68.439c5.059,0,9.749,2.31,14.067,6.928c3.241,3.441,5.792,7.605,7.65,12.49
					c1.783,4.686,2.947,10.066,3.494,16.139c0.849,10.404-0.565,20.826-4.238,31.263c-4.48,12.737-11.272,20.837-20.372,24.299
					c-2.435,0.927-4.796,1.39-7.082,1.39c-5.027,0-9.693-2.239-14.002-6.712c1.148,2.527,2.298,5.058,3.43,7.55l-18.756,12.946
					l-16.666-46.254l9.332,55.362l-10.32,6.532l-21.9-65.751l11.052,62.077l-19.527,12.312c-0.153-2.716-0.347-5.422-0.546-8.127
					l-11.673,8.602l-18.434-47.546l11.643,56.832l-9.837,6.624l-24.447-67.574l13.634,63.729l-18.617,12.485
					c-0.197-2.014-0.431-4.02-0.651-6.028l-14.868,12.312l-5.139-14.191l-6.631,5.113l2.474,10.571l-21.256,15.092
					c-0.129-1.465-0.278-2.904-0.414-4.361c-8.576,6.823-18.44,16.139-29.594,27.953l-5.086-11.782
					c0.892,4.339,0.725,9.373-0.503,15.101c-1.492,7.016-4.303,14.122-8.433,21.32c-4.943,8.63-12.242,15.926-21.9,21.889
					c-1.533,0.946-3.089,1.854-4.669,2.728c-6.475-17.175-15.902-39.813-28.275-67.913c-3.452-7.99-6.279-14.197-8.482-18.624
					c2.222-1.887,6.198-5.737,11.928-11.548c4.993-4.943,9.139-8.689,12.434-11.241c1.334-0.926,2.651-1.792,3.955-2.597
					c4.744-2.929,8.844-4.393,12.301-4.393c3.916,0,7.007,1.88,9.273,5.637c6.142,9.947,5.997,23.775-0.433,41.481
					c4.302-3.066,8.064-4.599,11.287-4.599c2.449,0,4.587,0.886,6.412,2.657c0.565,0.583,1.077,1.227,1.564,1.899l-25.927-60.059
					l18.018-16.731c6.857,22.683,14.274,42.149,21.651,60.325l17.395-14.757l5.92,11.564c-2.791-26.187-6.642-51.013-11.584-74.435
					l30.519-22.348c5.765,18.924,14.182,39.73,25.244,62.409c-2.831-18.526-6.649-36.807-11.502-54.83l21.05-15.061l15.032,40.022
					l-7.937-39.81l20.115-14.74c7.244,21.136,14.682,40.054,22.311,56.758c-2.053-16.914-5.02-33.606-8.907-50.075L290,103.899
					l13.534,38.938l-6.313-38.781l21.156-14.523c4.467,14.268,9.078,27.49,13.829,39.675c-0.154-1.187-0.289-2.396-0.39-3.641
					c-0.876-10.47,0.489-20.91,4.089-31.321c4.455-12.803,11.269-20.951,20.445-24.442C358.74,68.894,361.057,68.439,363.303,68.439
					 M361.595,140.398c1.282,0,2.629-0.269,4.04-0.805c4.11-1.563,7.066-4.947,8.866-10.154c1.446-4.15,1.94-8.591,1.485-13.322
					c-0.516-5.55-2.106-10.614-4.772-15.193c-2.09-3.452-4.419-5.178-6.988-5.178c-0.768,0-1.557,0.154-2.368,0.463
					c-4.037,1.536-7.001,6.111-8.893,13.727c-1.569,6.038-2.147,11.582-1.737,16.635c0.256,2.661,0.753,4.963,1.491,6.903
					c1.044,2.745,2.63,4.708,4.761,5.889C358.77,140.053,360.141,140.398,361.595,140.398 M190.135,204.604l4.856-3.744
					l-15.447-42.89l-0.11,0.056L190.135,204.604 M102.331,255.252c3.516-6.82,5.103-13.169,4.755-19.05
					c-0.064-1.302-0.28-2.252-0.65-2.852c-0.399-0.646-0.954-0.969-1.665-0.969c-0.688,0-1.522,0.302-2.501,0.907
					c-1.535,0.948-3.449,2.647-5.747,5.098c0.91,2.847,1.858,5.67,2.847,8.468L102.331,255.252 M113.941,285.114
					c8.823-9.888,11.964-16.889,9.424-21.003c-0.438-0.709-1.074-1.064-1.909-1.064c-0.924,0-2.091,0.435-3.501,1.306
					c-2.377,1.468-5.442,4.135-9.195,8.001C109.903,275.575,111.629,279.828,113.941,285.114 M363.303,66.439
					c-2.478,0-5.057,0.503-7.664,1.495c-9.709,3.694-16.984,12.325-21.622,25.654c-2.638,7.627-4.109,15.348-4.4,23.05
					c-3.183-8.771-6.307-18.045-9.331-27.704l-0.809-2.583l-2.232,1.532l-21.156,14.523l-1.046,0.718l0.204,1.252l2.61,16.035
					l-5.968-17.17l-0.851-2.448l-2.152,1.444l-22.123,14.843l-1.15,0.772l0.318,1.348c2.764,11.708,5.081,23.661,6.923,35.682
					c-5.605-13.273-11.129-27.836-16.488-43.472l-0.881-2.572l-2.193,1.607l-20.115,14.74l-1.029,0.754l0.249,1.25l3.134,15.721
					l-6.395-17.028l-0.916-2.44l-2.12,1.516l-21.05,15.061l-1.128,0.807l0.361,1.339c3.55,13.183,6.592,26.726,9.081,40.416
					c-8.023-17.568-14.39-34.036-18.979-49.098l-0.821-2.696l-2.274,1.665l-30.519,22.348l-1.042,0.763l0.267,1.264
					c4.198,19.896,7.661,41.156,10.319,63.339l-0.918-1.793l-1.15-2.246l-1.924,1.632l-15.285,12.968
					c-6.363-15.771-13.665-34.806-20.552-57.589l-0.927-3.067l-2.348,2.18l-18.018,16.731l-1.035,0.961l0.56,1.297l4.879,11.302
					c-1.575-0.738-3.317-1.11-5.219-1.111c-3.871,0-8.238,1.534-13.352,4.691c-1.304,0.805-2.664,1.698-4.044,2.656l-0.043,0.03
					l-0.042,0.032c-3.354,2.599-7.599,6.434-12.616,11.401c-5.683,5.763-9.653,9.608-11.815,11.445l-1.193,1.013l0.697,1.402
					c2.181,4.385,5.02,10.618,8.436,18.526c12.319,27.977,21.818,50.793,28.24,67.825l0.816,2.164l2.024-1.119
					c1.628-0.9,3.227-1.834,4.752-2.776c9.898-6.111,17.496-13.714,22.584-22.597c4.214-7.345,7.126-14.713,8.654-21.899
					c0.379-1.77,0.661-3.486,0.846-5.145l0.951,2.203l1.204,2.79l2.086-2.209c9.805-10.385,18.704-18.916,26.505-25.414
					c0.019,0.208,0.038,0.416,0.056,0.624l0.306,3.475l2.844-2.019l21.256-15.092l1.096-0.778l-0.306-1.308l-2.181-9.317
					l3.442-2.654l4.206,11.615l0.968,2.672l2.189-1.812l12.013-9.948c0.084,0.772,0.165,1.544,0.24,2.318l0.325,3.33l2.779-1.864
					l18.617-12.485l1.125-0.755l-0.283-1.325l-7.507-35.091l14.484,40.035l0.872,2.41l2.126-1.431l9.837-6.623l1.111-0.748
					l-0.269-1.312l-6.87-33.534l9.837,25.372l0.946,2.439l2.106-1.552l8.752-6.449c0.102,1.466,0.199,2.965,0.284,4.477l0.191,3.39
					l2.872-1.811l19.527-12.312l1.138-0.718l-0.236-1.325l-6.236-35.026l13.217,39.682l0.808,2.425l2.16-1.367l10.319-6.532
					l1.124-0.711l-0.221-1.311l-5.624-33.367l9.105,25.269l0.88,2.443l2.137-1.475l18.756-12.946l1.377-0.95l-0.692-1.523
					l-0.118-0.259c2.827,1.496,5.792,2.249,8.869,2.249c2.52,0,5.141-0.511,7.793-1.52c9.634-3.665,16.884-12.246,21.548-25.505
					c3.751-10.657,5.213-21.453,4.345-32.089c-0.562-6.245-1.779-11.854-3.618-16.688c-1.943-5.106-4.656-9.53-8.064-13.15
					C374.138,68.983,368.914,66.439,363.303,66.439L363.303,66.439z M361.595,138.398c-1.13,0-2.167-0.261-3.17-0.799
					c-1.693-0.939-2.956-2.526-3.836-4.837c-0.672-1.765-1.132-3.912-1.37-6.383c-0.388-4.778,0.177-10.152,1.682-15.941
					c1.721-6.927,4.299-11.078,7.669-12.36c0.579-0.22,1.136-0.332,1.657-0.332c1.809,0,3.584,1.418,5.277,4.214
					c2.488,4.275,4.005,9.11,4.491,14.343c0.426,4.427-0.039,8.623-1.382,12.479c-1.613,4.664-4.127,7.587-7.689,8.942
					C363.747,138.171,362.627,138.398,361.595,138.398L361.595,138.398z M191.385,201.115l-2.769-12.05l3.998,11.101
					L191.385,201.115L191.385,201.115z M120.851,245.998c2.122-6.952,3.213-13.316,3.273-19.066l7.54,17.467
					c-1.003-0.296-2.057-0.445-3.16-0.445C126.135,243.954,123.605,244.627,120.851,245.998L120.851,245.998z M98.791,238.906
					c1.811-1.861,3.331-3.177,4.529-3.916c0.818-0.505,1.253-0.592,1.403-0.606c0.003,0.005,0.007,0.011,0.011,0.017
					c0.047,0.077,0.287,0.529,0.354,1.9c0.251,4.235-0.594,8.799-2.515,13.623l-1.317-3.734
					C100.416,243.814,99.589,241.369,98.791,238.906L98.791,238.906z M111.07,272.855c3.225-3.253,5.892-5.539,7.936-6.801
					c1.472-0.909,2.204-1.007,2.45-1.007c0.088,0,0.126,0.012,0.131,0.014c0,0.001,0.03,0.027,0.076,0.101
					c1.052,1.704,1.39,6.025-7.151,16.234C113.091,278.065,111.939,275.206,111.07,272.855L111.07,272.855z"/>
			</g>
			<g>
				<path fill="#FED20D" d="M420.854,127.601c-1.396-2.51-3.605-3.699-6.625-3.567c-2.61,0.001-5.105,0.907-7.484,2.713
					c-3.151,2.333-5.492,5.425-7.025,9.274c-1.869,4.811-1.858,8.916,0.031,12.312c1.397,2.511,3.57,3.721,6.515,3.628
					c2.453-0.109,4.908-1.087,7.361-2.934c3.077-2.292,5.401-5.325,6.976-9.102C422.659,135.108,422.744,130.999,420.854,127.601z"
					/>
				<path fill="#010101" d="M414.675,124.024c2.792,0,4.853,1.193,6.179,3.577c1.89,3.398,1.805,7.507-0.252,12.325
					c-1.575,3.777-3.899,6.81-6.976,9.102c-2.453,1.847-4.908,2.825-7.361,2.934c-0.104,0.003-0.208,0.005-0.31,0.005
					c-2.787,0-4.857-1.211-6.205-3.633c-1.889-3.396-1.9-7.502-0.031-12.312c1.533-3.849,3.874-6.941,7.025-9.274
					c2.379-1.806,4.874-2.711,7.484-2.713C414.379,124.027,414.528,124.024,414.675,124.024 M414.675,122.024
					c-0.162,0-0.325,0.003-0.491,0.01c-3.028,0.011-5.938,1.061-8.649,3.12c-3.419,2.531-6.008,5.943-7.674,10.127
					c-2.092,5.385-2.042,10.099,0.141,14.025c1.696,3.049,4.446,4.661,7.953,4.661c0.123,0,0.247-0.002,0.373-0.006
					c2.88-0.128,5.732-1.25,8.501-3.335c3.344-2.491,5.911-5.834,7.619-9.93c2.297-5.38,2.351-10.118,0.154-14.067
					C420.926,123.616,418.185,122.024,414.675,122.024L414.675,122.024z"/>
			</g>
			<g>
				<path fill="#FED20D" d="M405.851,76.392c-0.923-7.771-1.706-18.855-2.348-33.256l-24.875,10.135l18.261,64.843l15.395-8.604
					C409.286,98.055,407.141,87.016,405.851,76.392z"/>
				<path fill="#010101" d="M403.504,43.137c0.642,14.401,1.425,25.484,2.348,33.256c1.29,10.624,3.435,21.663,6.432,33.118
					l-15.395,8.604l-18.261-64.843L403.504,43.137 M405.375,40.214l-2.626,1.07l-24.875,10.135l-1.655,0.674l0.484,1.72
					l18.261,64.843l0.687,2.441l2.214-1.237l15.395-8.604l1.351-0.755l-0.392-1.497c-2.962-11.318-5.109-22.371-6.382-32.853
					c-0.913-7.685-1.698-18.824-2.335-33.104L405.375,40.214L405.375,40.214z"/>
			</g>
		</g>
	</g>
</g>
</svg>
