<?xml version="1.0" encoding="utf-8"?>
<!-- Generator: Adobe Illustrator 19.2.1, SVG Export Plug-In . SVG Version: 6.00 Build 0)  -->
<svg version="1.1" id="Layer_1" xmlns="http://www.w3.org/2000/svg" xmlns:xlink="http://www.w3.org/1999/xlink" x="0px" y="0px"
	 viewBox="0 0 953.7 205.6" style="enable-background:new 0 0 953.7 205.6;" xml:space="preserve">
<style type="text/css">
	.st0{fill:#378EBE;}
	.st1{fill:#595AA4;}
	.st2{fill:#C1408A;}
	.st3{fill:#7A4B98;}
	.st4{fill:url(#SVGID_1_);}
	.st5{fill:url(#SVGID_2_);}
	.st6{fill:url(#SVGID_3_);}
	.st7{fill:url(#SVGID_4_);}
	.st8{fill:url(#SVGID_5_);}
</style>
<circle class="st0" cx="598" cy="69.5" r="4.4"/>
<circle class="st0" cx="606.8" cy="97.7" r="4.4"/>
<circle class="st0" cx="836.9" cy="105.5" r="4.2"/>
<circle class="st1" cx="832.4" cy="69.8" r="4.2"/>
<circle class="st1" cx="879.1" cy="72" r="3.9"/>
<circle class="st1" cx="813.5" cy="99.2" r="4.6"/>
<circle class="st2" cx="832.4" cy="89.2" r="4.6"/>
<circle class="st2" cx="881" cy="93.3" r="4.6"/>
<circle class="st2" cx="548" cy="118.2" r="3.7"/>
<circle class="st1" cx="551.3" cy="78.3" r="3.9"/>
<circle class="st2" cx="574" cy="72" r="4.6"/>
<circle class="st3" cx="560.5" cy="98.3" r="4.6"/>
<circle class="st3" cx="621.2" cy="84.6" r="4.6"/>
<circle class="st3" cx="852.1" cy="77.2" r="4.6"/>
<circle class="st0" cx="892.2" cy="113.8" r="3.5"/>
<linearGradient id="SVGID_1_" gradientUnits="userSpaceOnUse" x1="545.6154" y1="120.7394" x2="633.3049" y2="120.7394">
	<stop  offset="0" style="stop-color:#1EB9CF"/>
	<stop  offset="0.2906" style="stop-color:#556FB6"/>
	<stop  offset="0.4807" style="stop-color:#7355A3"/>
	<stop  offset="0.7608" style="stop-color:#C34A9B"/>
	<stop  offset="1" style="stop-color:#EE1E4F"/>
</linearGradient>
<path class="st4" d="M608.1,129.3l-6.6-11.3l-19.7-34l-19.7,34l-16.6,28.8c5.4,5.3,12.2,7.9,19.6,9.2c6.4,1.1,12.9,1.8,19.1,1.6
	c8.2,0.2,15.9-0.6,23.6-2.4c3.1-0.8,6.3-1.8,9.1-3.3c8.6-4.6,13.7-11.9,15.7-21.4c0.2-1,0.4-2,0.6-3l-12.1-21L608.1,129.3z"/>
<g>
	<linearGradient id="SVGID_2_" gradientUnits="userSpaceOnUse" x1="805.0405" y1="120.7321" x2="894.5693" y2="120.7321">
		<stop  offset="0" style="stop-color:#EE1E4F"/>
		<stop  offset="0.2392" style="stop-color:#C34A9B"/>
		<stop  offset="0.5193" style="stop-color:#7355A3"/>
		<stop  offset="0.7094" style="stop-color:#556FB6"/>
		<stop  offset="1" style="stop-color:#1EB9CF"/>
	</linearGradient>
	<path class="st5" d="M831.8,155.9c6.4,1.1,12.9,1.8,19.1,1.6c8.2,0.2,15.9-0.6,23.6-2.4c3.1-0.8,6.3-1.8,9.1-3.3
		c4.7-2.5,8.3-5.8,10.9-9.8l-14-24.2l-19.7-34l-19.7,34l-6.6,11.3l-13.1-22.7l-13.1,22.7l-3.5,6.1c1.3,3.5,3.1,6.8,5.7,9.8
		C816.4,151.6,823.8,154.5,831.8,155.9z"/>
	<linearGradient id="SVGID_3_" gradientUnits="userSpaceOnUse" x1="794.3578" y1="153.7669" x2="796.6754" y2="153.7669">
		<stop  offset="0" style="stop-color:#EE1E4F"/>
		<stop  offset="0.2392" style="stop-color:#C34A9B"/>
		<stop  offset="0.5193" style="stop-color:#7355A3"/>
		<stop  offset="0.7094" style="stop-color:#556FB6"/>
		<stop  offset="1" style="stop-color:#1EB9CF"/>
	</linearGradient>
	<path class="st6" d="M796.5,154.6c-0.5-0.6-1-1.3-1.4-1.9l-0.7,1.2l2.3,1C796.6,154.8,796.5,154.7,796.5,154.6z"/>
</g>
<g>
	<linearGradient id="SVGID_4_" gradientUnits="userSpaceOnUse" x1="57.6446" y1="107.3583" x2="334.3758" y2="107.3583">
		<stop  offset="0" style="stop-color:#1EB9CF"/>
		<stop  offset="0.25" style="stop-color:#556FB6"/>
		<stop  offset="0.5" style="stop-color:#7355A3"/>
		<stop  offset="0.75" style="stop-color:#C34A9B"/>
		<stop  offset="1" style="stop-color:#EE1E4F"/>
	</linearGradient>
	<path class="st7" d="M131,175.6c-5.8,0-9.6-4.3-12.3-8c-6.2-8.6-87.1-120.4-88-121.6c-1.4-2-1-4.7,1-6.2c2-1.4,4.7-1,6.2,1
		c0.8,1.1,81.8,113,88,121.6c2.1,3,3.7,4.3,5.1,4.3c1.6,0,2.9-1.3,2.9-2.9V43.5c0-2.4,2-4.4,4.4-4.4s4.4,2,4.4,4.4v120.4
		C142.8,170.4,137.5,175.6,131,175.6z"/>
	<linearGradient id="SVGID_5_" gradientUnits="userSpaceOnUse" x1="60.9279" y1="107.3589" x2="340.7958" y2="107.3589">
		<stop  offset="0" style="stop-color:#1EB9CF"/>
		<stop  offset="0.25" style="stop-color:#556FB6"/>
		<stop  offset="0.5" style="stop-color:#7355A3"/>
		<stop  offset="0.75" style="stop-color:#C34A9B"/>
		<stop  offset="1" style="stop-color:#EE1E4F"/>
	</linearGradient>
	<path class="st8" d="M318.7,175.6h-74.5c-6.1,0-11.9-3-15.5-7.9l-33-45.6c-0.1-0.1-0.1-0.2-0.2-0.3c-3.2-5.1-3-11,0.5-15
		c3.1-3.5,7.4-3.8,10.8-4.1c1-0.1,2-0.1,2.8-0.3c12.7-2.2,22.5-13.6,22.8-26.6c0.1-7.3-2.7-14.2-7.9-19.5
		c-5.3-5.4-12.7-8.6-20.3-8.6h-44.1c-2.4,0-4.4-2-4.4-4.4c0-2.4,2-4.4,4.4-4.4h44.1c9.9,0,19.6,4.1,26.6,11.2
		c6.9,7,10.6,16.2,10.4,25.9c-0.3,17.1-13.3,32.2-30.1,35.1c-1.2,0.2-2.5,0.3-3.6,0.4c-2.1,0.2-4.1,0.3-4.9,1.1
		c-0.9,1.1-0.5,2.9,0.3,4.3l32.9,45.5c1.9,2.7,5.1,4.3,8.3,4.3h74.5c7.6,0,14.9-3.1,20.3-8.6c5.2-5.3,8-12.2,7.9-19.5
		c-0.1-5.2-1.7-10.4-4.7-14.8c-1.5-2.2-3.3-4.2-5.3-5.9c-0.2-0.2-0.5-0.4-0.7-0.6c-2.5-2.1-5.8-4.9-5.8-10.1c0-5.3,3.4-8.1,5.8-10.1
		c0.2-0.2,0.5-0.4,0.7-0.6c2.1-1.7,3.8-3.7,5.3-5.9c3-4.4,4.6-9.5,4.7-14.8c0.1-7.3-2.7-14.2-7.9-19.5c-5.3-5.4-12.7-8.6-20.3-8.6
		h-52.4c-1.6,0-2.9,1.3-2.9,2.9v98.3c0,2.4-2,4.4-4.4,4.4s-4.4-2-4.4-4.4V50.8c0-6.5,5.3-11.8,11.8-11.8h52.4
		c9.9,0,19.6,4.1,26.6,11.2c6.9,7,10.6,16.2,10.4,25.9c-0.1,7-2.3,13.7-6.3,19.6c-1.9,2.8-4.2,5.4-6.9,7.7c-0.3,0.2-0.5,0.4-0.8,0.6
		c-2.1,1.8-2.7,2.4-2.7,3.3s0.5,1.6,2.7,3.3c0.3,0.2,0.5,0.4,0.8,0.6c2.7,2.3,5,4.8,6.9,7.7c4,5.8,6.1,12.6,6.3,19.6
		c0.2,9.7-3.5,18.8-10.4,25.9C338.3,171.6,328.6,175.6,318.7,175.6z"/>
</g>
<path d="M650.6,108.3c0.2,6.6-0.4,14.2-1.7,21.7c-1.1,6.7-2.4,13.5-5.8,19.5c-4.5,8.1-11,14.2-19.7,17.6c-5.8,2.3-12,3.5-18.1,4.4
	c-8.8,1.3-17.7,1.6-26.6,1.3c-8.1-0.2-16-1.3-23.9-3c-10.1-2.3-18.5-7.1-25-15.4c-3.6-4.7-5.8-10-7.3-15.7
	c-3.6-13.8-4.2-27.9-3.3-42c0.4-6.7,1.5-13.3,2.8-19.9c2.3-11.6,8.3-20.7,18.4-27.1c3.8-2.4,8-3.9,12.3-5
	c13.4-3.5,27.1-4.1,40.9-3.4c7.1,0.3,14.1,1.3,21,2.9c11.2,2.5,20.2,8.2,26.7,17.7c2.6,3.8,4.3,8,5.4,12.4
	C649.6,85.3,650.7,96.2,650.6,108.3z M584.3,157.5c8.2,0.2,15.9-0.6,23.6-2.4c3.1-0.8,6.3-1.8,9.1-3.3c8.6-4.6,13.7-11.9,15.7-21.4
	c1.4-6.6,2.3-13.3,2.4-20.1c0.1-11.1-0.3-22.1-4.4-32.5c-3.3-8.5-9.5-14.2-18-17.2c-7-2.5-14.3-3.5-21.7-3.7
	c-6.5-0.1-13,0.2-19.5,0.6c-6.3,0.4-12.4,1.7-18.1,4.4c-6.6,3.2-11.5,8.1-14.3,14.8c-3,7.1-4,14.8-4.4,22.4c-0.5,10.1-0.2,20.1,2,30
	c1.3,5.8,3.5,11.2,7.5,15.8c5.6,6.4,13,9.3,21.1,10.7C571.6,157.1,578.1,157.7,584.3,157.5z"/>
<path d="M917.2,108.3c0.2,6.6-0.4,14.2-1.7,21.7c-1.1,6.7-2.4,13.5-5.8,19.5c-4.5,8.1-11,14.2-19.7,17.6c-5.8,2.3-12,3.5-18.1,4.4
	c-8.8,1.3-17.7,1.6-26.6,1.3c-8.1-0.2-16-1.3-23.9-3c-10.1-2.3-18.5-7.1-25-15.4c-3.6-4.7-5.8-10-7.3-15.7
	c-3.6-13.8-4.2-27.9-3.3-42c0.4-6.7,1.5-13.3,2.8-19.9c2.3-11.6,8.3-20.7,18.4-27.1c3.8-2.4,8-3.9,12.3-5
	c13.4-3.5,27.1-4.1,40.9-3.4c7.1,0.3,14.1,1.3,21,2.9c11.2,2.5,20.2,8.2,26.7,17.7c2.6,3.8,4.3,8,5.4,12.4
	C916.2,85.3,917.3,96.2,917.2,108.3z M850.9,157.5c8.2,0.2,15.9-0.6,23.6-2.4c3.1-0.8,6.3-1.8,9.1-3.3c8.6-4.6,13.7-11.9,15.7-21.4
	c1.4-6.6,2.3-13.3,2.4-20.1c0.1-11.1-0.3-22.1-4.4-32.5c-3.3-8.5-9.5-14.2-18-17.2c-7-2.5-14.3-3.5-21.7-3.7
	c-6.5-0.1-13,0.2-19.5,0.6c-6.3,0.4-12.4,1.7-18.1,4.4c-6.6,3.2-11.5,8.1-14.3,14.8c-3,7.1-4,14.8-4.4,22.4c-0.5,10.1-0.2,20.1,2,30
	c1.3,5.8,3.5,11.2,7.5,15.8c5.6,6.4,13,9.3,21.1,10.7C838.3,157,844.7,157.7,850.9,157.5z"/>
<path d="M490.1,40.9c-1.6-1.8-4.2-2-6.4-2c-23.3,0-46.5,0-69.8,0c-6.8,0-8.7,1.9-8.7,8.8l0,116.2c0,5.3,0,8,1.9,9.9
	c1.6,1.6,3.8,1.8,7.8,1.8c0.6,0,1.3,0,2.1,0c5.5,0,7.7-2.2,7.7-7.7c0-11.2,0-22.4,0-33.7l0-13.6l12.2,0c12.3,0,25,0,37.4-0.1
	c0.1,0,6.3-0.2,7.2-3.6c0.5-2.1,1.2-6.1,0.1-9.9c-1-3.2-6.5-3.9-7.9-3.9c-12.1-0.1-24.5-0.1-36.4-0.1c-3.7,0-7.3,0-11,0h-1.4V56.4
	l17.1,0c13.9,0,27.8,0,41.7,0c6.2,0,8.1-2.1,8.1-8.8C491.7,44.5,491.5,42.4,490.1,40.9z"/>
<path d="M753,39c-15.5,0-31,0-46.6,0l-13.3,0c-1.7,0-3.4,0-5,0c-3.8,0-7.8,0-11.7,0c-4.3-0.1-6.9,2.4-7,6.8c0,1.1,0,2.3,0,3.5
	c0.2,5,2.5,7.3,7.5,7.3c6.6,0,13.2,0,19.8,0l9.1,0v109.7l0,0.7c0,0.6,0,1.1,0,1.7c0.2,4.6,2.4,6.9,7,7c0.4,0,0.7,0,1.1,0
	c0.3,0,0.6,0,0.8,0l0.8,0c8,0,9.5-1.5,9.5-9.3V56.5l9.3,0c6.3,0,12.5,0,18.8,0c6.4,0,8.3-2,8.3-8.9C761.3,40.6,759.8,39,753,39z"/>
</svg>
