<?xml version="1.0" encoding="UTF-8" standalone="no"?>
<svg width="170px" height="58px" viewBox="0 0 170 58" version="1.1" xmlns="http://www.w3.org/2000/svg" xmlns:xlink="http://www.w3.org/1999/xlink" xmlns:sketch="http://www.bohemiancoding.com/sketch/ns">
    <!-- Generator: Sketch 3.4 (15575) - http://www.bohemiancoding.com/sketch -->
    <title>googleplay</title>
    <desc>Created with Sketch.</desc>
    <defs>
        <linearGradient x1="60.0995717%" y1="91.9797552%" x2="33.5000976%" y2="-59.2459079%" id="linearGradient-1">
            <stop stop-color="#D7E69D" offset="0%"></stop>
            <stop stop-color="#94C4AA" offset="44.56%"></stop>
            <stop stop-color="#01A4B6" offset="100%"></stop>
        </linearGradient>
        <linearGradient x1="-31.9859505%" y1="-128.818008%" x2="80.4721996%" y2="114.258403%" id="linearGradient-2">
            <stop stop-color="#ED277B" offset="0%"></stop>
            <stop stop-color="#EE2F7C" offset="1.92%"></stop>
            <stop stop-color="#F7BD81" offset="70.39%"></stop>
            <stop stop-color="#FEEB74" offset="100%"></stop>
        </linearGradient>
        <linearGradient x1="50.9068572%" y1="74.7179969%" x2="-0.00833083431%" y2="-29.4385912%" id="linearGradient-3">
            <stop stop-color="#89CFBD" offset="0%"></stop>
            <stop stop-color="#7DBEBB" offset="9.07%"></stop>
            <stop stop-color="#457CAC" offset="53.96%"></stop>
            <stop stop-color="#1C5AA2" offset="85.23%"></stop>
            <stop stop-color="#084D9F" offset="100%"></stop>
        </linearGradient>
        <linearGradient x1="119.297308%" y1="35.6799782%" x2="-22.9911292%" y2="61.1851255%" id="linearGradient-4">
            <stop stop-color="#F04A2B" offset="0%"></stop>
            <stop stop-color="#B54F6B" offset="47.04%"></stop>
            <stop stop-color="#8B5191" offset="83.53%"></stop>
            <stop stop-color="#7851A1" offset="100%"></stop>
        </linearGradient>
    </defs>
    <g id="Page-1" stroke="none" stroke-width="1" fill="none" fill-rule="evenodd" sketch:type="MSPage">
        <g id="googleplay" sketch:type="MSLayerGroup">
            <g id="Group" sketch:type="MSShapeGroup">
                <path d="M169.335,49.674 C169.335,54.793 165.574,57.975 160.46,57.975 L10.105,57.975 C4.989,57.975 0.839,53.824 0.839,48.704 L0.839,9.545 C0.839,4.427 4.988,0.277 10.105,0.277 L160.46,0.277 C165.574,0.277 169.335,4.427 169.335,9.545 L169.335,49.674 L169.335,49.674 Z" id="Shape" fill="#010101"></path>
                <path d="M169.335,49.674 C169.335,54.793 165.574,57.975 160.46,57.975 L10.105,57.975 C4.989,57.975 0.839,53.824 0.839,48.704 L0.839,9.545 C0.839,4.427 4.988,0.277 10.105,0.277 L160.46,0.277 C165.574,0.277 169.335,4.427 169.335,9.545 L169.335,49.674 L169.335,49.674 Z" id="Shape" fill="#010101"></path>
                <g transform="translate(40.000000, 24.000000)" id="Shape" fill="#FFFFFF">
                    <g>
                        <path d="M75.988,17.692 L74.721,18.885 C74.43,19.044 74.139,19.233 73.848,19.364 C72.97,19.763 72.077,19.863 71.284,19.863 C70.437,19.863 69.114,19.808 67.763,18.831 C65.884,17.509 65.065,15.237 65.065,13.255 C65.065,9.153 68.405,7.143 71.127,7.143 C72.079,7.143 73.056,7.382 73.851,7.884 C75.173,8.757 75.515,9.894 75.705,10.502 L69.486,13.015 L67.448,13.173 C68.108,16.534 70.384,18.489 72.897,18.489 C74.153,18.489 75.085,18.081 75.94,17.658 C75.939,17.659 76.111,17.57 75.988,17.692 L75.988,17.692 Z M72.236,11.004 C72.741,10.82 73.004,10.661 73.004,10.293 C73.004,9.236 71.809,8.018 70.383,8.018 C69.326,8.018 67.342,8.84 67.342,11.699 C67.342,12.143 67.395,12.619 67.422,13.095 L72.236,11.004 L72.236,11.004 Z"></path>
                        <path d="M62.986,17.486 C62.986,18.514 63.17,18.674 64.039,18.756 C64.492,18.809 64.944,18.832 65.393,18.887 L64.414,19.468 L59.754,19.468 C60.365,18.676 60.469,18.597 60.469,18.07 L60.469,17.477 L60.459,1.751 L58.4,1.751 L60.38,0.796 L64.162,0.796 C63.343,1.271 63.097,1.559 62.991,2.484 L62.986,17.486 L62.986,17.486 Z"></path>
                        <path d="M55.758,8.441 C56.364,8.941 57.632,10 57.632,12.009 C57.632,13.967 56.528,14.891 55.414,15.766 C55.072,16.11 54.673,16.484 54.673,17.062 C54.673,17.646 55.072,17.962 55.361,18.201 L56.318,18.937 C57.477,19.917 58.538,20.818 58.538,22.643 C58.538,25.131 56.131,27.639 51.58,27.639 C47.746,27.639 45.893,25.816 45.893,23.859 C45.893,22.905 46.367,21.556 47.931,20.631 C49.572,19.629 51.793,19.494 52.984,19.417 C52.612,18.937 52.188,18.434 52.188,17.615 C52.188,17.166 52.324,16.898 52.453,16.583 C52.164,16.611 51.873,16.641 51.607,16.641 C48.801,16.641 47.213,14.545 47.213,12.486 C47.213,11.268 47.77,9.92 48.908,8.941 C50.416,7.699 52.215,7.484 53.641,7.484 L59.092,7.484 L57.4,8.441 L55.758,8.441 L55.758,8.441 Z M53.883,20.185 C53.666,20.158 53.535,20.158 53.275,20.158 C53.036,20.158 51.607,20.211 50.5,20.582 C49.916,20.797 48.223,21.428 48.223,23.307 C48.223,25.182 50.05,26.536 52.876,26.536 C55.416,26.536 56.765,25.318 56.765,23.68 C56.763,22.328 55.891,21.615 53.883,20.185 L53.883,20.185 Z M54.643,15.158 C55.256,14.547 55.308,13.705 55.308,13.225 C55.308,11.324 54.174,8.36 51.975,8.36 C51.289,8.36 50.546,8.704 50.123,9.236 C49.678,9.788 49.544,10.503 49.544,11.189 C49.544,12.96 50.576,15.899 52.848,15.899 C53.512,15.899 54.225,15.576 54.643,15.158 L54.643,15.158 Z"></path>
                        <path d="M39.358,19.811 C35.153,19.811 32.904,16.537 32.904,13.573 C32.904,10.109 35.732,7.144 39.754,7.144 C43.642,7.144 46.078,10.188 46.078,13.385 C46.078,16.506 43.671,19.811 39.358,19.811 L39.358,19.811 Z M42.666,17.67 C43.306,16.824 43.46,15.768 43.46,14.737 C43.46,12.408 42.35,7.965 39.069,7.965 C38.197,7.965 37.319,8.306 36.686,8.863 C35.651,9.788 35.468,10.95 35.468,12.092 C35.468,14.705 36.76,19.016 39.967,19.016 C41.001,19.016 42.056,18.516 42.666,17.67 L42.666,17.67 Z"></path>
                        <path d="M25.28,19.811 C21.074,19.811 18.829,16.537 18.829,13.573 C18.829,10.109 21.659,7.144 25.679,7.144 C29.566,7.144 31.998,10.188 31.998,13.385 C31.998,16.506 29.595,19.811 25.28,19.811 L25.28,19.811 Z M28.589,17.67 C29.223,16.824 29.382,15.768 29.382,14.737 C29.382,12.408 28.269,7.965 24.991,7.965 C24.116,7.965 23.246,8.306 22.612,8.863 C21.576,9.788 21.394,10.95 21.394,12.092 C21.394,14.705 22.69,19.016 25.891,19.016 C26.925,19.016 27.979,18.516 28.589,17.67 L28.589,17.67 Z"></path>
                        <path d="M17.148,18.893 L13.601,19.705 C12.165,19.933 10.875,20.132 9.509,20.132 C2.669,20.132 0.062,15.097 0.062,11.156 C0.062,6.344 3.755,1.882 10.079,1.882 C11.416,1.882 12.704,2.078 13.877,2.397 C15.735,2.92 16.605,3.564 17.148,3.941 L15.087,5.899 L14.218,6.091 L14.837,5.105 C13.999,4.286 12.457,2.773 9.531,2.773 C5.618,2.773 2.667,5.746 2.667,10.09 C2.667,14.752 6.038,19.139 11.441,19.139 C13.03,19.139 13.847,18.82 14.588,18.523 L14.588,14.525 L10.844,14.725 L12.829,13.66 L18.083,13.66 L17.439,14.279 C17.266,14.426 17.244,14.475 17.195,14.675 C17.169,14.902 17.145,15.618 17.145,15.871 L17.145,18.893 L17.148,18.893 L17.148,18.893 Z"></path>
                    </g>
                    <g transform="translate(82.000000, 2.000000)">
                        <path d="M1.613,15.805 L1.613,22.543 L0.275,22.543 L0.275,5.398 L1.613,5.398 L1.613,7.349 C2.484,6.088 4.077,5.088 5.926,5.088 C9.243,5.088 11.48,7.605 11.48,11.588 C11.48,15.546 9.245,18.115 5.926,18.115 C4.181,18.117 2.617,17.217 1.613,15.805 L1.613,15.805 Z M10.043,11.59 C10.043,8.587 8.478,6.297 5.701,6.297 C3.977,6.297 2.33,7.651 1.613,8.832 L1.613,14.32 C2.33,15.503 3.977,16.908 5.701,16.908 C8.478,16.908 10.043,14.598 10.043,11.59 L10.043,11.59 Z"></path>
                        <path d="M13.307,17.809 L13.307,0.665 L14.647,0.665 L14.647,17.809 L13.307,17.809 L13.307,17.809 Z"></path>
                        <path d="M29.659,21.434 C29.944,21.562 30.432,21.641 30.742,21.641 C31.559,21.641 32.131,21.305 32.641,20.123 L33.619,17.912 L28.348,5.398 L29.84,5.398 L34.362,16.243 L38.84,5.398 L40.354,5.398 L33.924,20.537 C33.258,22.098 32.208,22.848 30.766,22.848 C30.333,22.848 29.764,22.77 29.429,22.668 L29.659,21.434 L29.659,21.434 Z"></path>
                        <path d="M25.75,17.771 C25.66,17.339 25.594,16.961 25.545,16.644 C25.504,16.33 25.482,16.004 25.482,15.676 C25.023,16.35 24.373,16.91 23.544,17.352 C22.713,17.795 21.924,18.014 20.84,18.014 C19.537,18.014 18.527,17.695 17.803,17.043 C17.083,16.393 16.721,15.512 16.721,14.398 C16.721,13.284 17.246,12.381 18.291,11.693 C19.337,10.998 20.688,10.655 22.361,10.655 L25.482,10.655 L25.482,9.111 C25.482,8.221 25.178,7.525 24.574,7.017 C23.968,6.51 23.116,6.255 22.012,6.255 C21.002,6.255 20.184,6.488 19.562,6.944 C18.945,7.41 18.633,7.986 18.633,8.681 L17.263,8.681 L17.237,8.615 C17.187,7.677 17.615,6.855 18.528,6.146 C19.433,5.435 20.625,5.08 22.089,5.08 C23.545,5.08 24.727,5.432 25.617,6.131 C26.506,6.824 26.951,7.828 26.951,9.139 L26.951,15.261 C26.951,15.7 26.972,16.125 27.027,16.539 C27.085,16.954 27.173,17.367 27.295,17.768 L25.75,17.771 L25.75,17.771 L25.75,17.771 Z M21.002,16.797 C22.139,16.797 22.955,16.543 23.791,16.04 C24.619,15.541 25.185,14.891 25.48,14.102 L25.48,11.718 L22.344,11.718 C21.146,11.718 20.156,11.984 19.374,12.518 C18.593,13.051 18.195,13.697 18.195,14.448 C18.195,15.156 18.447,15.72 18.945,16.149 C19.447,16.582 20.131,16.797 21.002,16.797 L21.002,16.797 Z"></path>
                    </g>
                </g>
                <g transform="translate(40.000000, 8.000000)" id="Shape" fill="#FFFFFF">
                    <path d="M0.118,4.601 C0.118,1.967 2.076,0.272 4.51,0.272 C6.141,0.272 7.208,1.05 7.872,2.003 L6.681,2.693 C6.229,2.067 5.438,1.577 4.51,1.577 C2.854,1.577 1.624,2.832 1.624,4.6 C1.624,6.345 2.854,7.624 4.51,7.624 C5.363,7.624 6.115,7.235 6.492,6.873 L6.492,5.579 L3.983,5.579 L3.983,4.287 L7.947,4.287 L7.947,7.412 C7.132,8.328 5.952,8.943 4.509,8.943 C2.076,8.943 0.118,7.224 0.118,4.601 L0.118,4.601 Z"></path>
                    <path d="M9.764,8.78 L9.764,0.41 L15.498,0.41 L15.498,1.702 L11.232,1.702 L11.232,3.86 L15.41,3.86 L15.41,5.152 L11.232,5.152 L11.232,7.486 L15.498,7.486 L15.498,8.779 L9.764,8.78 L9.764,8.78 L9.764,8.78 Z"></path>
                    <path d="M19.56,8.78 L19.56,1.703 L17.026,1.703 L17.026,0.411 L23.562,0.411 L23.562,1.703 L21.028,1.703 L21.028,8.78 L19.56,8.78 L19.56,8.78 Z"></path>
                    <path d="M28.664,8.78 L28.664,0.41 L30.132,0.41 L30.132,8.78 L28.664,8.78 L28.664,8.78 Z"></path>
                    <path d="M34.219,8.78 L34.219,1.703 L31.685,1.703 L31.685,0.411 L38.221,0.411 L38.221,1.703 L35.687,1.703 L35.687,8.78 L34.219,8.78 L34.219,8.78 Z"></path>
                    <path d="M42.96,4.601 C42.96,2.104 44.729,0.272 47.239,0.272 C49.735,0.272 51.516,2.104 51.516,4.601 C51.516,7.098 49.735,8.93 47.239,8.93 C44.729,8.93 42.96,7.098 42.96,4.601 L42.96,4.601 Z M50.012,4.601 C50.012,2.871 48.92,1.578 47.241,1.578 C45.547,1.578 44.468,2.87 44.468,4.601 C44.468,6.321 45.547,7.625 47.241,7.625 C48.92,7.625 50.012,6.321 50.012,4.601 L50.012,4.601 Z"></path>
                    <path d="M59.065,8.78 L54.699,2.795 L54.699,8.78 L53.232,8.78 L53.232,0.41 L54.738,0.41 L59.014,6.206 L59.014,0.41 L60.484,0.41 L60.484,8.78 L59.065,8.78 L59.065,8.78 Z"></path>
                </g>
                <g transform="translate(8.000000, 23.000000)" id="Shape">
                    <path d="M14.59,13.892 L18.883,9.6 L18.882,9.6 L14.59,13.892 L0.891,0.192 L0.89,0.192 L14.59,13.894 L0.868,27.615 L0.868,27.615 L14.59,13.894 L18.902,18.205 L18.904,18.205 L14.59,13.892 Z"></path>
                    <path d="M18.882,9.6 L2.156,0.403 C1.683,0.144 1.244,0.084 0.891,0.193 L14.591,13.892 L18.882,9.6 L18.882,9.6 Z" fill="url(#linearGradient-1)"></path>
                    <path d="M18.904,18.205 L24.613,15.064 C25.771,14.424 25.771,13.385 24.613,12.75 L18.883,9.6 L14.591,13.892 L18.904,18.205 L18.904,18.205 Z" fill="url(#linearGradient-2)"></path>
                    <path d="M0.89,0.192 C0.382,0.351 0.052,0.867 0.052,1.646 L0.055,26.168 C0.055,26.938 0.375,27.445 0.868,27.614 L14.591,13.891 L0.89,0.192 L0.89,0.192 Z" fill="url(#linearGradient-3)"></path>
                    <path d="M0.868,27.615 C1.225,27.736 1.672,27.678 2.156,27.414 L18.903,18.205 L14.591,13.893 L0.868,27.615 L0.868,27.615 Z" fill="url(#linearGradient-4)"></path>
                </g>
            </g>
        </g>
    </g>
</svg>